<svg width="30" height="30" viewBox="0 0 30 30" fill="none" xmlns="http://www.w3.org/2000/svg">
<path d="M10.834 15C10.834 12.6989 12.6989 10.833 15 10.833C17.3011 10.833 19.167 12.6989 19.167 15C19.167 17.3011 17.3011 19.167 15 19.167C12.6989 19.167 10.834 17.3011 10.834 15ZM8.58139 15C8.58139 18.545 11.455 21.4186 15 21.4186C18.545 21.4186 21.4186 18.545 21.4186 15C21.4186 11.455 18.545 8.58138 15 8.58138C11.455 8.58138 8.58139 11.455 8.58139 15ZM20.1726 8.32694C20.1726 9.15489 20.8441 9.82734 21.6731 9.82734C22.501 9.82734 23.1735 9.15489 23.1735 8.32694C23.1735 7.49899 22.502 6.82755 21.6731 6.82755C20.8441 6.82755 20.1726 7.49899 20.1726 8.32694ZM9.94951 25.1746C8.73081 25.1191 8.06846 24.9163 7.62824 24.7445C7.04463 24.5174 6.62864 24.2468 6.19043 23.8096C5.75324 23.3724 5.48163 22.9564 5.25545 22.3727C5.0838 21.9325 4.88086 21.2703 4.82533 20.0515C4.76474 18.7339 4.75262 18.338 4.75262 15C4.75262 11.662 4.76575 11.2672 4.82533 9.9485C4.88086 8.7298 5.08481 8.06846 5.25545 7.62722C5.48264 7.04361 5.75324 6.62762 6.19043 6.18941C6.62762 5.75222 7.04362 5.48061 7.62824 5.25444C8.06846 5.0828 8.73081 4.87985 9.94951 4.82431C11.2672 4.76374 11.663 4.75161 15 4.75161C18.338 4.75161 18.7329 4.76474 20.0515 4.82431C21.2703 4.87985 21.9315 5.0838 22.3727 5.25444C22.9564 5.48061 23.3724 5.75222 23.8106 6.18941C24.2477 6.62661 24.5184 7.04361 24.7455 7.62722C24.9172 8.06745 25.1201 8.7298 25.1758 9.9485C25.2362 11.2672 25.2484 11.662 25.2484 15C25.2484 18.337 25.2362 18.7329 25.1758 20.0515C25.1201 21.2703 24.9163 21.9325 24.7455 22.3727C24.5184 22.9564 24.2477 23.3724 23.8106 23.8096C23.3734 24.2468 22.9564 24.5174 22.3727 24.7445C21.9325 24.9163 21.2703 25.1191 20.0515 25.1746C18.7339 25.2353 18.338 25.2474 15 25.2474C11.663 25.2474 11.2672 25.2353 9.94951 25.1746ZM9.84653 2.57573C8.51575 2.63631 7.60703 2.84734 6.8124 3.1563C5.99051 3.47536 5.29382 3.90347 4.59814 4.59814C3.90347 5.29281 3.47536 5.9895 3.1563 6.8124C2.84734 7.60703 2.63631 8.51575 2.57573 9.84653C2.51414 11.1793 2.5 11.6054 2.5 15C2.5 18.3946 2.51414 18.8206 2.57573 20.1535C2.63631 21.4843 2.84734 22.393 3.1563 23.1876C3.47536 24.0095 3.90246 24.7073 4.59814 25.4019C5.29281 26.0965 5.9895 26.5236 6.8124 26.8438C7.60804 27.1526 8.51575 27.3638 9.84653 27.4242C11.1803 27.4849 11.6054 27.5 15 27.5C18.3956 27.5 18.8206 27.4859 20.1535 27.4242C21.4843 27.3638 22.393 27.1526 23.1876 26.8438C24.0095 26.5236 24.7061 26.0965 25.4019 25.4019C26.0965 24.7073 26.5236 24.0095 26.8438 23.1876C27.1526 22.393 27.3647 21.4843 27.4242 20.1535C27.4849 18.8196 27.499 18.3946 27.499 15C27.499 11.6054 27.4849 11.1793 27.4242 9.84653C27.3638 8.51575 27.1526 7.60703 26.8438 6.8124C26.5236 5.99051 26.0965 5.29382 25.4019 4.59814C24.7073 3.90347 24.0095 3.47536 23.1886 3.1563C22.393 2.84734 21.4842 2.6353 20.1545 2.57573C18.8218 2.51515 18.3956 2.5 15.001 2.5C11.6054 2.5 11.1803 2.51414 9.84653 2.57573Z" fill="#737585"/>
</svg>
