<svg width="30" height="30" viewBox="0 0 30 30" fill="none" xmlns="http://www.w3.org/2000/svg">
<path d="M23.7503 2.5H6.25C3.75 2.5 2.5 3.75 2.5 6.25L2.50074 23.75C2.50074 26.25 3.75026 27.5 6.25026 27.5H23.7503C26.2503 27.5 27.5003 26.25 27.5003 23.75V6.25C27.5003 3.75 26.2503 2.5 23.7503 2.5ZM10.8336 22.2917H7.70859V10.8333H10.8336V22.2917ZM9.27109 9.5125C8.26484 9.5125 7.44818 8.68959 7.44818 7.675C7.44818 6.66041 8.26484 5.8375 9.27109 5.8375C10.2773 5.8375 11.094 6.66041 11.094 7.675C11.094 8.68959 10.2784 9.5125 9.27109 9.5125ZM23.3336 22.2917H20.2086V16.4542C20.2086 12.9459 16.0419 13.2115 16.0419 16.4542V22.2917H12.9169V10.8333H16.0419V12.6719C17.4961 9.97813 23.3336 9.77918 23.3336 15.2511V22.2917Z" fill="#737585"/>
</svg>
