<svg width="30" height="30" viewBox="0 0 30 30" fill="none" xmlns="http://www.w3.org/2000/svg">
<path d="M27.5 7.36772C26.5802 7.76969 25.5916 8.0404 24.5541 8.16243C25.6135 7.53794 26.4271 6.5484 26.8094 5.36915C25.8188 5.9475 24.7209 6.36793 23.5521 6.59455C22.6178 5.61321 21.2834 5 19.8084 5C16.4969 5 14.0635 8.04142 14.8115 11.1987C10.55 10.9885 6.77084 8.97867 4.24062 5.92391C2.89687 8.19319 3.54375 11.1618 5.82709 12.6651C4.9875 12.6384 4.19584 12.4118 3.50521 12.0334C3.44896 14.3724 5.15209 16.5608 7.61875 17.0477C6.89687 17.2406 6.10625 17.2856 5.30209 17.1339C5.95416 19.1396 7.84791 20.5989 10.0938 20.6399C7.9375 22.3041 5.22084 23.0476 2.5 22.7318C4.76979 24.1642 7.46666 25 10.3625 25C19.8854 25 25.2656 17.0826 24.9406 9.98154C25.9427 9.26886 26.8125 8.37982 27.5 7.36772Z" fill="#737585"/>
</svg>
