<svg width="30" height="30" viewBox="0 0 30 30" fill="none" xmlns="http://www.w3.org/2000/svg">
<path d="M28.7455 12.1369C28.8072 10.3477 28.416 8.57189 27.608 6.97437C27.0597 6.31887 26.2988 5.87651 25.458 5.72437C21.9798 5.40878 18.4873 5.27943 14.9955 5.33687C11.5162 5.27682 8.03628 5.40199 4.57039 5.71187C3.88517 5.83652 3.25104 6.15793 2.74539 6.63687C1.62039 7.67437 1.4954 9.44937 1.3704 10.9494C1.18903 13.6463 1.18903 16.3524 1.3704 19.0494C1.40656 19.8936 1.53226 20.7316 1.74539 21.5494C1.89612 22.1806 2.20105 22.7648 2.63289 23.2494C3.14198 23.7536 3.79087 24.0934 4.49539 24.2244C7.19029 24.557 9.90567 24.6949 12.6205 24.6369C16.9955 24.6994 20.8328 24.6369 25.3703 24.2869C26.0922 24.1639 26.7593 23.8238 27.283 23.3119C27.6328 22.9618 27.8942 22.5333 28.0455 22.0619C28.4925 20.6901 28.712 19.2545 28.6953 17.8119C28.7455 17.1119 28.7455 12.8869 28.7455 12.1369ZM12.1704 18.5619V10.8244L19.5703 14.7119C17.4955 15.8619 14.7578 17.1619 12.1704 18.5619Z" fill="#737585"/>
</svg>
