<svg width="200" height="34" viewBox="0 0 200 34" fill="none" xmlns="http://www.w3.org/2000/svg">
<g clip-path="url(#clip0_2013_7278)">
<path d="M40.9503 22.5143V8.88775H35.8359V5.97119H49.1321V8.88775H44.0178V22.5196H40.9555L40.9503 22.5143Z" fill="white"/>
<path d="M48.9036 22.5145V10.1045H51.6066V13.1379L51.315 12.7448C51.4712 12.3145 51.6848 11.9267 51.9452 11.5707C52.2056 11.2201 52.5285 10.9279 52.9139 10.6995C53.2055 10.5135 53.5232 10.3701 53.8721 10.2691C54.2159 10.1682 54.5752 10.0991 54.9398 10.0726C55.3096 10.046 55.6741 10.0567 56.0439 10.0992V13.0157C55.7054 12.9095 55.3148 12.8723 54.8669 12.9042C54.419 12.936 54.018 13.0423 53.6534 13.2176C53.294 13.3876 52.9868 13.6107 52.742 13.8923C52.492 14.1738 52.3045 14.5032 52.1795 14.8804C52.0545 15.2576 51.9868 15.6879 51.9868 16.1607V22.5038H48.8984L48.9036 22.5145Z" fill="white"/>
<path d="M60.4379 22.8597C59.5682 22.8597 58.8286 22.6897 58.2245 22.3497C57.6204 22.0097 57.1621 21.5528 56.8496 20.9844C56.5371 20.416 56.3809 19.7838 56.3809 19.0932C56.3809 18.5194 56.4694 17.9935 56.6413 17.5207C56.8131 17.0478 57.0944 16.6282 57.4798 16.2616C57.8652 15.9003 58.386 15.5922 59.0422 15.3478C59.4953 15.1778 60.0317 15.0291 60.6515 14.9016C61.2712 14.7741 61.9795 14.6466 62.7711 14.5297C63.5576 14.4128 64.4273 14.28 65.3752 14.1313L64.2711 14.7528C64.2711 14.0197 64.0992 13.4778 63.7503 13.1325C63.4065 12.7872 62.8284 12.6172 62.016 12.6172C61.5629 12.6172 61.0942 12.7288 60.6098 12.9519C60.1202 13.175 59.7817 13.5682 59.5838 14.1366L56.8131 13.2388C57.1204 12.2135 57.6985 11.3794 58.5474 10.7313C59.3963 10.0885 60.5525 9.7644 62.016 9.7644C63.0888 9.7644 64.0419 9.9344 64.8752 10.2691C65.7085 10.6038 66.3387 11.1882 66.7657 12.0169C67.0053 12.4791 67.1511 12.936 67.1928 13.3982C67.2345 13.8603 67.2605 14.3703 67.2605 14.9388V22.525H64.5783V19.975L64.9637 20.501C64.37 21.335 63.7294 21.9407 63.042 22.3125C62.3545 22.6844 61.4848 22.8703 60.4327 22.8703L60.4379 22.8597ZM61.0889 20.4C61.6514 20.4 62.1254 20.2991 62.516 20.0972C62.9014 19.8953 63.2086 19.6616 63.4378 19.4013C63.6669 19.141 63.8232 18.9232 63.9065 18.7478C64.0627 18.4132 64.1565 18.02 64.1825 17.5685C64.2086 17.1222 64.2242 16.745 64.2242 16.4475L65.1252 16.676C64.2138 16.83 63.4794 16.9575 62.917 17.0585C62.3545 17.1647 61.8962 17.255 61.5525 17.34C61.2087 17.425 60.9015 17.5153 60.6411 17.6163C60.339 17.7385 60.0994 17.8713 59.9119 18.0147C59.7244 18.1582 59.5942 18.3122 59.5057 18.4822C59.4172 18.6522 59.3755 18.8382 59.3755 19.0453C59.3755 19.3269 59.4432 19.5713 59.5838 19.7732C59.7244 19.975 59.9223 20.1291 60.1775 20.2407C60.4327 20.3469 60.7348 20.4 61.0889 20.4Z" fill="white"/>
<path d="M74.2295 22.8596C73.1098 22.8596 72.1307 22.5727 71.287 21.9989C70.4433 21.4252 69.7923 20.6443 69.3183 19.6561C68.8444 18.668 68.6152 17.5524 68.6152 16.3146C68.6152 15.0768 68.8548 13.9239 69.3287 12.9411C69.8079 11.9583 70.4745 11.1827 71.339 10.6143C72.2036 10.0458 73.214 9.76426 74.3806 9.76426C75.5472 9.76426 76.5107 10.0511 77.2971 10.6249C78.0835 11.1986 78.6824 11.9796 79.0886 12.9677C79.4949 13.9558 79.698 15.0714 79.698 16.3093C79.698 17.5471 79.4949 18.6627 79.0834 19.6508C78.672 20.6389 78.0627 21.4199 77.2554 21.9936C76.4429 22.5674 75.4326 22.8543 74.2243 22.8543L74.2295 22.8596ZM74.7243 20.0758C75.4065 20.0758 75.9534 19.9218 76.3648 19.603C76.7763 19.2896 77.0679 18.8486 77.2502 18.2802C77.4325 17.7118 77.521 17.053 77.521 16.3039C77.521 15.5549 77.4325 14.8961 77.2502 14.3277C77.0679 13.7593 76.7815 13.3183 76.3857 13.0049C75.9898 12.6914 75.4743 12.5321 74.8389 12.5321C74.1566 12.5321 73.5941 12.7021 73.1567 13.0421C72.7192 13.3821 72.3911 13.8389 72.1828 14.4074C71.9744 14.9758 71.8651 15.608 71.8651 16.2986C71.8651 16.9893 71.964 17.6321 72.1671 18.2005C72.3703 18.7689 72.6827 19.2258 73.0994 19.5605C73.5212 19.8952 74.0629 20.0652 74.7243 20.0652V20.0758ZM77.5158 22.5143V14.0089H77.1304V5.96582H80.2188V22.5143H77.5158Z" fill="white"/>
<path d="M82.6973 8.37779V5.62061H85.7596V8.37779H82.6973ZM82.6973 22.5144V10.1044H85.7596V22.5144H82.6973Z" fill="white"/>
<path d="M88.2186 22.5144V10.1044H90.9424V14.2162H91.3278V22.5144H88.2186ZM96.5307 22.5144V16.6547C96.5307 16.3731 96.5151 16.0119 96.4838 15.5709C96.4526 15.13 96.3588 14.689 96.2026 14.2428C96.0463 13.7965 95.7859 13.4247 95.4318 13.1272C95.0776 12.8297 94.5725 12.6809 93.9162 12.6809C93.6558 12.6809 93.3694 12.7234 93.0725 12.8084C92.7705 12.8934 92.4892 13.0528 92.2288 13.2972C91.9632 13.5362 91.7497 13.8922 91.583 14.3597C91.4164 14.8272 91.3278 15.4487 91.3278 16.219L89.5727 15.369C89.5727 14.3862 89.7706 13.4672 90.156 12.6119C90.5466 11.7512 91.1351 11.0606 91.9164 10.5294C92.6976 9.99811 93.6923 9.73779 94.8849 9.73779C95.838 9.73779 96.614 9.90248 97.2182 10.2319C97.8171 10.5612 98.2858 10.9809 98.6191 11.4856C98.9524 11.9903 99.192 12.5162 99.3326 13.0634C99.4732 13.6106 99.5618 14.11 99.593 14.5615C99.6243 15.0131 99.6399 15.3425 99.6399 15.5497V22.5144H96.5307Z" fill="white"/>
<path d="M106.608 22.8597C105.489 22.8597 104.509 22.5728 103.666 21.9991C102.822 21.4253 102.171 20.6444 101.697 19.6563C101.223 18.6682 100.994 17.5525 100.994 16.3147C100.994 15.0769 101.234 13.9241 101.708 12.9413C102.187 11.9585 102.853 11.1828 103.718 10.6144C104.582 10.046 105.593 9.7644 106.759 9.7644C107.926 9.7644 108.889 10.0513 109.676 10.625C110.462 11.1988 111.061 11.9797 111.467 12.9678C111.874 13.956 112.077 15.0716 112.077 16.3094C112.077 17.5472 111.874 18.6628 111.462 19.651C111.051 20.6391 110.441 21.42 109.634 21.9938C108.822 22.5675 107.811 22.8544 106.603 22.8544L106.608 22.8597ZM106.879 28.3741C106.186 28.3741 105.53 28.2625 104.905 28.0341C104.28 27.811 103.723 27.4922 103.233 27.0938C102.744 26.6953 102.343 26.2225 102.036 25.686L104.874 24.2835C105.072 24.65 105.348 24.9316 105.713 25.1228C106.077 25.3141 106.473 25.4097 106.9 25.4097C107.358 25.4097 107.791 25.33 108.197 25.176C108.603 25.0166 108.926 24.7828 109.171 24.4747C109.415 24.1666 109.53 23.7788 109.514 23.3219V19.7147H109.9V10.1044H112.582V23.3644C112.582 23.6725 112.566 23.9594 112.54 24.2303C112.514 24.5013 112.467 24.7722 112.4 25.0378C112.202 25.7975 111.842 26.4191 111.311 26.9132C110.78 27.4072 110.134 27.7685 109.369 28.0128C108.603 28.2572 107.775 28.3741 106.879 28.3741ZM107.103 20.076C107.785 20.076 108.332 19.9219 108.744 19.6032C109.155 19.2897 109.447 18.8488 109.629 18.2803C109.811 17.7119 109.9 17.0532 109.9 16.3041C109.9 15.555 109.811 14.8963 109.629 14.3278C109.447 13.7594 109.16 13.3185 108.764 13.005C108.369 12.6916 107.853 12.5322 107.218 12.5322C106.535 12.5322 105.973 12.7022 105.535 13.0422C105.098 13.3822 104.77 13.8391 104.562 14.4075C104.353 14.976 104.244 15.6082 104.244 16.2988C104.244 16.9894 104.343 17.6322 104.546 18.2007C104.749 18.7691 105.062 19.226 105.478 19.5607C105.9 19.8953 106.442 20.0653 107.103 20.0653V20.076Z" fill="white"/>
<path d="M19.0459 0H0V9.71656H19.0459V0Z" fill="white"/>
<path d="M19.0459 34.0001C8.54643 34.0001 0 25.2823 0 14.5723H9.52555C9.52555 19.9273 13.7962 24.2888 19.0511 24.2888V34.0054L19.0459 34.0001Z" fill="#00DF8D"/>
<path d="M114.896 22.5516V6.00317H117.958V19.6297H124.942V22.5463H114.891L114.896 22.5516Z" fill="#00DF8D"/>
<path d="M131.614 22.897C130.37 22.897 129.271 22.6208 128.318 22.0736C127.364 21.5264 126.625 20.772 126.089 19.8104C125.552 18.8489 125.281 17.7492 125.281 16.5061C125.281 15.1514 125.542 13.972 126.068 12.9679C126.594 11.9639 127.318 11.1829 128.239 10.6304C129.161 10.0726 130.224 9.79639 131.427 9.79639C132.703 9.79639 133.791 10.1045 134.682 10.7154C135.578 11.3264 136.239 12.1923 136.666 13.3026C137.093 14.4129 137.244 15.7198 137.119 17.2233H134.088V16.0758C134.088 14.8114 133.89 13.9029 133.494 13.3451C133.099 12.7873 132.458 12.5111 131.562 12.5111C130.521 12.5111 129.75 12.8351 129.26 13.4833C128.771 14.1314 128.521 15.0876 128.521 16.352C128.521 17.5101 128.765 18.4026 129.26 19.0348C129.75 19.667 130.474 19.9804 131.427 19.9804C132.026 19.9804 132.541 19.8476 132.968 19.5767C133.395 19.3058 133.724 18.9233 133.947 18.4133L137.01 19.3111C136.551 20.4426 135.828 21.3245 134.843 21.9567C133.854 22.5836 132.776 22.897 131.604 22.897H131.614ZM127.583 17.2179V14.8964H135.65V17.2179H127.583Z" fill="#00DF8D"/>
<path d="M141.911 22.8968C141.041 22.8968 140.301 22.7268 139.697 22.3868C139.093 22.0468 138.635 21.59 138.322 21.0215C138.01 20.4531 137.854 19.8209 137.854 19.1303C137.854 18.5565 137.942 18.0306 138.114 17.5578C138.286 17.085 138.567 16.6653 138.952 16.2987C139.338 15.9321 139.859 15.6293 140.515 15.385C140.968 15.215 141.504 15.0662 142.124 14.9387C142.749 14.8059 143.452 14.6837 144.244 14.5668C145.03 14.45 145.9 14.3171 146.848 14.1684L145.744 14.79C145.744 14.0568 145.572 13.515 145.223 13.1696C144.879 12.8243 144.301 12.6543 143.489 12.6543C143.036 12.6543 142.567 12.7659 142.082 12.989C141.593 13.2121 141.254 13.6053 141.056 14.1737L138.286 13.2759C138.593 12.2506 139.171 11.4165 140.02 10.7684C140.869 10.1256 142.025 9.80151 143.489 9.80151C144.562 9.80151 145.515 9.97151 146.348 10.3062C147.181 10.6409 147.811 11.2253 148.238 12.054C148.478 12.5162 148.624 12.9731 148.665 13.4353C148.707 13.8975 148.733 14.4075 148.733 14.9759V22.5621H146.051V20.0121L146.436 20.5434C145.843 21.3774 145.202 21.9831 144.515 22.355C143.827 22.7268 142.957 22.9128 141.905 22.9128L141.911 22.8968ZM142.562 20.4371C143.124 20.4371 143.598 20.3362 143.989 20.1343C144.374 19.9325 144.681 19.6987 144.91 19.4384C145.14 19.1781 145.296 18.9603 145.379 18.785C145.535 18.4503 145.629 18.0571 145.655 17.6056C145.681 17.1593 145.697 16.7821 145.697 16.4846L146.598 16.7131C145.686 16.8671 144.952 16.9946 144.39 17.0956C143.827 17.1965 143.369 17.2921 143.025 17.3771C142.681 17.4621 142.374 17.5525 142.114 17.6534C141.812 17.7756 141.572 17.9084 141.385 18.0518C141.202 18.1953 141.067 18.3493 140.978 18.5193C140.89 18.6893 140.848 18.8753 140.848 19.0824C140.848 19.364 140.916 19.6084 141.056 19.8103C141.197 20.0121 141.395 20.1662 141.65 20.2778C141.905 20.384 142.207 20.4371 142.562 20.4371Z" fill="#00DF8D"/>
<path d="M155.7 22.8968C154.58 22.8968 153.601 22.61 152.758 22.0362C151.914 21.4625 151.263 20.6815 150.789 19.6934C150.315 18.7053 150.086 17.5896 150.086 16.3518C150.086 15.114 150.326 13.9612 150.799 12.9784C151.279 11.9956 151.945 11.22 152.81 10.6515C153.674 10.0831 154.685 9.80151 155.851 9.80151C157.018 9.80151 157.981 10.0884 158.768 10.6621C159.554 11.2359 160.153 12.0168 160.559 13.005C160.966 13.9931 161.169 15.1087 161.169 16.3465C161.169 17.5843 160.966 18.7 160.554 19.6881C160.143 20.6762 159.533 21.4571 158.726 22.0309C157.914 22.6046 156.903 22.8915 155.695 22.8915L155.7 22.8968ZM155.971 28.4112C155.278 28.4112 154.622 28.2996 153.997 28.0712C153.372 27.8428 152.815 27.5293 152.325 27.1309C151.836 26.7271 151.435 26.2596 151.128 25.7231L153.966 24.3206C154.164 24.6871 154.44 24.9687 154.804 25.16C155.169 25.3512 155.565 25.4468 155.992 25.4468C156.45 25.4468 156.882 25.3671 157.289 25.2131C157.695 25.0537 158.018 24.82 158.263 24.5118C158.507 24.2037 158.622 23.8159 158.606 23.359V19.7518H158.992V10.1415H161.674V23.4015C161.674 23.7096 161.658 23.9965 161.632 24.2675C161.606 24.5384 161.559 24.8093 161.492 25.075C161.294 25.8346 160.934 26.4562 160.403 26.9503C159.872 27.439 159.226 27.8056 158.461 28.0499C157.695 28.289 156.867 28.4112 155.971 28.4112ZM156.195 20.1131C156.877 20.1131 157.424 19.9537 157.836 19.6403C158.247 19.3268 158.539 18.8859 158.721 18.3175C158.903 17.749 158.992 17.0903 158.992 16.3412C158.992 15.5921 158.903 14.9334 158.721 14.365C158.539 13.7965 158.252 13.3556 157.856 13.0421C157.461 12.7287 156.945 12.5693 156.31 12.5693C155.627 12.5693 155.065 12.7393 154.627 13.0793C154.19 13.4193 153.862 13.8762 153.653 14.4446C153.445 15.0131 153.336 15.6453 153.336 16.3359C153.336 17.0265 153.435 17.6693 153.638 18.2378C153.841 18.8062 154.153 19.2631 154.57 19.5978C154.987 19.9325 155.534 20.1025 156.195 20.1025V20.1131Z" fill="#00DF8D"/>
<path d="M168.456 22.9182C167.503 22.9182 166.727 22.7535 166.123 22.4241C165.524 22.0947 165.055 21.675 164.722 21.1704C164.389 20.6657 164.149 20.1397 164.008 19.5925C163.868 19.0454 163.779 18.546 163.748 18.0944C163.717 17.6429 163.701 17.3135 163.701 17.1063V10.1416H166.81V16.0013C166.81 16.2829 166.826 16.6494 166.857 17.085C166.889 17.5207 166.982 17.9669 167.138 18.4132C167.295 18.8594 167.555 19.2313 167.909 19.5288C168.269 19.8263 168.774 19.975 169.425 19.975C169.685 19.975 169.966 19.9325 170.269 19.8475C170.571 19.7625 170.852 19.6032 171.112 19.3588C171.373 19.1197 171.591 18.7638 171.758 18.291C171.925 17.8182 172.013 17.2019 172.013 16.4369L173.774 17.2869C173.774 18.2697 173.576 19.1888 173.19 20.0441C172.8 20.9047 172.211 21.5954 171.43 22.1266C170.644 22.6579 169.654 22.9182 168.461 22.9182H168.456ZM172.399 22.5516V18.4397H172.013V10.1416H175.102V22.5516H172.399Z" fill="#00DF8D"/>
<path d="M183.013 22.897C181.768 22.897 180.669 22.6208 179.716 22.0736C178.763 21.5264 178.023 20.772 177.487 19.8104C176.951 18.8489 176.68 17.7492 176.68 16.5061C176.68 15.1514 176.94 13.972 177.466 12.9679C177.992 11.9639 178.716 11.1829 179.638 10.6304C180.56 10.0726 181.622 9.79639 182.825 9.79639C184.101 9.79639 185.19 10.1045 186.08 10.7154C186.976 11.3264 187.637 12.1923 188.065 13.3026C188.492 14.4129 188.643 15.7198 188.518 17.2233H185.487V16.0758C185.487 14.8114 185.289 13.9029 184.893 13.3451C184.497 12.7873 183.856 12.5111 182.961 12.5111C181.919 12.5111 181.148 12.8351 180.659 13.4833C180.169 14.1314 179.919 15.0876 179.919 16.352C179.919 17.5101 180.164 18.4026 180.659 19.0348C181.148 19.667 181.872 19.9804 182.825 19.9804C183.424 19.9804 183.94 19.8476 184.367 19.5767C184.794 19.3058 185.122 18.9233 185.346 18.4133L188.408 19.3111C187.95 20.4426 187.226 21.3245 186.242 21.9567C185.252 22.5836 184.174 22.897 183.002 22.897H183.013ZM178.982 17.2179V14.8964H187.049V17.2179H178.982Z" fill="#00DF8D"/>
<path d="M194.907 22.8968C193.375 22.8968 192.136 22.5409 191.193 21.8343C190.251 21.1278 189.678 20.1237 189.475 18.8275L192.605 18.344C192.735 18.9284 193.016 19.38 193.454 19.7093C193.891 20.0387 194.454 20.2034 195.125 20.2034C195.683 20.2034 196.11 20.0918 196.412 19.874C196.714 19.6562 196.865 19.3534 196.865 18.9603C196.865 18.7159 196.802 18.5193 196.683 18.3706C196.563 18.2218 196.292 18.0731 195.875 17.9296C195.459 17.7862 194.813 17.595 193.933 17.3559C192.943 17.0956 192.146 16.8034 191.558 16.4846C190.964 16.1606 190.537 15.7781 190.271 15.3318C190.011 14.8856 189.876 14.3437 189.876 13.7062C189.876 12.9093 190.074 12.2187 190.475 11.6343C190.87 11.05 191.433 10.5984 192.157 10.2796C192.881 9.96089 193.735 9.80151 194.719 9.80151C195.703 9.80151 196.516 9.95026 197.255 10.2478C197.995 10.5453 198.589 10.9703 199.042 11.5228C199.495 12.0753 199.776 12.7234 199.88 13.4778L196.75 14.0515C196.698 13.5893 196.5 13.2281 196.167 12.9571C195.828 12.6915 195.37 12.5321 194.792 12.4843C194.23 12.4471 193.776 12.5215 193.433 12.7128C193.089 12.904 192.922 13.1803 192.922 13.5415C192.922 13.754 192.995 13.9346 193.141 14.0834C193.287 14.2321 193.594 14.3809 194.053 14.5296C194.516 14.6837 195.219 14.8803 196.167 15.1246C197.089 15.369 197.834 15.6559 198.391 15.98C198.948 16.304 199.36 16.6971 199.615 17.154C199.87 17.6109 200 18.1581 200 18.8009C200 20.0706 199.547 21.0746 198.646 21.8025C197.745 22.5303 196.5 22.8968 194.907 22.8968Z" fill="#00DF8D"/>
</g>
<defs>
<clipPath id="clip0_2013_7278">
<rect width="200" height="34" fill="white"/>
</clipPath>
</defs>
</svg>
