<svg width="25" height="25" viewBox="0 0 25 25" fill="none" xmlns="http://www.w3.org/2000/svg">
<path d="M20.34 13.9C18.8646 14.4438 17.5248 15.3012 16.413 16.413C15.3012 17.5249 14.4438 18.8646 13.9 20.34L12.31 24.62L10.73 20.34C10.1845 18.8656 9.32645 17.5268 8.21484 16.4152C7.10324 15.3036 5.76436 14.4456 4.29001 13.9L0 12.31L4.29001 10.73C5.76403 10.1811 7.10235 9.3207 8.21371 8.20761C9.32508 7.09452 10.1834 5.75487 10.73 4.28L12.31 0L13.9 4.28C14.4449 5.75587 15.3026 7.09643 16.4142 8.20975C17.5257 9.32306 18.865 10.1828 20.34 10.73L24.63 12.31L20.34 13.9Z" fill="#FFF8E1"/>
</svg>
