<svg width="22" height="31" viewBox="0 0 22 31" fill="none" xmlns="http://www.w3.org/2000/svg">
<path d="M17.3977 17.3805C16.0925 18.1066 14.8724 19.2141 13.8212 20.627C12.77 22.0399 11.9126 23.7247 11.3079 25.5656L9.57031 30.9113L8.63722 25.6842C8.31599 23.8832 7.71631 22.2605 6.87934 20.9275C6.04237 19.5945 4.98791 18.5826 3.78835 17.9615L0.287378 16.1775L4.07496 14.0641C5.37987 13.3398 6.59985 12.2336 7.65093 10.8217C8.702 9.40985 9.5592 7.72586 10.1635 5.88565L11.9189 0.543165L12.8565 5.77107C13.1777 7.57204 13.7774 9.19473 14.6144 10.5278C15.4513 11.8608 16.5058 12.8726 17.7053 13.4938L21.1893 15.2952L17.3977 17.3805Z" fill="#FFF8E1"/>
</svg>
