<svg width="297" height="50" viewBox="0 0 297 50" fill="none" xmlns="http://www.w3.org/2000/svg">
<g clip-path="url(#clip0_2013_7149)">
<path d="M60.6953 33.1094V13.0703H53.1151V8.78125H72.822V13.0703H65.2418V33.1172H60.703L60.6953 33.1094Z" fill="white"/>
<path d="M72.4823 33.1094V14.8594H76.4885V19.3204L76.0563 18.7422C76.2878 18.1094 76.6043 17.5391 76.9903 17.0157C77.3762 16.5001 77.8548 16.0704 78.426 15.7344C78.8583 15.461 79.3292 15.2501 79.8463 15.1016C80.3558 14.9532 80.8884 14.8516 81.4288 14.8126C81.9768 14.7735 82.5171 14.7891 83.0652 14.8516V19.1407C82.5635 18.9844 81.9845 18.9297 81.3207 18.9766C80.6568 19.0235 80.0625 19.1797 79.5221 19.4376C78.9895 19.6876 78.5341 20.0157 78.1713 20.4297C77.8008 20.8438 77.5229 21.3282 77.3376 21.8829C77.1524 22.4376 77.052 23.0704 77.052 23.7657V33.0938H72.4746L72.4823 33.1094Z" fill="white"/>
<path d="M89.5795 33.6172C88.2904 33.6172 87.1943 33.3672 86.2988 32.8672C85.4034 32.3672 84.7241 31.6953 84.261 30.8594C83.7979 30.0234 83.5663 29.0937 83.5663 28.0781C83.5663 27.2344 83.6975 26.4609 83.9522 25.7656C84.207 25.0703 84.6238 24.4531 85.195 23.9141C85.7662 23.3828 86.5381 22.9297 87.5107 22.5703C88.1823 22.3203 88.9774 22.1016 89.8959 21.9141C90.8145 21.7266 91.8643 21.5391 93.0376 21.3672C94.2032 21.1953 95.4923 21 96.8972 20.7813L95.2607 21.6953C95.2607 20.6172 95.006 19.8203 94.4888 19.3125C93.9793 18.8047 93.1225 18.5547 91.9183 18.5547C91.2468 18.5547 90.5521 18.7187 89.8342 19.0469C89.1086 19.375 88.6069 19.9531 88.3135 20.7891L84.207 19.4688C84.6624 17.9609 85.5192 16.7344 86.7774 15.7813C88.0356 14.8359 89.7493 14.3594 91.9183 14.3594C93.5085 14.3594 94.9211 14.6094 96.1561 15.1016C97.3912 15.5938 98.3252 16.4531 98.9581 17.6719C99.3132 18.3516 99.5294 19.0234 99.5911 19.7031C99.6529 20.3828 99.6915 21.1328 99.6915 21.9688V33.125H95.7161V29.375L96.2873 30.1484C95.4074 31.375 94.4579 32.2656 93.439 32.8125C92.4201 33.3594 91.131 33.6328 89.5717 33.6328L89.5795 33.6172ZM90.5443 30C91.378 30 92.0804 29.8516 92.6594 29.5547C93.2306 29.2578 93.686 28.9141 94.0256 28.5312C94.3653 28.1484 94.5969 27.8281 94.7204 27.5703C94.9519 27.0781 95.0909 26.5 95.1295 25.8359C95.1681 25.1797 95.1912 24.625 95.1912 24.1875L96.5266 24.5234C95.1758 24.75 94.0874 24.9375 93.2537 25.0859C92.4201 25.2422 91.7408 25.375 91.2313 25.5C90.7219 25.625 90.2665 25.7578 89.8805 25.9062C89.4328 26.0859 89.0777 26.2812 88.7998 26.4922C88.5219 26.7031 88.329 26.9297 88.1977 27.1797C88.0665 27.4297 88.0048 27.7031 88.0048 28.0078C88.0048 28.4219 88.1051 28.7813 88.3135 29.0781C88.5219 29.375 88.8153 29.6016 89.1935 29.7656C89.5717 29.9219 90.0194 30 90.5443 30Z" fill="white"/>
<path d="M110.02 33.6172C108.361 33.6172 106.909 33.1953 105.659 32.3516C104.409 31.5078 103.444 30.3594 102.741 28.9062C102.039 27.4531 101.699 25.8125 101.699 23.9922C101.699 22.1719 102.054 20.4766 102.757 19.0313C103.467 17.5859 104.455 16.4453 105.736 15.6094C107.018 14.7734 108.515 14.3594 110.244 14.3594C111.973 14.3594 113.401 14.7813 114.567 15.625C115.732 16.4688 116.62 17.6172 117.222 19.0703C117.824 20.5234 118.125 22.1641 118.125 23.9844C118.125 25.8047 117.824 27.4453 117.214 28.8984C116.605 30.3516 115.702 31.5 114.505 32.3438C113.301 33.1875 111.803 33.6094 110.013 33.6094L110.02 33.6172ZM110.754 29.5234C111.765 29.5234 112.575 29.2969 113.185 28.8281C113.795 28.3672 114.227 27.7188 114.497 26.8828C114.768 26.0469 114.899 25.0781 114.899 23.9766C114.899 22.875 114.768 21.9062 114.497 21.0703C114.227 20.2344 113.803 19.5859 113.216 19.125C112.629 18.6641 111.865 18.4297 110.923 18.4297C109.912 18.4297 109.079 18.6797 108.43 19.1797C107.782 19.6797 107.295 20.3516 106.987 21.1875C106.678 22.0234 106.516 22.9531 106.516 23.9688C106.516 24.9844 106.662 25.9297 106.964 26.7656C107.265 27.6016 107.728 28.2734 108.345 28.7656C108.97 29.2578 109.773 29.5078 110.754 29.5078V29.5234ZM114.891 33.1094V20.6016H114.32V8.77344H118.897V33.1094H114.891Z" fill="white"/>
<path d="M122.572 12.3203V8.26562H127.111V12.3203H122.572ZM122.572 33.1094V14.8594H127.111V33.1094H122.572Z" fill="white"/>
<path d="M130.754 33.1094V14.8594H134.791V20.9062H135.362V33.1094H130.754ZM143.073 33.1094V24.4922C143.073 24.0781 143.05 23.5469 143.004 22.8984C142.958 22.25 142.819 21.6016 142.587 20.9453C142.356 20.2891 141.97 19.7422 141.445 19.3047C140.92 18.8672 140.171 18.6484 139.198 18.6484C138.813 18.6484 138.388 18.7109 137.948 18.8359C137.5 18.9609 137.083 19.1953 136.697 19.5547C136.304 19.9062 135.987 20.4297 135.74 21.1172C135.493 21.8047 135.362 22.7188 135.362 23.8516L132.761 22.6016C132.761 21.1562 133.054 19.8047 133.625 18.5469C134.204 17.2812 135.076 16.2656 136.234 15.4844C137.392 14.7031 138.867 14.3203 140.634 14.3203C142.047 14.3203 143.197 14.5625 144.092 15.0469C144.98 15.5313 145.675 16.1484 146.169 16.8906C146.663 17.6328 147.018 18.4062 147.226 19.2109C147.435 20.0156 147.566 20.75 147.612 21.4141C147.659 22.0781 147.682 22.5625 147.682 22.8672V33.1094H143.073Z" fill="white"/>
<path d="M158.011 33.6172C156.351 33.6172 154.9 33.1953 153.649 32.3516C152.399 31.5078 151.434 30.3594 150.731 28.9063C150.029 27.4531 149.689 25.8125 149.689 23.9922C149.689 22.1719 150.044 20.4766 150.747 19.0313C151.457 17.5859 152.445 16.4453 153.726 15.6094C155.008 14.7734 156.505 14.3594 158.234 14.3594C159.963 14.3594 161.391 14.7813 162.557 15.625C163.723 16.4688 164.61 17.6172 165.212 19.0703C165.815 20.5234 166.116 22.1641 166.116 23.9844C166.116 25.8047 165.815 27.4453 165.205 28.8984C164.595 30.3516 163.692 31.5 162.495 32.3438C161.291 33.1875 159.794 33.6094 158.003 33.6094L158.011 33.6172ZM158.412 41.7266C157.385 41.7266 156.413 41.5625 155.486 41.2266C154.56 40.8984 153.734 40.4297 153.009 39.8438C152.283 39.2578 151.689 38.5625 151.233 37.7734L155.44 35.7109C155.733 36.25 156.142 36.6641 156.683 36.9453C157.223 37.2266 157.81 37.3672 158.443 37.3672C159.122 37.3672 159.763 37.25 160.365 37.0234C160.967 36.7891 161.446 36.4453 161.808 35.9922C162.171 35.5391 162.341 34.9688 162.318 34.2969V28.9922H162.889V14.8594H166.864V34.3594C166.864 34.8125 166.841 35.2344 166.803 35.6328C166.764 36.0313 166.694 36.4297 166.594 36.8203C166.301 37.9375 165.768 38.8516 164.981 39.5781C164.194 40.3047 163.236 40.8359 162.102 41.1953C160.967 41.5547 159.74 41.7266 158.412 41.7266ZM158.744 29.5234C159.755 29.5234 160.566 29.2969 161.175 28.8281C161.785 28.3672 162.217 27.7188 162.488 26.8828C162.758 26.0469 162.889 25.0781 162.889 23.9766C162.889 22.875 162.758 21.9063 162.488 21.0703C162.217 20.2344 161.793 19.5859 161.206 19.125C160.62 18.6641 159.855 18.4297 158.914 18.4297C157.902 18.4297 157.069 18.6797 156.42 19.1797C155.772 19.6797 155.286 20.3516 154.977 21.1875C154.668 22.0234 154.506 22.9531 154.506 23.9688C154.506 24.9844 154.653 25.9297 154.954 26.7656C155.255 27.6016 155.718 28.2734 156.335 28.7656C156.961 29.2578 157.763 29.5078 158.744 29.5078V29.5234Z" fill="white"/>
<path d="M28.2287 0H0V14.2891H28.2287V0Z" fill="white"/>
<path d="M28.2287 50C12.667 50 0 37.1797 0 21.4297H14.1182C14.1182 29.3047 20.4479 35.7188 28.2364 35.7188V50.0078L28.2287 50Z" fill="#00DF8D"/>
<path d="M170.291 33.1641V8.82812H174.83V28.8672H185.181V33.1562H170.283L170.291 33.1641Z" fill="#00DF8D"/>
<path d="M195.07 33.6719C193.225 33.6719 191.596 33.2656 190.184 32.4609C188.771 31.6562 187.675 30.5469 186.88 29.1328C186.085 27.7188 185.684 26.1016 185.684 24.2734C185.684 22.2812 186.07 20.5469 186.849 19.0703C187.629 17.5937 188.702 16.4453 190.068 15.6328C191.434 14.8125 193.009 14.4062 194.792 14.4062C196.683 14.4062 198.297 14.8594 199.617 15.7578C200.944 16.6562 201.925 17.9297 202.558 19.5625C203.19 21.1953 203.414 23.1172 203.229 25.3281H198.737V23.6406C198.737 21.7812 198.443 20.4453 197.857 19.625C197.27 18.8047 196.32 18.3984 194.993 18.3984C193.449 18.3984 192.307 18.875 191.581 19.8281C190.855 20.7812 190.485 22.1875 190.485 24.0469C190.485 25.75 190.848 27.0625 191.581 27.9922C192.307 28.9219 193.38 29.3828 194.792 29.3828C195.68 29.3828 196.444 29.1875 197.077 28.7891C197.71 28.3906 198.196 27.8281 198.528 27.0781L203.067 28.3984C202.388 30.0625 201.315 31.3594 199.856 32.2891C198.389 33.2109 196.791 33.6719 195.055 33.6719H195.07ZM189.095 25.3203V21.9063H201.052V25.3203H189.095Z" fill="#00DF8D"/>
<path d="M210.33 33.6719C209.04 33.6719 207.944 33.4219 207.049 32.9219C206.154 32.4219 205.474 31.75 205.011 30.9141C204.548 30.0781 204.316 29.1484 204.316 28.1328C204.316 27.2891 204.448 26.5156 204.702 25.8203C204.957 25.125 205.374 24.5078 205.945 23.9688C206.516 23.4297 207.288 22.9844 208.261 22.625C208.932 22.375 209.727 22.1563 210.646 21.9688C211.572 21.7734 212.614 21.5938 213.788 21.4219C214.953 21.25 216.242 21.0547 217.647 20.8359L216.011 21.75C216.011 20.6719 215.756 19.875 215.239 19.3672C214.729 18.8594 213.873 18.6094 212.668 18.6094C211.997 18.6094 211.302 18.7734 210.584 19.1016C209.859 19.4297 209.357 20.0078 209.064 20.8438L204.957 19.5234C205.413 18.0156 206.269 16.7891 207.528 15.8359C208.786 14.8906 210.499 14.4141 212.668 14.4141C214.259 14.4141 215.671 14.6641 216.906 15.1562C218.141 15.6484 219.075 16.5078 219.708 17.7266C220.063 18.4063 220.279 19.0781 220.341 19.7578C220.403 20.4375 220.442 21.1875 220.442 22.0234V33.1797H216.466V29.4297L217.037 30.2109C216.158 31.4375 215.208 32.3281 214.189 32.875C213.17 33.4219 211.881 33.6953 210.322 33.6953L210.33 33.6719ZM211.294 30.0547C212.128 30.0547 212.831 29.9063 213.409 29.6094C213.981 29.3125 214.436 28.9688 214.776 28.5859C215.115 28.2031 215.347 27.8828 215.471 27.625C215.702 27.1328 215.841 26.5547 215.88 25.8906C215.918 25.2344 215.941 24.6797 215.941 24.2422L217.277 24.5781C215.926 24.8047 214.838 24.9922 214.004 25.1406C213.17 25.2891 212.491 25.4297 211.981 25.5547C211.472 25.6797 211.017 25.8125 210.631 25.9609C210.183 26.1406 209.828 26.3359 209.55 26.5469C209.28 26.7578 209.079 26.9844 208.948 27.2344C208.817 27.4844 208.755 27.7578 208.755 28.0625C208.755 28.4766 208.855 28.8359 209.064 29.1328C209.272 29.4297 209.565 29.6562 209.944 29.8203C210.322 29.9766 210.77 30.0547 211.294 30.0547Z" fill="#00DF8D"/>
<path d="M230.77 33.6719C229.111 33.6719 227.66 33.25 226.409 32.4062C225.159 31.5625 224.194 30.4141 223.491 28.9609C222.789 27.5078 222.449 25.8672 222.449 24.0469C222.449 22.2266 222.804 20.5312 223.507 19.0859C224.217 17.6406 225.205 16.5 226.486 15.6641C227.768 14.8281 229.265 14.4141 230.994 14.4141C232.723 14.4141 234.151 14.8359 235.317 15.6797C236.483 16.5234 237.37 17.6719 237.972 19.125C238.574 20.5781 238.875 22.2188 238.875 24.0391C238.875 25.8594 238.574 27.5 237.965 28.9531C237.355 30.4063 236.452 31.5547 235.255 32.3984C234.051 33.2422 232.554 33.6641 230.763 33.6641L230.77 33.6719ZM231.172 41.7813C230.145 41.7813 229.173 41.6172 228.246 41.2813C227.32 40.9453 226.494 40.4844 225.768 39.8984C225.043 39.3047 224.448 38.6172 223.993 37.8281L228.2 35.7656C228.493 36.3047 228.902 36.7188 229.443 37C229.983 37.2813 230.57 37.4219 231.203 37.4219C231.882 37.4219 232.523 37.3047 233.125 37.0781C233.727 36.8438 234.205 36.5 234.568 36.0469C234.931 35.5938 235.101 35.0234 235.078 34.3516V29.0469H235.649V14.9141H239.624V34.4141C239.624 34.8672 239.601 35.2891 239.562 35.6875C239.524 36.0859 239.454 36.4844 239.354 36.875C239.061 37.9922 238.528 38.9062 237.741 39.6328C236.953 40.3516 235.996 40.8906 234.862 41.25C233.727 41.6016 232.499 41.7813 231.172 41.7813ZM231.504 29.5781C232.515 29.5781 233.325 29.3438 233.935 28.8828C234.545 28.4219 234.977 27.7734 235.247 26.9375C235.518 26.1016 235.649 25.1328 235.649 24.0312C235.649 22.9297 235.518 21.9609 235.247 21.125C234.977 20.2891 234.553 19.6406 233.966 19.1797C233.379 18.7187 232.615 18.4844 231.674 18.4844C230.662 18.4844 229.829 18.7344 229.18 19.2344C228.532 19.7344 228.046 20.4062 227.737 21.2422C227.428 22.0781 227.266 23.0078 227.266 24.0234C227.266 25.0391 227.413 25.9844 227.714 26.8203C228.015 27.6563 228.478 28.3281 229.095 28.8203C229.713 29.3125 230.523 29.5625 231.504 29.5625V29.5781Z" fill="#00DF8D"/>
<path d="M249.674 33.7031C248.262 33.7031 247.112 33.4609 246.216 32.9766C245.329 32.4922 244.634 31.875 244.14 31.1328C243.646 30.3906 243.291 29.6172 243.082 28.8125C242.874 28.0078 242.743 27.2734 242.696 26.6094C242.65 25.9453 242.627 25.4609 242.627 25.1562V14.9141H247.235V23.5313C247.235 23.9453 247.258 24.4844 247.305 25.125C247.351 25.7656 247.49 26.4219 247.722 27.0781C247.953 27.7344 248.339 28.2812 248.864 28.7187C249.397 29.1562 250.145 29.375 251.11 29.375C251.496 29.375 251.913 29.3125 252.361 29.1875C252.808 29.0625 253.225 28.8281 253.611 28.4687C253.997 28.1172 254.321 27.5938 254.568 26.8984C254.815 26.2031 254.947 25.2969 254.947 24.1719L257.556 25.4219C257.556 26.8672 257.262 28.2187 256.691 29.4766C256.112 30.7422 255.24 31.7578 254.082 32.5391C252.917 33.3203 251.45 33.7031 249.682 33.7031H249.674ZM255.518 33.1641V27.1172H254.947V14.9141H259.524V33.1641H255.518Z" fill="#00DF8D"/>
<path d="M271.25 33.6719C269.405 33.6719 267.776 33.2656 266.364 32.4609C264.951 31.6562 263.855 30.5469 263.06 29.1328C262.265 27.7188 261.863 26.1016 261.863 24.2734C261.863 22.2812 262.249 20.5469 263.029 19.0703C263.808 17.5937 264.881 16.4453 266.248 15.6328C267.614 14.8125 269.189 14.4062 270.972 14.4062C272.863 14.4062 274.476 14.8594 275.796 15.7578C277.124 16.6562 278.104 17.9297 278.737 19.5625C279.37 21.1953 279.594 23.1172 279.409 25.3281H274.916V23.6406C274.916 21.7812 274.623 20.4453 274.036 19.625C273.45 18.8047 272.5 18.3984 271.173 18.3984C269.629 18.3984 268.486 18.875 267.761 19.8281C267.035 20.7812 266.665 22.1875 266.665 24.0469C266.665 25.75 267.027 27.0625 267.761 27.9922C268.486 28.9219 269.559 29.3828 270.972 29.3828C271.86 29.3828 272.624 29.1875 273.257 28.7891C273.89 28.3906 274.376 27.8281 274.708 27.0781L279.247 28.3984C278.567 30.0625 277.494 31.3594 276.036 32.2891C274.569 33.2109 272.971 33.6719 271.234 33.6719H271.25ZM265.275 25.3203V21.9063H277.232V25.3203H265.275Z" fill="#00DF8D"/>
<path d="M288.879 33.6719C286.61 33.6719 284.773 33.1484 283.376 32.1094C281.978 31.0703 281.129 29.5938 280.828 27.6875L285.467 26.9766C285.66 27.8359 286.077 28.5 286.726 28.9844C287.374 29.4687 288.208 29.7109 289.203 29.7109C290.029 29.7109 290.662 29.5469 291.11 29.2266C291.558 28.9062 291.782 28.4609 291.782 27.8828C291.782 27.5234 291.689 27.2344 291.511 27.0156C291.334 26.7969 290.933 26.5781 290.315 26.3672C289.697 26.1562 288.74 25.875 287.436 25.5234C285.969 25.1406 284.788 24.7109 283.916 24.2422C283.036 23.7656 282.403 23.2031 282.009 22.5469C281.623 21.8906 281.423 21.0937 281.423 20.1562C281.423 18.9844 281.716 17.9687 282.31 17.1094C282.897 16.25 283.731 15.5859 284.804 15.1172C285.877 14.6484 287.142 14.4141 288.601 14.4141C290.06 14.4141 291.264 14.6328 292.361 15.0703C293.457 15.5078 294.337 16.1328 295.008 16.9453C295.68 17.7578 296.097 18.7109 296.251 19.8203L291.612 20.6641C291.535 19.9844 291.241 19.4531 290.747 19.0547C290.246 18.6641 289.566 18.4297 288.709 18.3594C287.876 18.3047 287.204 18.4141 286.695 18.6953C286.185 18.9766 285.938 19.3828 285.938 19.9141C285.938 20.2266 286.046 20.4922 286.262 20.7109C286.479 20.9297 286.934 21.1484 287.613 21.3672C288.3 21.5938 289.342 21.8828 290.747 22.2422C292.114 22.6016 293.217 23.0234 294.043 23.5C294.869 23.9766 295.479 24.5547 295.857 25.2266C296.236 25.8984 296.429 26.7031 296.429 27.6484C296.429 29.5156 295.757 30.9922 294.422 32.0625C293.086 33.1328 291.241 33.6719 288.879 33.6719Z" fill="#00DF8D"/>
</g>
<defs>
<clipPath id="clip0_2013_7149">
<rect width="296.429" height="50" fill="white"/>
</clipPath>
</defs>
</svg>
