<svg width="150" height="50" viewBox="0 0 150 50" fill="none" xmlns="http://www.w3.org/2000/svg">
<path d="M150 44.988C150 47.757 148.069 50 145.681 50H4.32508C1.93778 50 0 47.757 0 44.988V5.01858C0 2.25084 1.93778 0 4.32508 0H145.679C148.069 0 149.999 2.25084 149.999 5.01858L150 44.988Z" fill="black"/>
<path d="M31.1076 24.7777C31.0767 21.439 33.92 19.8147 34.05 19.7391C32.4398 17.457 29.9439 17.1452 29.0669 17.1203C26.9707 16.9059 24.9373 18.3396 23.8695 18.3396C22.7804 18.3396 21.136 17.141 19.3638 17.1763C17.0832 17.2105 14.9497 18.4939 13.7796 20.487C11.3647 24.5509 13.1658 30.5228 15.4794 33.8077C16.6367 35.4164 17.9891 37.2127 19.7592 37.1495C21.4909 37.0801 22.1378 36.0763 24.2276 36.0763C26.2982 36.0763 26.9056 37.1495 28.7109 37.1091C30.5695 37.0801 31.7396 35.4931 32.8564 33.8698C34.1939 32.0259 34.731 30.21 34.7523 30.1168C34.7086 30.1023 31.1428 28.7794 31.1076 24.7777Z" fill="white"/>
<path d="M27.6975 14.9594C28.6289 13.8272 29.2661 12.2868 29.0892 10.7236C27.7411 10.7816 26.0552 11.63 25.0844 12.7374C24.2254 13.7132 23.4582 15.3127 23.6564 16.8168C25.1707 16.9266 26.7255 16.0741 27.6975 14.9594Z" fill="white"/>
<path d="M56.5316 36.9186H54.1114L52.7857 32.8693H48.1777L46.9148 36.9186H44.5586L49.124 23.1328H51.9438L56.5316 36.9186ZM52.3861 31.1704L51.1872 27.5706C51.0603 27.2029 50.8227 26.3369 50.4721 24.9736H50.4295C50.2898 25.5599 50.065 26.4259 49.7559 27.5706L48.5784 31.1704H52.3861V31.1704Z" fill="white"/>
<path d="M68.2718 31.826C68.2718 33.5166 67.8019 34.8529 66.8619 35.8339C66.02 36.7072 64.9746 37.1433 63.7267 37.1433C62.3797 37.1433 61.412 36.673 60.8227 35.7324H60.7801V40.9689H58.508V30.2504C58.508 29.1876 58.4792 28.0968 58.4238 26.978H60.422L60.5488 28.5536H60.5914C61.3491 27.3665 62.499 26.7739 64.0421 26.7739C65.2485 26.7739 66.2556 27.237 67.0612 28.1641C67.869 29.0923 68.2718 30.3126 68.2718 31.826ZM65.9572 31.9068C65.9572 30.9393 65.7334 30.1416 65.2836 29.5139C64.7924 28.8592 64.1327 28.5319 63.3057 28.5319C62.7452 28.5319 62.2358 28.7142 61.7807 29.0736C61.3246 29.4362 61.0262 29.9096 60.8866 30.4959C60.8163 30.7694 60.7811 30.9932 60.7811 31.1693V32.8267C60.7811 33.5498 61.0092 34.1599 61.4653 34.6582C61.9214 35.1564 62.5139 35.4051 63.2429 35.4051C64.0986 35.4051 64.7647 35.0839 65.241 34.4437C65.7184 33.8025 65.9572 32.9572 65.9572 31.9068Z" fill="white"/>
<path d="M80.0344 31.826C80.0344 33.5166 79.5645 34.8529 78.6235 35.8339C77.7826 36.7072 76.7372 37.1433 75.4893 37.1433C74.1423 37.1433 73.1746 36.673 72.5864 35.7324H72.5437V40.9689H70.2717V30.2504C70.2717 29.1876 70.2429 28.0968 70.1875 26.978H72.1857L72.3125 28.5536H72.3551C73.1117 27.3665 74.2616 26.7739 75.8058 26.7739C77.0111 26.7739 78.0182 27.237 78.826 28.1641C79.6305 29.0923 80.0344 30.3126 80.0344 31.826ZM77.7198 31.9068C77.7198 30.9393 77.4949 30.1416 77.0452 29.5139C76.5539 28.8592 75.8964 28.5319 75.0683 28.5319C74.5067 28.5319 73.9984 28.7142 73.5423 29.0736C73.0862 29.4362 72.7888 29.9096 72.6492 30.4959C72.58 30.7694 72.5437 30.9932 72.5437 31.1693V32.8267C72.5437 33.5498 72.7718 34.1599 73.2258 34.6582C73.6819 35.1554 74.2744 35.4051 75.0055 35.4051C75.8612 35.4051 76.5273 35.0839 77.0036 34.4437C77.4811 33.8025 77.7198 32.9572 77.7198 31.9068Z" fill="white"/>
<path d="M93.185 33.0525C93.185 34.2251 92.7662 35.1792 91.9254 35.9157C91.0014 36.7206 89.7152 37.1225 88.0623 37.1225C86.5362 37.1225 85.3128 36.8366 84.3867 36.2638L84.9132 34.423C85.9107 35.0093 87.0051 35.3035 88.1976 35.3035C89.0534 35.3035 89.7194 35.115 90.1979 34.74C90.6743 34.365 90.9119 33.8615 90.9119 33.2338C90.9119 32.6744 90.7158 32.203 90.3226 31.8208C89.9315 31.4385 89.2782 31.0832 88.366 30.7548C85.8829 29.8546 84.6425 28.5359 84.6425 26.8018C84.6425 25.6686 85.0773 24.7394 85.948 24.0163C86.8154 23.2922 87.9728 22.9307 89.42 22.9307C90.7105 22.9307 91.7826 23.1492 92.6383 23.5854L92.0703 25.3858C91.271 24.9631 90.3673 24.7518 89.356 24.7518C88.5567 24.7518 87.9323 24.9434 87.4847 25.3246C87.1064 25.6654 86.9167 26.0808 86.9167 26.5729C86.9167 27.1178 87.133 27.5684 87.5678 27.9227C87.9461 28.25 88.6335 28.6043 89.631 28.9866C90.8512 29.4641 91.7474 30.0225 92.324 30.6626C92.8984 31.3008 93.185 32.0994 93.185 33.0525Z" fill="white"/>
<path d="M100.697 28.6353H98.1923V33.4615C98.1923 34.6891 98.6334 35.3023 99.518 35.3023C99.924 35.3023 100.261 35.2681 100.527 35.1998L100.59 36.8769C100.142 37.0395 99.5531 37.1214 98.8231 37.1214C97.9258 37.1214 97.2246 36.8551 96.7184 36.3237C96.2143 35.7913 95.9607 34.8983 95.9607 33.6439V28.6332H94.4688V26.9757H95.9607V25.1557L98.1923 24.501V26.9757H100.697V28.6353Z" fill="white"/>
<path d="M111.997 31.8664C111.997 33.3943 111.547 34.6488 110.65 35.6298C109.709 36.6398 108.46 37.1432 106.903 37.1432C105.402 37.1432 104.208 36.6595 103.317 35.6919C102.426 34.7244 101.98 33.5031 101.98 32.0311C101.98 30.4907 102.439 29.229 103.358 28.248C104.276 27.2659 105.514 26.7749 107.071 26.7749C108.572 26.7749 109.779 27.2587 110.69 28.2272C111.562 29.1668 111.997 30.3798 111.997 31.8664ZM109.64 31.9378C109.64 31.0211 109.438 30.2348 109.03 29.5791C108.554 28.7856 107.873 28.3899 106.99 28.3899C106.077 28.3899 105.383 28.7866 104.907 29.5791C104.499 30.2359 104.297 31.0345 104.297 31.9793C104.297 32.896 104.499 33.6823 104.907 34.337C105.398 35.1305 106.084 35.5262 106.97 35.5262C107.837 35.5262 108.518 35.1222 109.01 34.3163C109.429 33.6481 109.64 32.8536 109.64 31.9378Z" fill="white"/>
<path d="M119.381 28.9203C119.157 28.8799 118.917 28.8592 118.665 28.8592C117.866 28.8592 117.248 29.1524 116.813 29.7397C116.435 30.2577 116.245 30.9124 116.245 31.7027V36.9185H113.974L113.995 30.1085C113.995 28.9628 113.967 27.9196 113.91 26.979H115.889L115.972 28.881H116.035C116.275 28.2273 116.653 27.7011 117.171 27.3064C117.677 26.9511 118.224 26.7739 118.813 26.7739C119.023 26.7739 119.213 26.7884 119.381 26.8143V28.9203Z" fill="white"/>
<path d="M129.543 31.4781C129.543 31.8738 129.517 32.2073 129.46 32.4798H122.644C122.671 33.4618 123 34.2128 123.633 34.7308C124.207 35.1938 124.95 35.4259 125.862 35.4259C126.872 35.4259 127.792 35.2695 128.62 34.9556L128.976 36.4887C128.009 36.8989 126.866 37.103 125.548 37.103C123.962 37.103 122.718 36.6493 121.812 35.7429C120.908 34.8364 120.455 33.6193 120.455 32.0923C120.455 30.5934 120.876 29.3451 121.719 28.3496C122.601 27.2868 123.794 26.7554 125.294 26.7554C126.768 26.7554 127.884 27.2868 128.642 28.3496C129.242 29.1939 129.543 30.2381 129.543 31.4781ZM127.377 30.9052C127.392 30.2505 127.243 29.6849 126.936 29.2074C126.542 28.5931 125.938 28.2864 125.125 28.2864C124.382 28.2864 123.778 28.5858 123.316 29.1866C122.938 29.6642 122.713 30.237 122.644 30.9042H127.377V30.9052Z" fill="white"/>
<path d="M51.6157 12.3294H50.8097C50.762 12.0934 50.6786 11.886 50.5595 11.7074C50.4425 11.5287 50.2995 11.3787 50.1305 11.2574C49.9637 11.1338 49.7784 11.0412 49.5748 10.9794C49.3711 10.9176 49.1588 10.8868 48.9378 10.8868C48.5348 10.8868 48.1698 10.9904 47.8426 11.1978C47.5177 11.4051 47.2588 11.7107 47.0659 12.1143C46.8753 12.518 46.78 13.0132 46.78 13.6C46.78 14.1868 46.8753 14.682 47.0659 15.0857C47.2588 15.4893 47.5177 15.7949 47.8426 16.0022C48.1698 16.2096 48.5348 16.3132 48.9378 16.3132C49.1588 16.3132 49.3711 16.2824 49.5748 16.2206C49.7784 16.1588 49.9637 16.0673 50.1305 15.946C50.2995 15.8224 50.4425 15.6713 50.5595 15.4926C50.6786 15.3118 50.762 15.1044 50.8097 14.8706H51.6157C51.555 15.2169 51.4445 15.5268 51.2842 15.8004C51.1239 16.0739 50.9245 16.3066 50.6862 16.4985C50.4479 16.6882 50.1803 16.8327 49.8835 16.932C49.5889 17.0312 49.2736 17.0809 48.9378 17.0809C48.3702 17.0809 47.8654 16.9397 47.4234 16.6574C46.9814 16.375 46.6337 15.9735 46.3802 15.4529C46.1267 14.9324 46 14.3147 46 13.6C46 12.8853 46.1267 12.2676 46.3802 11.7471C46.6337 11.2265 46.9814 10.825 47.4234 10.5426C47.8654 10.2603 48.3702 10.1191 48.9378 10.1191C49.2736 10.1191 49.5889 10.1687 49.8835 10.268C50.1803 10.3673 50.4479 10.5129 50.6862 10.7048C50.9245 10.8945 51.1239 11.1261 51.2842 11.3996C51.4445 11.671 51.555 11.9809 51.6157 12.3294Z" fill="white"/>
<path d="M54.8419 17.0941C54.3913 17.0941 53.9959 16.9849 53.6557 16.7665C53.3177 16.5482 53.0534 16.2426 52.8628 15.85C52.6743 15.4574 52.58 14.9985 52.58 14.4735C52.58 13.9441 52.6743 13.482 52.8628 13.0871C53.0534 12.6923 53.3177 12.3857 53.6557 12.1673C53.9959 11.9489 54.3913 11.8397 54.8419 11.8397C55.2925 11.8397 55.6869 11.9489 56.0248 12.1673C56.365 12.3857 56.6293 12.6923 56.8178 13.0871C57.0084 13.482 57.1038 13.9441 57.1038 14.4735C57.1038 14.9985 57.0084 15.4574 56.8178 15.85C56.6293 16.2426 56.365 16.5482 56.0248 16.7665C55.6869 16.9849 55.2925 17.0941 54.8419 17.0941ZM54.8419 16.3926C55.1842 16.3926 55.4659 16.3033 55.6869 16.1246C55.9078 15.946 56.0714 15.711 56.1776 15.4199C56.2837 15.1287 56.3368 14.8132 56.3368 14.4735C56.3368 14.1338 56.2837 13.8173 56.1776 13.5239C56.0714 13.2305 55.9078 12.9934 55.6869 12.8125C55.4659 12.6316 55.1842 12.5412 54.8419 12.5412C54.4996 12.5412 54.2179 12.6316 53.997 12.8125C53.776 12.9934 53.6124 13.2305 53.5062 13.5239C53.4001 13.8173 53.347 14.1338 53.347 14.4735C53.347 14.8132 53.4001 15.1287 53.5062 15.4199C53.6124 15.711 53.776 15.946 53.997 16.1246C54.2179 16.3033 54.4996 16.3926 54.8419 16.3926Z" fill="white"/>
<path d="M58.2745 16.9882V11.9059H59.0155V12.7H59.0805C59.1845 12.4287 59.3524 12.218 59.5842 12.068C59.816 11.9158 60.0944 11.8397 60.4194 11.8397C60.7487 11.8397 61.0228 11.9158 61.2416 12.068C61.4626 12.218 61.6348 12.4287 61.7583 12.7H61.8103C61.9381 12.4375 62.1299 12.229 62.3855 12.0746C62.6412 11.918 62.9477 11.8397 63.3052 11.8397C63.7515 11.8397 64.1166 11.982 64.4004 12.2665C64.6842 12.5489 64.8261 12.989 64.8261 13.5868V16.9882H64.0592V13.5868C64.0592 13.2118 63.9584 12.9437 63.7569 12.7827C63.5554 12.6217 63.3182 12.5412 63.0452 12.5412C62.6943 12.5412 62.4224 12.6493 62.2295 12.8654C62.0367 13.0794 61.9403 13.3507 61.9403 13.6794V16.9882H61.1603V13.5074C61.1603 13.2184 61.0683 12.9857 60.8841 12.8092C60.7 12.6305 60.4627 12.5412 60.1724 12.5412C59.9731 12.5412 59.7868 12.5952 59.6134 12.7033C59.4423 12.8114 59.3036 12.9614 59.1975 13.1533C59.0935 13.343 59.0415 13.5625 59.0415 13.8118V16.9882H58.2745Z" fill="white"/>
<path d="M66.2284 16.9882V11.9059H66.9954V16.9882H66.2284ZM66.6184 11.0588C66.4689 11.0588 66.34 11.007 66.2317 10.9033C66.1255 10.7996 66.0724 10.675 66.0724 10.5294C66.0724 10.3838 66.1255 10.2592 66.2317 10.1555C66.34 10.0518 66.4689 10 66.6184 10C66.7679 10 66.8957 10.0518 67.0019 10.1555C67.1102 10.2592 67.1644 10.3838 67.1644 10.5294C67.1644 10.675 67.1102 10.7996 67.0019 10.9033C66.8957 11.007 66.7679 11.0588 66.6184 11.0588Z" fill="white"/>
<path d="M69.1671 13.9309V16.9882H68.4001V11.9059H69.1411V12.7H69.206C69.323 12.4419 69.5007 12.2346 69.739 12.0779C69.9773 11.9191 70.285 11.8397 70.662 11.8397C70.9999 11.8397 71.2957 11.9103 71.5492 12.0515C71.8026 12.1904 71.9998 12.4022 72.1406 12.6868C72.2814 12.9691 72.3519 13.3265 72.3519 13.7588V16.9882H71.5849V13.8118C71.5849 13.4125 71.4831 13.1015 71.2794 12.8787C71.0758 12.6537 70.7963 12.5412 70.441 12.5412C70.1962 12.5412 69.9773 12.5952 69.7845 12.7033C69.5939 12.8114 69.4433 12.9691 69.3328 13.1765C69.2223 13.3838 69.1671 13.6353 69.1671 13.9309Z" fill="white"/>
<path d="M75.7682 19C75.3977 19 75.0793 18.9515 74.8128 18.8544C74.5463 18.7596 74.3242 18.6338 74.1466 18.4772C73.9711 18.3228 73.8313 18.1574 73.7273 17.9809L74.3383 17.5441C74.4076 17.6368 74.4954 17.7426 74.6015 17.8618C74.7077 17.9831 74.8529 18.0879 75.037 18.1761C75.2233 18.2665 75.4671 18.3118 75.7682 18.3118C76.1712 18.3118 76.5038 18.2125 76.7659 18.014C77.0281 17.8154 77.1591 17.5044 77.1591 17.0809V16.0485H77.0941C77.0378 16.1412 76.9576 16.2559 76.8537 16.3926C76.7518 16.5272 76.6045 16.6474 76.4117 16.7533C76.221 16.857 75.9632 16.9088 75.6382 16.9088C75.2353 16.9088 74.8734 16.8118 74.5528 16.6176C74.2343 16.4235 73.9819 16.1412 73.7956 15.7706C73.6114 15.4 73.5194 14.95 73.5194 14.4206C73.5194 13.9 73.6093 13.4467 73.7891 13.0607C73.9689 12.6724 74.2191 12.3724 74.5398 12.1607C74.8604 11.9467 75.2309 11.8397 75.6512 11.8397C75.9762 11.8397 76.234 11.8949 76.4247 12.0051C76.6175 12.1132 76.7648 12.2368 76.8667 12.3757C76.9706 12.5125 77.0508 12.625 77.1071 12.7132H77.1851V11.9059H77.9261V17.1338C77.9261 17.5706 77.8286 17.9257 77.6336 18.1993C77.4408 18.475 77.1808 18.6768 76.8537 18.8048C76.5287 18.9349 76.1669 19 75.7682 19ZM75.7422 16.2074C76.0499 16.2074 76.3099 16.1357 76.5222 15.9923C76.7345 15.8489 76.8959 15.6426 77.0064 15.3735C77.1169 15.1044 77.1721 14.7824 77.1721 14.4074C77.1721 14.0412 77.118 13.718 77.0096 13.4379C76.9013 13.1577 76.741 12.9382 76.5287 12.7794C76.3164 12.6206 76.0542 12.5412 75.7422 12.5412C75.4172 12.5412 75.1464 12.625 74.9298 12.7926C74.7153 12.9603 74.5539 13.1853 74.4455 13.4676C74.3394 13.75 74.2863 14.0632 74.2863 14.4074C74.2863 14.7603 74.3405 15.0724 74.4488 15.3437C74.5593 15.6129 74.7218 15.8246 74.9363 15.979C75.1529 16.1313 75.4216 16.2074 75.7422 16.2074Z" fill="white"/>
<path d="M85.6476 11.9059C85.6086 11.5706 85.4505 11.3103 85.1732 11.125C84.8958 10.9397 84.5557 10.8471 84.1527 10.8471C83.8581 10.8471 83.6002 10.8956 83.3793 10.9926C83.1604 11.0897 82.9893 11.2232 82.8658 11.393C82.7445 11.5629 82.6838 11.7559 82.6838 11.9721C82.6838 12.1529 82.7261 12.3085 82.8105 12.4386C82.8972 12.5665 83.0077 12.6735 83.142 12.7596C83.2764 12.8434 83.4172 12.9129 83.5645 12.968C83.7118 13.021 83.8472 13.064 83.9707 13.0971L84.6467 13.2824C84.82 13.3287 85.0128 13.3926 85.2252 13.4743C85.4396 13.5559 85.6444 13.6673 85.8394 13.8085C86.0365 13.9474 86.199 14.1261 86.3268 14.3445C86.4547 14.5629 86.5186 14.8309 86.5186 15.1485C86.5186 15.5147 86.4243 15.8456 86.2358 16.1412C86.0495 16.4368 85.7765 16.6717 85.4169 16.846C85.0594 17.0202 84.625 17.1074 84.1137 17.1074C83.6371 17.1074 83.2244 17.029 82.8755 16.8724C82.5289 16.7158 82.2559 16.4974 82.0566 16.2173C81.8594 15.9371 81.7479 15.6118 81.7219 15.2412H82.5538C82.5755 15.4971 82.66 15.7088 82.8073 15.8765C82.9568 16.0419 83.1453 16.1654 83.3728 16.2471C83.6024 16.3265 83.8494 16.3662 84.1137 16.3662C84.4214 16.3662 84.6976 16.3154 84.9424 16.214C85.1872 16.1103 85.3811 15.9669 85.5241 15.7838C85.6671 15.5985 85.7386 15.3824 85.7386 15.1353C85.7386 14.9103 85.6769 14.7272 85.5534 14.586C85.4299 14.4449 85.2674 14.3301 85.0659 14.2419C84.8644 14.1537 84.6467 14.0765 84.4127 14.0103L83.5937 13.7721C83.0738 13.6199 82.6621 13.4026 82.3588 13.1202C82.0555 12.8379 81.9039 12.4684 81.9039 12.0118C81.9039 11.6324 82.0046 11.3015 82.2061 11.0191C82.4097 10.7346 82.6827 10.514 83.025 10.3574C83.3695 10.1985 83.7541 10.1191 84.1787 10.1191C84.6077 10.1191 84.989 10.1974 85.3226 10.354C85.6563 10.5085 85.9206 10.7202 86.1156 10.9893C86.3128 11.2585 86.4167 11.564 86.4276 11.9059H85.6476Z" fill="white"/>
<path d="M89.7676 17.0941C89.3169 17.0941 88.9215 16.9849 88.5814 16.7665C88.2434 16.5482 87.9791 16.2426 87.7884 15.85C87.5999 15.4574 87.5057 14.9985 87.5057 14.4735C87.5057 13.9441 87.5999 13.482 87.7884 13.0871C87.9791 12.6923 88.2434 12.3857 88.5814 12.1673C88.9215 11.9489 89.3169 11.8397 89.7676 11.8397C90.2182 11.8397 90.6125 11.9489 90.9505 12.1673C91.2906 12.3857 91.555 12.6923 91.7435 13.0871C91.9341 13.482 92.0294 13.9441 92.0294 14.4735C92.0294 14.9985 91.9341 15.4574 91.7435 15.85C91.555 16.2426 91.2906 16.5482 90.9505 16.7665C90.6125 16.9849 90.2182 17.0941 89.7676 17.0941ZM89.7676 16.3926C90.1099 16.3926 90.3915 16.3033 90.6125 16.1246C90.8335 15.946 90.9971 15.711 91.1032 15.4199C91.2094 15.1287 91.2625 14.8132 91.2625 14.4735C91.2625 14.1338 91.2094 13.8173 91.1032 13.5239C90.9971 13.2305 90.8335 12.9934 90.6125 12.8125C90.3915 12.6316 90.1099 12.5412 89.7676 12.5412C89.4253 12.5412 89.1436 12.6316 88.9226 12.8125C88.7016 12.9934 88.5381 13.2305 88.4319 13.5239C88.3257 13.8173 88.2727 14.1338 88.2727 14.4735C88.2727 14.8132 88.3257 15.1287 88.4319 15.4199C88.5381 15.711 88.7016 15.946 88.9226 16.1246C89.1436 16.3033 89.4253 16.3926 89.7676 16.3926Z" fill="white"/>
<path d="M95.2281 17.0941C94.7774 17.0941 94.382 16.9849 94.0419 16.7665C93.7039 16.5482 93.4396 16.2426 93.2489 15.85C93.0604 15.4574 92.9662 14.9985 92.9662 14.4735C92.9662 13.9441 93.0604 13.482 93.2489 13.0871C93.4396 12.6923 93.7039 12.3857 94.0419 12.1673C94.382 11.9489 94.7774 11.8397 95.2281 11.8397C95.6787 11.8397 96.073 11.9489 96.411 12.1673C96.7511 12.3857 97.0154 12.6923 97.2039 13.0871C97.3946 13.482 97.4899 13.9441 97.4899 14.4735C97.4899 14.9985 97.3946 15.4574 97.2039 15.85C97.0154 16.2426 96.7511 16.5482 96.411 16.7665C96.073 16.9849 95.6787 17.0941 95.2281 17.0941ZM95.2281 16.3926C95.5704 16.3926 95.852 16.3033 96.073 16.1246C96.294 15.946 96.4576 15.711 96.5637 15.4199C96.6699 15.1287 96.723 14.8132 96.723 14.4735C96.723 14.1338 96.6699 13.8173 96.5637 13.5239C96.4576 13.2305 96.294 12.9934 96.073 12.8125C95.852 12.6316 95.5704 12.5412 95.2281 12.5412C94.8857 12.5412 94.6041 12.6316 94.3831 12.8125C94.1621 12.9934 93.9985 13.2305 93.8924 13.5239C93.7862 13.8173 93.7331 14.1338 93.7331 14.4735C93.7331 14.8132 93.7862 15.1287 93.8924 15.4199C93.9985 15.711 94.1621 15.946 94.3831 16.1246C94.6041 16.3033 94.8857 16.3926 95.2281 16.3926Z" fill="white"/>
<path d="M99.4276 13.9309V16.9882H98.6607V11.9059H99.4016V12.7H99.4666C99.5836 12.4419 99.7613 12.2346 99.9996 12.0779C100.238 11.9191 100.546 11.8397 100.923 11.8397C101.261 11.8397 101.556 11.9103 101.81 12.0515C102.063 12.1904 102.26 12.4022 102.401 12.6868C102.542 12.9691 102.612 13.3265 102.612 13.7588V16.9882H101.845V13.8118C101.845 13.4125 101.744 13.1015 101.54 12.8787C101.336 12.6537 101.057 12.5412 100.702 12.5412C100.457 12.5412 100.238 12.5952 100.045 12.7033C99.8544 12.8114 99.7038 12.9691 99.5934 13.1765C99.4829 13.3838 99.4276 13.6353 99.4276 13.9309Z" fill="white"/>
<path d="M108.616 17.0941C108.165 17.0941 107.77 16.9849 107.429 16.7665C107.091 16.5482 106.827 16.2426 106.636 15.85C106.448 15.4574 106.354 14.9985 106.354 14.4735C106.354 13.9441 106.448 13.482 106.636 13.0871C106.827 12.6923 107.091 12.3857 107.429 12.1673C107.77 11.9489 108.165 11.8397 108.616 11.8397C109.066 11.8397 109.461 11.9489 109.799 12.1673C110.139 12.3857 110.403 12.6923 110.592 13.0871C110.782 13.482 110.877 13.9441 110.877 14.4735C110.877 14.9985 110.782 15.4574 110.592 15.85C110.403 16.2426 110.139 16.5482 109.799 16.7665C109.461 16.9849 109.066 17.0941 108.616 17.0941ZM108.616 16.3926C108.958 16.3926 109.24 16.3033 109.461 16.1246C109.682 15.946 109.845 15.711 109.951 15.4199C110.057 15.1287 110.111 14.8132 110.111 14.4735C110.111 14.1338 110.057 13.8173 109.951 13.5239C109.845 13.2305 109.682 12.9934 109.461 12.8125C109.24 12.6316 108.958 12.5412 108.616 12.5412C108.273 12.5412 107.992 12.6316 107.771 12.8125C107.55 12.9934 107.386 13.2305 107.28 13.5239C107.174 13.8173 107.121 14.1338 107.121 14.4735C107.121 14.8132 107.174 15.1287 107.28 15.4199C107.386 15.711 107.55 15.946 107.771 16.1246C107.992 16.3033 108.273 16.3926 108.616 16.3926Z" fill="white"/>
<path d="M112.815 13.9309V16.9882H112.048V11.9059H112.789V12.7H112.854C112.971 12.4419 113.149 12.2346 113.387 12.0779C113.625 11.9191 113.933 11.8397 114.31 11.8397C114.648 11.8397 114.944 11.9103 115.197 12.0515C115.451 12.1904 115.648 12.4022 115.789 12.6868C115.93 12.9691 116 13.3265 116 13.7588V16.9882H115.233V13.8118C115.233 13.4125 115.131 13.1015 114.928 12.8787C114.724 12.6537 114.444 12.5412 114.089 12.5412C113.844 12.5412 113.625 12.5952 113.433 12.7033C113.242 12.8114 113.091 12.9691 112.981 13.1765C112.87 13.3838 112.815 13.6353 112.815 13.9309Z" fill="white"/>
</svg>
