<svg width="150" height="50" viewBox="0 0 150 50" fill="none" xmlns="http://www.w3.org/2000/svg">
<path d="M144.444 50H5.55556C2.50139 50 0 47.1859 0 43.75V6.25C0 2.81406 2.50139 -2.1259e-06 5.55556 -2.1259e-06H144.444C147.499 -2.1259e-06 150 2.81406 150 6.25V43.75C150 47.1859 147.499 50 144.444 50Z" fill="black"/>
<path d="M11.1192 12.3923C10.8062 12.7202 10.625 13.2306 10.625 13.8916V37.4688C10.625 38.1298 10.8062 38.6402 11.1192 38.9681L11.1965 39.04L24.403 25.8335V25.5216L11.1965 12.315L11.1192 12.3923Z" fill="url(#paint0_linear_452_219)"/>
<path d="M28.8016 30.2378L24.4043 25.8334V25.5215L28.8069 21.1171L28.9055 21.1744L34.1194 24.1422C35.6073 24.9845 35.6073 26.3704 34.1194 27.218L28.9055 30.1805L28.8016 30.2378V30.2378Z" fill="url(#paint1_linear_452_219)"/>
<path d="M28.9041 30.1806L24.4029 25.6776L11.1191 38.9681C11.6134 39.4878 12.4193 39.5505 13.3358 39.0307L28.9041 30.1806" fill="url(#paint2_linear_452_219)"/>
<path d="M28.9041 21.1747L13.3358 12.3246C12.4193 11.8102 11.6134 11.8728 11.1191 12.3925L24.4029 25.6777L28.9041 21.1747Z" fill="url(#paint3_linear_452_219)"/>
<path d="M72.8357 27.5461C70.3327 27.5461 68.2879 29.4518 68.2879 32.0811C68.2879 34.6891 70.3327 36.6148 72.8357 36.6148C75.344 36.6148 77.3888 34.6891 77.3888 32.0811C77.3888 29.4518 75.344 27.5461 72.8357 27.5461ZM72.8357 34.829C71.4623 34.829 70.2807 33.6949 70.2807 32.0811C70.2807 30.4459 71.4623 29.3318 72.8357 29.3318C74.2091 29.3318 75.396 30.4459 75.396 32.0811C75.396 33.6949 74.2091 34.829 72.8357 34.829V34.829ZM62.9128 27.5461C60.4045 27.5461 58.365 29.4518 58.365 32.0811C58.365 34.6891 60.4045 36.6148 62.9128 36.6148C65.4198 36.6148 67.4606 34.6891 67.4606 32.0811C67.4606 29.4518 65.4198 27.5461 62.9128 27.5461ZM62.9128 34.829C61.5381 34.829 60.3525 33.6949 60.3525 32.0811C60.3525 30.4459 61.5381 29.3318 62.9128 29.3318C64.2862 29.3318 65.4678 30.4459 65.4678 32.0811C65.4678 33.6949 64.2862 34.829 62.9128 34.829ZM51.105 28.936V30.8631H55.7048C55.5702 31.9398 55.2106 32.7314 54.6591 33.2832C53.9877 33.9495 52.942 34.6891 51.105 34.6891C48.2743 34.6891 46.0577 32.4036 46.0577 29.5717C46.0577 26.7398 48.2743 24.4543 51.105 24.4543C52.6356 24.4543 53.7493 25.0527 54.5712 25.8283L55.9286 24.4703C54.779 23.3722 53.2497 22.5287 51.105 22.5287C47.2233 22.5287 43.9609 25.6884 43.9609 29.5717C43.9609 33.4551 47.2233 36.6148 51.105 36.6148C53.2031 36.6148 54.779 35.9271 56.0178 34.6371C57.2873 33.3671 57.683 31.5814 57.683 30.1394C57.683 29.6917 57.6457 29.2799 57.5791 28.936H51.105ZM99.3886 30.43C99.0143 29.4158 97.8593 27.5461 95.5068 27.5461C93.1756 27.5461 91.2348 29.3838 91.2348 32.0811C91.2348 34.6211 93.1556 36.6148 95.7306 36.6148C97.8127 36.6148 99.0143 35.3448 99.5085 34.6051L97.9632 33.575C97.4477 34.3293 96.7457 34.829 95.7306 34.829C94.7222 34.829 93.9989 34.3666 93.5353 33.4551L99.5977 30.9457L99.3886 30.43V30.43ZM93.2076 31.9398C93.1557 30.1914 94.565 29.2959 95.5748 29.2959C96.366 29.2959 97.0374 29.6917 97.2612 30.258L93.2076 31.9398V31.9398ZM88.2801 36.3389H90.273V23.0124H88.2801V36.3389ZM85.0165 28.5562H84.9499C84.5023 28.0258 83.6484 27.5461 82.5667 27.5461C80.2968 27.5461 78.2214 29.5397 78.2214 32.0958C78.2214 34.6371 80.2968 36.6148 82.5667 36.6148C83.6484 36.6148 84.5023 36.131 84.9499 35.5846H85.0165V36.235C85.0165 37.9688 84.0907 38.9003 82.5974 38.9003C81.3798 38.9003 80.6245 38.0207 80.3128 37.2811L78.5797 38.0047C79.0793 39.2068 80.4021 40.686 82.5974 40.686C84.9339 40.686 86.9054 39.3107 86.9054 35.9645V27.822H85.0165V28.5562V28.5562ZM82.7372 34.829C81.3638 34.829 80.2142 33.679 80.2142 32.0958C80.2142 30.4979 81.3638 29.3318 82.7372 29.3318C84.0907 29.3318 85.1577 30.4979 85.1577 32.0958C85.1577 33.679 84.0907 34.829 82.7372 34.829V34.829ZM108.719 23.0124H103.952V36.3389H105.94V31.2895H108.719C110.926 31.2895 113.091 29.6917 113.091 27.1503C113.091 24.6103 110.921 23.0124 108.719 23.0124V23.0124ZM108.771 29.4358H105.94V24.8661H108.771C110.255 24.8661 111.102 26.0988 111.102 27.1503C111.102 28.1818 110.255 29.4358 108.771 29.4358ZM121.057 27.5208C119.621 27.5208 118.127 28.1551 117.513 29.5611L119.277 30.3007C119.657 29.5611 120.355 29.3212 121.093 29.3212C122.124 29.3212 123.169 29.9409 123.185 31.035V31.1749C122.826 30.967 122.056 30.6592 121.109 30.6592C119.209 30.6592 117.273 31.7053 117.273 33.6576C117.273 35.4434 118.829 36.5935 120.578 36.5935C121.916 36.5935 122.654 35.9898 123.117 35.2875H123.185V36.3176H125.105V31.2056C125.105 28.8428 123.341 27.5208 121.057 27.5208ZM120.817 34.8237C120.167 34.8237 119.261 34.5012 119.261 33.6949C119.261 32.6635 120.391 32.2677 121.368 32.2677C122.244 32.2677 122.654 32.4609 123.185 32.7154C123.029 33.9495 121.968 34.8237 120.817 34.8237V34.8237ZM132.098 27.8126L129.814 33.5897H129.746L127.384 27.8126H125.241L128.79 35.8858L126.765 40.3782H128.841L134.31 27.8126H132.098V27.8126ZM114.183 36.3389H116.176V23.0124H114.183V36.3389Z" fill="white"/>
<path d="M49.5571 12.6844H48.7511C48.7035 12.4484 48.62 12.241 48.5009 12.0623C48.3839 11.8837 48.2409 11.7337 48.0719 11.6123C47.9051 11.4888 47.7198 11.3962 47.5162 11.3344C47.3125 11.2726 47.1002 11.2417 46.8792 11.2417C46.4763 11.2417 46.1112 11.3454 45.784 11.5528C45.4591 11.7601 45.2002 12.0656 45.0073 12.4693C44.8167 12.873 44.7214 13.3682 44.7214 13.955C44.7214 14.5417 44.8167 15.037 45.0073 15.4406C45.2002 15.8443 45.4591 16.1498 45.784 16.3572C46.1112 16.5645 46.4763 16.6682 46.8792 16.6682C47.1002 16.6682 47.3125 16.6373 47.5162 16.5756C47.7198 16.5138 47.9051 16.4223 48.0719 16.3009C48.2409 16.1774 48.3839 16.0263 48.5009 15.8476C48.62 15.6667 48.7035 15.4594 48.7511 15.2256H49.5571C49.4964 15.5719 49.3859 15.8818 49.2256 16.1553C49.0653 16.4289 48.8659 16.6616 48.6276 16.8535C48.3893 17.0432 48.1217 17.1877 47.8249 17.287C47.5303 17.3862 47.215 17.4359 46.8792 17.4359C46.3116 17.4359 45.8068 17.2947 45.3648 17.0123C44.9228 16.73 44.5751 16.3285 44.3216 15.8079C44.0681 15.2873 43.9414 14.6697 43.9414 13.955C43.9414 13.2403 44.0681 12.6226 44.3216 12.102C44.5751 11.5815 44.9228 11.18 45.3648 10.8976C45.8068 10.6153 46.3116 10.4741 46.8792 10.4741C47.215 10.4741 47.5303 10.5237 47.8249 10.623C48.1217 10.7223 48.3893 10.8678 48.6276 11.0598C48.8659 11.2495 49.0653 11.4811 49.2256 11.7546C49.3859 12.0259 49.4964 12.3359 49.5571 12.6844Z" fill="white"/>
<path d="M52.7833 17.4491C52.3327 17.4491 51.9373 17.3399 51.5971 17.1215C51.2592 16.9031 50.9948 16.5976 50.8042 16.205C50.6157 15.8123 50.5214 15.3535 50.5214 14.8285C50.5214 14.2991 50.6157 13.837 50.8042 13.4421C50.9948 13.0473 51.2592 12.7406 51.5971 12.5223C51.9373 12.3039 52.3327 12.1947 52.7833 12.1947C53.234 12.1947 53.6283 12.3039 53.9662 12.5223C54.3064 12.7406 54.5707 13.0473 54.7592 13.4421C54.9499 13.837 55.0452 14.2991 55.0452 14.8285C55.0452 15.3535 54.9499 15.8123 54.7592 16.205C54.5707 16.5976 54.3064 16.9031 53.9662 17.1215C53.6283 17.3399 53.234 17.4491 52.7833 17.4491ZM52.7833 16.7476C53.1256 16.7476 53.4073 16.6583 53.6283 16.4796C53.8493 16.3009 54.0128 16.066 54.119 15.7748C54.2251 15.4837 54.2782 15.1682 54.2782 14.8285C54.2782 14.4888 54.2251 14.1723 54.119 13.8789C54.0128 13.5855 53.8493 13.3484 53.6283 13.1675C53.4073 12.9866 53.1256 12.8962 52.7833 12.8962C52.441 12.8962 52.1594 12.9866 51.9384 13.1675C51.7174 13.3484 51.5538 13.5855 51.4476 13.8789C51.3415 14.1723 51.2884 14.4888 51.2884 14.8285C51.2884 15.1682 51.3415 15.4837 51.4476 15.7748C51.5538 16.066 51.7174 16.3009 51.9384 16.4796C52.1594 16.6583 52.441 16.7476 52.7833 16.7476Z" fill="white"/>
<path d="M56.2159 17.3432V12.2609H56.9569V13.055H57.0219C57.1259 12.7837 57.2938 12.573 57.5256 12.423C57.7574 12.2708 58.0358 12.1947 58.3608 12.1947C58.6901 12.1947 58.9642 12.2708 59.183 12.423C59.404 12.573 59.5762 12.7837 59.6997 13.055H59.7517C59.8795 12.7925 60.0713 12.584 60.3269 12.4296C60.5826 12.273 60.8891 12.1947 61.2466 12.1947C61.6929 12.1947 62.058 12.337 62.3418 12.6215C62.6256 12.9039 62.7675 13.344 62.7675 13.9417V17.3432H62.0006V13.9417C62.0006 13.5667 61.8998 13.2987 61.6983 13.1377C61.4969 12.9767 61.2596 12.8962 60.9866 12.8962C60.6357 12.8962 60.3638 13.0042 60.1709 13.2204C59.9781 13.4344 59.8817 13.7057 59.8817 14.0344V17.3432H59.1017V13.8623C59.1017 13.5734 59.0097 13.3406 58.8255 13.1642C58.6414 12.9855 58.4041 12.8962 58.1138 12.8962C57.9145 12.8962 57.7282 12.9502 57.5548 13.0583C57.3837 13.1664 57.245 13.3164 57.1389 13.5083C57.0349 13.698 56.9829 13.9175 56.9829 14.1667V17.3432H56.2159Z" fill="white"/>
<path d="M64.1698 17.3432V12.2609H64.9368V17.3432H64.1698ZM64.5598 11.4138C64.4103 11.4138 64.2814 11.362 64.1731 11.2583C64.0669 11.1546 64.0138 11.03 64.0138 10.8844C64.0138 10.7388 64.0669 10.6142 64.1731 10.5105C64.2814 10.4068 64.4103 10.355 64.5598 10.355C64.7093 10.355 64.8371 10.4068 64.9433 10.5105C65.0516 10.6142 65.1058 10.7388 65.1058 10.8844C65.1058 11.03 65.0516 11.1546 64.9433 11.2583C64.8371 11.362 64.7093 11.4138 64.5598 11.4138Z" fill="white"/>
<path d="M67.1085 14.2859V17.3432H66.3415V12.2609H67.0825V13.055H67.1475C67.2644 12.7969 67.4421 12.5895 67.6804 12.4329C67.9187 12.2741 68.2264 12.1947 68.6034 12.1947C68.9413 12.1947 69.2371 12.2653 69.4906 12.4065C69.744 12.5454 69.9412 12.7572 70.082 13.0417C70.2229 13.3241 70.2933 13.6815 70.2933 14.1138V17.3432H69.5263V14.1667C69.5263 13.7675 69.4245 13.4565 69.2208 13.2337C69.0172 13.0087 68.7377 12.8962 68.3824 12.8962C68.1376 12.8962 67.9187 12.9502 67.7259 13.0583C67.5353 13.1664 67.3847 13.3241 67.2742 13.5315C67.1637 13.7388 67.1085 13.9903 67.1085 14.2859Z" fill="white"/>
<path d="M73.7096 19.355C73.3391 19.355 73.0207 19.3065 72.7542 19.2094C72.4877 19.1145 72.2656 18.9888 72.088 18.8322C71.9125 18.6778 71.7727 18.5123 71.6687 18.3359L72.2797 17.8991C72.349 17.9917 72.4368 18.0976 72.5429 18.2167C72.6491 18.3381 72.7943 18.4428 72.9784 18.5311C73.1647 18.6215 73.4085 18.6667 73.7096 18.6667C74.1126 18.6667 74.4452 18.5675 74.7073 18.369C74.9695 18.1704 75.1005 17.8594 75.1005 17.4359V16.4035H75.0355C74.9792 16.4962 74.8991 16.6109 74.7951 16.7476C74.6932 16.8822 74.5459 17.0024 74.3531 17.1083C74.1624 17.212 73.9046 17.2638 73.5796 17.2638C73.1767 17.2638 72.8148 17.1667 72.4942 16.9726C72.1757 16.7785 71.9233 16.4962 71.737 16.1256C71.5528 15.755 71.4608 15.305 71.4608 14.7756C71.4608 14.255 71.5507 13.8017 71.7305 13.4156C71.9103 13.0274 72.1605 12.7274 72.4812 12.5156C72.8018 12.3017 73.1723 12.1947 73.5926 12.1947C73.9176 12.1947 74.1754 12.2498 74.3661 12.3601C74.5589 12.4682 74.7062 12.5917 74.8081 12.7307C74.9121 12.8675 74.9922 12.98 75.0485 13.0682H75.1265V12.2609H75.8675V17.4888C75.8675 17.9256 75.77 18.2807 75.575 18.5542C75.3822 18.83 75.1222 19.0318 74.7951 19.1598C74.4701 19.2899 74.1083 19.355 73.7096 19.355ZM73.6836 16.5623C73.9913 16.5623 74.2513 16.4906 74.4636 16.3473C74.6759 16.2039 74.8373 15.9976 74.9478 15.7285C75.0583 15.4594 75.1135 15.1373 75.1135 14.7623C75.1135 14.3962 75.0594 14.073 74.9511 13.7928C74.8427 13.5127 74.6824 13.2932 74.4701 13.1344C74.2578 12.9756 73.9956 12.8962 73.6836 12.8962C73.3586 12.8962 73.0878 12.98 72.8712 13.1476C72.6567 13.3153 72.4953 13.5403 72.387 13.8226C72.2808 14.105 72.2277 14.4182 72.2277 14.7623C72.2277 15.1153 72.2819 15.4274 72.3902 15.6987C72.5007 15.9678 72.6632 16.1796 72.8777 16.334C73.0943 16.4862 73.363 16.5623 73.6836 16.5623Z" fill="white"/>
<path d="M83.589 12.2609C83.55 11.9256 83.3919 11.6653 83.1146 11.48C82.8372 11.2947 82.4971 11.202 82.0941 11.202C81.7995 11.202 81.5417 11.2506 81.3207 11.3476C81.1018 11.4447 80.9307 11.5781 80.8072 11.748C80.6859 11.9178 80.6252 12.1109 80.6252 12.327C80.6252 12.5079 80.6675 12.6634 80.752 12.7936C80.8386 12.9215 80.9491 13.0285 81.0834 13.1145C81.2178 13.1984 81.3586 13.2678 81.5059 13.323C81.6532 13.3759 81.7886 13.419 81.9121 13.452L82.5881 13.6373C82.7614 13.6837 82.9542 13.7476 83.1666 13.8292C83.381 13.9109 83.5858 14.0223 83.7808 14.1634C83.9779 14.3024 84.1404 14.4811 84.2682 14.6995C84.3961 14.9178 84.46 15.1859 84.46 15.5035C84.46 15.8697 84.3657 16.2006 84.1772 16.4962C83.9909 16.7917 83.7179 17.0267 83.3583 17.2009C83.0008 17.3752 82.5664 17.4623 82.0551 17.4623C81.5785 17.4623 81.1658 17.384 80.8169 17.2274C80.4703 17.0708 80.1973 16.8524 79.998 16.5723C79.8008 16.2921 79.6893 15.9667 79.6633 15.5962H80.4952C80.5169 15.852 80.6014 16.0638 80.7487 16.2315C80.8982 16.3969 81.0867 16.5204 81.3142 16.602C81.5438 16.6815 81.7908 16.7212 82.0551 16.7212C82.3628 16.7212 82.639 16.6704 82.8838 16.569C83.1286 16.4653 83.3225 16.3219 83.4655 16.1388C83.6085 15.9535 83.68 15.7373 83.68 15.4903C83.68 15.2653 83.6183 15.0822 83.4948 14.941C83.3713 14.7998 83.2088 14.6851 83.0073 14.5969C82.8058 14.5087 82.5881 14.4315 82.3541 14.3653L81.5352 14.127C81.0152 13.9748 80.6035 13.7576 80.3002 13.4752C79.9969 13.1928 79.8453 12.8234 79.8453 12.3667C79.8453 11.9873 79.946 11.6565 80.1475 11.3741C80.3511 11.0895 80.6241 10.869 80.9664 10.7123C81.3109 10.5535 81.6955 10.4741 82.1201 10.4741C82.5491 10.4741 82.9304 10.5524 83.2641 10.709C83.5977 10.8634 83.862 11.0752 84.057 11.3443C84.2542 11.6134 84.3582 11.919 84.369 12.2609H83.589Z" fill="white"/>
<path d="M87.709 17.4491C87.2583 17.4491 86.8629 17.3399 86.5228 17.1215C86.1848 16.9031 85.9205 16.5976 85.7298 16.205C85.5414 15.8123 85.4471 15.3535 85.4471 14.8285C85.4471 14.2991 85.5414 13.837 85.7298 13.4421C85.9205 13.0473 86.1848 12.7406 86.5228 12.5223C86.8629 12.3039 87.2583 12.1947 87.709 12.1947C88.1596 12.1947 88.5539 12.3039 88.8919 12.5223C89.232 12.7406 89.4964 13.0473 89.6849 13.4421C89.8755 13.837 89.9708 14.2991 89.9708 14.8285C89.9708 15.3535 89.8755 15.8123 89.6849 16.205C89.4964 16.5976 89.232 16.9031 88.8919 17.1215C88.5539 17.3399 88.1596 17.4491 87.709 17.4491ZM87.709 16.7476C88.0513 16.7476 88.3329 16.6583 88.5539 16.4796C88.7749 16.3009 88.9385 16.066 89.0446 15.7748C89.1508 15.4837 89.2039 15.1682 89.2039 14.8285C89.2039 14.4888 89.1508 14.1723 89.0446 13.8789C88.9385 13.5855 88.7749 13.3484 88.5539 13.1675C88.3329 12.9866 88.0513 12.8962 87.709 12.8962C87.3667 12.8962 87.085 12.9866 86.864 13.1675C86.643 13.3484 86.4795 13.5855 86.3733 13.8789C86.2671 14.1723 86.2141 14.4888 86.2141 14.8285C86.2141 15.1682 86.2671 15.4837 86.3733 15.7748C86.4795 16.066 86.643 16.3009 86.864 16.4796C87.085 16.6583 87.3667 16.7476 87.709 16.7476Z" fill="white"/>
<path d="M93.1695 17.4491C92.7188 17.4491 92.3234 17.3399 91.9833 17.1215C91.6453 16.9031 91.381 16.5976 91.1903 16.205C91.0018 15.8123 90.9076 15.3535 90.9076 14.8285C90.9076 14.2991 91.0018 13.837 91.1903 13.4421C91.381 13.0473 91.6453 12.7406 91.9833 12.5223C92.3234 12.3039 92.7188 12.1947 93.1695 12.1947C93.6201 12.1947 94.0144 12.3039 94.3524 12.5223C94.6925 12.7406 94.9569 13.0473 95.1453 13.4421C95.336 13.837 95.4313 14.2991 95.4313 14.8285C95.4313 15.3535 95.336 15.8123 95.1453 16.205C94.9569 16.5976 94.6925 16.9031 94.3524 17.1215C94.0144 17.3399 93.6201 17.4491 93.1695 17.4491ZM93.1695 16.7476C93.5118 16.7476 93.7934 16.6583 94.0144 16.4796C94.2354 16.3009 94.399 16.066 94.5051 15.7748C94.6113 15.4837 94.6644 15.1682 94.6644 14.8285C94.6644 14.4888 94.6113 14.1723 94.5051 13.8789C94.399 13.5855 94.2354 13.3484 94.0144 13.1675C93.7934 12.9866 93.5118 12.8962 93.1695 12.8962C92.8271 12.8962 92.5455 12.9866 92.3245 13.1675C92.1035 13.3484 91.9399 13.5855 91.8338 13.8789C91.7276 14.1723 91.6745 14.4888 91.6745 14.8285C91.6745 15.1682 91.7276 15.4837 91.8338 15.7748C91.9399 16.066 92.1035 16.3009 92.3245 16.4796C92.5455 16.6583 92.8271 16.7476 93.1695 16.7476Z" fill="white"/>
<path d="M97.369 14.2859V17.3432H96.6021V12.2609H97.343V13.055H97.408C97.525 12.7969 97.7027 12.5895 97.941 12.4329C98.1793 12.2741 98.487 12.1947 98.8639 12.1947C99.2019 12.1947 99.4976 12.2653 99.7511 12.4065C100.005 12.5454 100.202 12.7572 100.343 13.0417C100.483 13.3241 100.554 13.6815 100.554 14.1138V17.3432H99.7869V14.1667C99.7869 13.7675 99.685 13.4565 99.4814 13.2337C99.2777 13.0087 98.9983 12.8962 98.6429 12.8962C98.3981 12.8962 98.1793 12.9502 97.9865 13.0583C97.7958 13.1664 97.6453 13.3241 97.5348 13.5315C97.4243 13.7388 97.369 13.9903 97.369 14.2859Z" fill="white"/>
<path d="M106.557 17.4491C106.106 17.4491 105.711 17.3399 105.371 17.1215C105.033 16.9031 104.769 16.5976 104.578 16.205C104.389 15.8123 104.295 15.3535 104.295 14.8285C104.295 14.2991 104.389 13.837 104.578 13.4421C104.769 13.0473 105.033 12.7406 105.371 12.5223C105.711 12.3039 106.106 12.1947 106.557 12.1947C107.008 12.1947 107.402 12.3039 107.74 12.5223C108.08 12.7406 108.344 13.0473 108.533 13.4421C108.724 13.837 108.819 14.2991 108.819 14.8285C108.819 15.3535 108.724 15.8123 108.533 16.205C108.344 16.5976 108.08 16.9031 107.74 17.1215C107.402 17.3399 107.008 17.4491 106.557 17.4491ZM106.557 16.7476C106.899 16.7476 107.181 16.6583 107.402 16.4796C107.623 16.3009 107.787 16.066 107.893 15.7748C107.999 15.4837 108.052 15.1682 108.052 14.8285C108.052 14.4888 107.999 14.1723 107.893 13.8789C107.787 13.5855 107.623 13.3484 107.402 13.1675C107.181 12.9866 106.899 12.8962 106.557 12.8962C106.215 12.8962 105.933 12.9866 105.712 13.1675C105.491 13.3484 105.328 13.5855 105.221 13.8789C105.115 14.1723 105.062 14.4888 105.062 14.8285C105.062 15.1682 105.115 15.4837 105.221 15.7748C105.328 16.066 105.491 16.3009 105.712 16.4796C105.933 16.6583 106.215 16.7476 106.557 16.7476Z" fill="white"/>
<path d="M110.757 14.2859V17.3432H109.99V12.2609H110.731V13.055H110.796C110.913 12.7969 111.09 12.5895 111.329 12.4329C111.567 12.2741 111.875 12.1947 112.252 12.1947C112.589 12.1947 112.885 12.2653 113.139 12.4065C113.392 12.5454 113.589 12.7572 113.73 13.0417C113.871 13.3241 113.941 13.6815 113.941 14.1138V17.3432H113.174V14.1667C113.174 13.7675 113.073 13.4565 112.869 13.2337C112.665 13.0087 112.386 12.8962 112.031 12.8962C111.786 12.8962 111.567 12.9502 111.374 13.0583C111.183 13.1664 111.033 13.3241 110.922 13.5315C110.812 13.7388 110.757 13.9903 110.757 14.2859Z" fill="white"/>
<defs>
<linearGradient id="paint0_linear_452_219" x1="23.2304" y1="37.7144" x2="5.33833" y2="19.8296" gradientUnits="userSpaceOnUse">
<stop stop-color="#00A0FF"/>
<stop offset="0.0066" stop-color="#00A1FF"/>
<stop offset="0.2601" stop-color="#00BEFF"/>
<stop offset="0.5122" stop-color="#00D2FF"/>
<stop offset="0.7604" stop-color="#00DFFF"/>
<stop offset="1" stop-color="#00E3FF"/>
</linearGradient>
<linearGradient id="paint1_linear_452_219" x1="36.0569" y1="25.676" x2="10.2706" y2="25.676" gradientUnits="userSpaceOnUse">
<stop stop-color="#FFE000"/>
<stop offset="0.4087" stop-color="#FFBD00"/>
<stop offset="0.7754" stop-color="#FFA500"/>
<stop offset="1" stop-color="#FF9C00"/>
</linearGradient>
<linearGradient id="paint2_linear_452_219" x1="26.4565" y1="23.2296" x2="2.19339" y2="-1.02356" gradientUnits="userSpaceOnUse">
<stop stop-color="#FF3A44"/>
<stop offset="1" stop-color="#C31162"/>
</linearGradient>
<linearGradient id="paint3_linear_452_219" x1="7.77534" y1="46.8123" x2="18.6099" y2="35.9823" gradientUnits="userSpaceOnUse">
<stop stop-color="#32A071"/>
<stop offset="0.0685" stop-color="#2DA771"/>
<stop offset="0.4762" stop-color="#15CF74"/>
<stop offset="0.8009" stop-color="#06E775"/>
<stop offset="1" stop-color="#00F076"/>
</linearGradient>
</defs>
</svg>
