<svg width="77" height="77" viewBox="0 0 77 77" fill="none" xmlns="http://www.w3.org/2000/svg">
<path d="M23.0081 61.0786C35.7151 69.3974 52.7599 65.8401 61.0787 53.133C69.3975 40.426 65.8401 23.3813 53.1331 15.0625C40.4261 6.7437 23.3813 10.3011 15.0625 23.0081C6.74374 35.7151 10.3011 52.7599 23.0081 61.0786Z" fill="#1D2749"/>
<path d="M25.9088 56.1146C37.5133 63.7116 53.0793 60.4629 60.6764 48.8583C68.2735 37.2537 65.0247 21.6877 53.4201 14.0907C41.8156 6.49359 26.2496 9.74234 18.6525 21.3469C11.0554 32.9515 14.3042 48.5175 25.9088 56.1146Z" fill="#F68B42" stroke="#1D2749" stroke-width="1.19" stroke-miterlimit="10"/>
<path opacity="0.72" d="M32.4307 11.0484C26.0506 12.9674 20.6941 17.3422 17.5396 23.2106C14.3851 29.0789 13.691 35.96 15.61 42.34C17.5289 48.7201 21.9037 54.0766 27.7721 57.2311C33.6404 60.3856 40.5215 61.0797 46.9016 59.1608L32.4307 11.0484Z" fill="#FCE68D"/>
<path d="M30.4444 49.1866C38.2226 54.2788 48.6562 52.1012 53.7483 44.3229C58.8405 36.5446 56.6629 26.1111 48.8846 21.019C41.1063 15.9268 30.6728 18.1044 25.5806 25.8827C20.4885 33.661 22.6661 44.0945 30.4444 49.1866Z" fill="#1D2749"/>
<path d="M31.5651 45.7522C38.0991 50.0298 46.8636 48.2006 51.1412 41.6665C55.4187 35.1325 53.5895 26.368 47.0555 22.0904C40.5215 17.8129 31.757 19.6421 27.4794 26.1761C23.2018 32.7101 25.031 41.4747 31.5651 45.7522Z" fill="#F4A045" stroke="#1D2749" stroke-width="1.19" stroke-miterlimit="10"/>
<path d="M39.462 43.4341C39.1121 43.3768 38.7971 43.1885 38.5811 42.9074L33.9609 36.706C33.8835 36.6307 33.8273 36.5364 33.798 36.4326C33.7645 36.3654 33.738 36.2949 33.7189 36.2223V36.2223L33.738 36.1931C33.7292 36.1066 33.733 36.0192 33.7494 35.9338C33.7474 35.8826 33.7502 35.8314 33.7578 35.7808C33.7759 35.6564 33.8176 35.5365 33.8806 35.4277C33.8751 35.3701 33.8819 35.312 33.9004 35.2572L33.9425 35.193L33.9883 35.123C34.0247 35.0607 34.0642 35.0003 34.1068 34.942C34.1635 34.8655 34.2307 34.7972 34.3063 34.7391L34.333 34.6983L34.466 34.6353C34.5519 34.5817 34.6456 34.5418 34.7437 34.5168V34.5168L34.9042 34.5136L35.003 34.5282C35.0142 34.532 35.0243 34.5386 35.0322 34.5473L35.1407 34.56L38.1546 34.707C38.7434 34.7492 39.3273 34.5736 39.7951 34.2134C40.1058 33.9792 40.3565 33.6748 40.5268 33.325L35.2725 32.9703C35.0969 32.9582 34.9255 32.9115 34.7681 32.8327C34.6107 32.754 34.4704 32.6449 34.3554 32.5117C34.2377 32.3808 34.1476 32.2276 34.0904 32.0612C34.0331 31.8949 34.01 31.7187 34.0222 31.5431C34.0484 31.1865 34.2147 30.8546 34.4847 30.6202C34.7502 30.3876 35.0972 30.2699 35.4494 30.2928L40.1017 30.6119C39.9868 30.4865 39.8616 30.3711 39.7273 30.2668C39.3525 29.9946 38.9085 29.834 38.4464 29.8034L35.4864 29.625C35.1297 29.5988 34.7979 29.4326 34.5635 29.1625C34.3312 28.8939 34.2145 28.5444 34.2388 28.1902C34.263 27.8359 34.4262 27.5056 34.6928 27.271C34.9637 27.0442 35.3105 26.9286 35.6633 26.9475L44.931 27.5783C45.1071 27.5876 45.2796 27.6325 45.4378 27.7103C45.5961 27.7881 45.737 27.8973 45.8519 28.0311C46.0242 28.2318 46.1336 28.4789 46.1663 28.7414C46.199 29.0039 46.1537 29.2703 46.036 29.5072C45.9182 29.7441 45.7333 29.9411 45.5043 30.0735C45.2753 30.206 45.0123 30.268 44.7482 30.2519L42.9594 30.1314C43.059 30.3633 43.1425 30.6018 43.2091 30.8452L44.6827 30.9761C44.8585 30.9869 45.0304 31.0326 45.1885 31.1103C45.3466 31.188 45.4877 31.2963 45.6036 31.4289C45.8377 31.697 45.9562 32.0469 45.933 32.402C45.9099 32.7572 45.7471 33.0888 45.4802 33.3242C45.2117 33.5586 44.8614 33.677 44.5058 33.6535L43.2532 33.5673C42.9556 34.7337 42.2593 35.7593 41.2848 36.4661C40.3104 37.1729 39.1193 37.5165 37.9181 37.4372L37.8714 37.4066L40.7271 41.3106C40.8323 41.452 40.9084 41.6128 40.951 41.7839C40.9936 41.9549 41.0019 42.1327 40.9753 42.3069C40.9513 42.4816 40.8922 42.6497 40.8017 42.801C40.7112 42.9524 40.5911 43.0839 40.4486 43.1878C40.1913 43.3704 39.8796 43.4603 39.5646 43.4429L39.462 43.4341Z" fill="#1D2749"/>
<path d="M44.235 30.9334L42.3492 30.7828C42.2302 30.1577 41.9828 29.5642 41.6226 29.0397L44.3272 29.2261C44.5504 29.239 44.7698 29.1642 44.9388 29.0178C45.0233 28.9457 45.0923 28.8572 45.1417 28.7577C45.1911 28.6582 45.2198 28.5497 45.2261 28.4388C45.2409 28.2142 45.1676 27.9927 45.0217 27.8213C44.8713 27.6566 44.6648 27.5541 44.4427 27.534L35.1849 26.9264C34.9635 26.9114 34.7452 26.9841 34.5771 27.1289C34.4926 27.201 34.4236 27.2895 34.3742 27.389C34.3248 27.4885 34.2961 27.597 34.2897 27.7079C34.275 27.9324 34.3483 28.1539 34.4942 28.3253C34.6445 28.49 34.8511 28.5925 35.0732 28.6126L38.0157 28.7796C38.5717 28.8197 39.1051 29.0158 39.5548 29.3453C40.0026 29.6765 40.3494 30.1258 40.5563 30.643L34.9422 30.3029C34.719 30.2897 34.4996 30.3649 34.3313 30.5123C34.1631 30.6596 34.0596 30.8672 34.0433 31.0902C34.0301 31.3134 34.1053 31.5328 34.2526 31.7011C34.3999 31.8693 34.6075 31.9728 34.8305 31.9892L40.7295 32.3907C40.5784 33.0827 40.1845 33.6977 39.6191 34.1245C39.0537 34.5512 38.3543 34.7614 37.6473 34.717L34.662 34.5137L34.5401 34.5089C34.4849 34.496 34.428 34.4926 34.3717 34.4987C34.3134 34.51 34.2582 34.5335 34.2097 34.5678L34.0999 34.6209C34.0582 34.6653 34.0245 34.7167 34.0005 34.7727C33.9725 34.8098 33.9469 34.8488 33.9241 34.8894C33.9165 34.94 33.9137 34.9912 33.9157 35.0423C33.8478 35.1215 33.8067 35.22 33.7981 35.3239C33.7915 35.3629 33.7879 35.4024 33.7875 35.442C33.7746 35.4972 33.7711 35.5541 33.7773 35.6104C33.7906 35.6702 33.8161 35.7267 33.8522 35.7762C33.8496 35.7965 33.8526 35.8171 33.861 35.8358C33.8693 35.8545 33.8826 35.8706 33.8995 35.8822L38.5529 42.1221C38.6814 42.3059 38.8758 42.4332 39.0957 42.4774C39.3172 42.5092 39.5424 42.4532 39.7232 42.3213C39.9071 42.1928 40.0343 41.9984 40.0786 41.7785C40.1103 41.5569 40.0543 41.3317 39.9224 41.1509L36.4344 36.366L37.5496 36.4457C38.7058 36.5064 39.8431 36.1332 40.7386 35.3991C41.634 34.6651 42.2231 33.6231 42.3904 32.4774L44.0728 32.5949C44.2961 32.6078 44.5155 32.5331 44.6845 32.3866C44.8009 32.2785 44.8844 32.1397 44.9254 31.9861C44.9665 31.8326 44.9633 31.6706 44.9164 31.5188C44.8694 31.367 44.7806 31.2315 44.66 31.1279C44.5395 31.0244 44.3922 30.957 44.235 30.9334V30.9334Z" fill="#F68B42" stroke="#1D2749" stroke-width="0.6" stroke-miterlimit="10"/>
</svg>
