<svg width="528" height="466" viewBox="0 0 528 466" fill="none" xmlns="http://www.w3.org/2000/svg">
<mask id="mask0_452_381" style="mask-type:alpha" maskUnits="userSpaceOnUse" x="0" y="0" width="528" height="453">
<rect width="528" height="453" transform="matrix(1 0 0 -1 0 453)" fill="#15182C"/>
</mask>
<g mask="url(#mask0_452_381)">
<path d="M109 52H417C441.853 52 462 72.1472 462 97V462H64V97C64 72.1472 84.1472 52 109 52Z" fill="white" stroke="#006640" stroke-width="10"/>
</g>
<path d="M66.57 392.92C64.0452 394.362 61.8622 396.333 60.1706 398.697C58.479 401.062 57.319 403.765 56.77 406.62L55.18 414.91L50.99 407.58C49.5482 405.055 47.5773 402.872 45.2126 401.181C42.8478 399.489 40.1452 398.329 37.29 397.78L29 396.19L36.33 392C38.8548 390.558 41.0378 388.587 42.7294 386.223C44.421 383.858 45.581 381.155 46.13 378.3L47.72 370L51.91 377.34C53.3518 379.865 55.3227 382.048 57.6874 383.739C60.0522 385.431 62.7548 386.591 65.61 387.14L73.91 388.73L66.57 392.92Z" fill="#FFF8E1"/>
<path d="M500.546 152.856C498.69 153.482 496.99 154.503 495.565 155.848C494.14 157.193 493.023 158.831 492.291 160.649L490.191 165.929L488.374 160.542C487.749 158.686 486.729 156.987 485.385 155.562C484.041 154.137 482.405 153.02 480.588 152.287L475.289 150.178L480.678 148.354C482.534 147.73 484.234 146.71 485.659 145.366C487.084 144.022 488.201 142.385 488.932 140.568L491.058 135.292L492.882 140.681C493.507 142.537 494.527 144.236 495.871 145.661C497.215 147.085 498.851 148.203 500.668 148.936L505.943 151.061L500.546 152.856Z" fill="#FFF8E1"/>
<path d="M341.34 45.9C339.865 46.4438 338.525 47.3012 337.413 48.413C336.301 49.5249 335.444 50.8646 334.9 52.34L333.31 56.62L331.73 52.34C331.184 50.8656 330.326 49.5268 329.215 48.4152C328.103 47.3036 326.764 46.4456 325.29 45.9L321 44.31L325.29 42.73C326.764 42.1811 328.102 41.3207 329.214 40.2076C330.325 39.0945 331.183 37.7549 331.73 36.28L333.31 32L334.9 36.28C335.445 37.7559 336.303 39.0964 337.414 40.2097C338.526 41.3231 339.865 42.1828 341.34 42.73L345.63 44.31L341.34 45.9Z" fill="#FFF8E1"/>
<path d="M425.34 399.9C423.865 400.444 422.525 401.301 421.413 402.413C420.301 403.525 419.444 404.865 418.9 406.34L417.31 410.62L415.73 406.34C415.184 404.866 414.326 403.527 413.215 402.415C412.103 401.304 410.764 400.446 409.29 399.9L405 398.31L409.29 396.73C410.764 396.181 412.102 395.321 413.214 394.208C414.325 393.095 415.183 391.755 415.73 390.28L417.31 386L418.9 390.28C419.445 391.756 420.303 393.096 421.414 394.21C422.526 395.323 423.865 396.183 425.34 396.73L429.63 398.31L425.34 399.9Z" fill="#FFF8E1"/>
<path d="M331.078 442.947C353.765 454.981 381.912 446.346 393.947 423.659C405.981 400.972 397.346 372.825 374.659 360.79C351.972 348.756 323.824 357.391 311.79 380.078C299.756 402.765 308.391 430.913 331.078 442.947Z" fill="#1D2749"/>
<path d="M338.531 440.611C359.251 451.602 384.958 443.715 395.949 422.995C406.94 402.275 399.054 376.568 378.333 365.577C357.613 354.586 331.906 362.473 320.915 383.193C309.924 403.913 317.811 429.62 338.531 440.611Z" fill="#F68B42" stroke="#1D2749" stroke-width="1.19" stroke-miterlimit="10"/>
<path opacity="0.72" d="M394.23 380.234C388.167 370.74 378.581 364.045 367.58 361.619C356.58 359.194 345.067 361.238 335.574 367.302C326.08 373.365 319.385 382.952 316.959 393.952C314.534 404.952 316.578 416.465 322.642 425.959L394.23 380.234Z" fill="#FCE68D"/>
<path d="M345.091 428.247C358.982 435.615 376.217 430.328 383.585 416.437C390.954 402.545 385.666 385.311 371.775 377.943C357.884 370.574 340.65 375.862 333.281 389.753C325.913 403.644 331.2 420.878 345.091 428.247Z" fill="#1D2749"/>
<path d="M348.987 423.101C360.653 429.29 375.128 424.849 381.316 413.182C387.505 401.516 383.064 387.041 371.398 380.853C359.731 374.664 345.257 379.105 339.068 390.772C332.88 402.438 337.32 416.913 348.987 423.101Z" fill="#F4A045" stroke="#1D2749" stroke-width="1.19" stroke-miterlimit="10"/>
<path d="M357.38 417.079C356.841 416.897 356.395 416.51 356.139 416.003L350.596 404.989C350.494 404.851 350.433 404.687 350.42 404.516C350.384 404.404 350.363 404.287 350.357 404.169L350.347 404.098L350.375 404.046C350.387 403.907 350.416 403.769 350.46 403.636L350.525 403.405C350.584 403.214 350.679 403.035 350.804 402.879L350.883 402.731L350.949 402.605L351.008 402.494C351.081 402.405 351.165 402.325 351.258 402.256C351.365 402.153 351.486 402.063 351.617 401.991L351.693 401.956L351.908 401.89C352.06 401.831 352.22 401.794 352.383 401.781L352.454 401.772L352.514 401.803L352.768 401.843L352.901 401.914L352.96 401.945L353.116 402.027L357.678 403.157C358.435 403.341 359.231 403.295 359.962 403.023C360.692 402.751 361.325 402.267 361.779 401.632L353.623 399.621C353.074 399.483 352.601 399.134 352.308 398.649C352.163 398.408 352.066 398.142 352.025 397.864C351.983 397.586 351.997 397.303 352.066 397.031C352.201 396.481 352.548 396.007 353.031 395.712C353.509 395.39 354.094 395.271 354.659 395.38L361.875 397.158C361.734 396.931 361.569 396.72 361.384 396.527C360.871 395.992 360.218 395.612 359.498 395.432L354.929 394.299C354.379 394.164 353.904 393.817 353.61 393.333C353.319 392.846 353.23 392.264 353.36 391.711C353.498 391.162 353.848 390.689 354.333 390.396C354.821 390.106 355.402 390.016 355.955 390.147L370.338 393.706C370.61 393.774 370.866 393.896 371.091 394.064C371.316 394.232 371.505 394.443 371.648 394.684C371.791 394.926 371.884 395.193 371.923 395.471C371.961 395.749 371.944 396.032 371.873 396.304C371.806 396.577 371.686 396.834 371.52 397.061C371.354 397.287 371.145 397.479 370.904 397.625C370.664 397.77 370.397 397.867 370.119 397.91C369.842 397.952 369.558 397.94 369.285 397.872L366.501 397.183C366.594 397.576 366.659 397.974 366.694 398.376L369.02 398.946C369.569 399.084 370.042 399.433 370.335 399.919C370.553 400.28 370.659 400.699 370.64 401.121C370.62 401.543 370.476 401.95 370.226 402.29C369.975 402.63 369.629 402.889 369.232 403.032C368.835 403.176 368.404 403.199 367.993 403.098L366.048 402.616C365.256 404.358 363.88 405.768 362.159 406.603C360.438 407.438 358.479 407.645 356.621 407.188L356.524 407.137L359.911 414.095C360.152 414.601 360.186 415.18 360.004 415.71C359.832 416.22 359.476 416.647 359.004 416.907C358.533 417.166 357.981 417.239 357.458 417.111L357.38 417.079Z" fill="#1D2749"/>
<path d="M368.26 398.735L365.371 398.028C365.354 397.013 365.129 396.013 364.711 395.088L368.908 396.118C369.254 396.204 369.62 396.148 369.925 395.964C370.23 395.78 370.449 395.482 370.535 395.136C370.62 394.79 370.564 394.424 370.38 394.119C370.196 393.814 369.898 393.595 369.552 393.509L355.169 389.95C354.995 389.907 354.815 389.898 354.638 389.925C354.461 389.951 354.291 390.013 354.138 390.105C353.834 390.29 353.615 390.588 353.529 390.934C353.444 391.279 353.498 391.644 353.681 391.95C353.865 392.254 354.161 392.473 354.506 392.559L359.087 393.689C359.95 393.907 360.733 394.365 361.346 395.01C361.963 395.649 362.384 396.452 362.558 397.323L353.866 395.179C353.693 395.132 353.513 395.121 353.337 395.147C353.16 395.172 352.991 395.233 352.839 395.327C352.686 395.417 352.553 395.538 352.448 395.681C352.343 395.824 352.267 395.987 352.226 396.159C352.178 396.331 352.167 396.512 352.192 396.688C352.218 396.865 352.28 397.035 352.374 397.186C352.558 397.494 352.856 397.716 353.203 397.806L362.357 400.063C361.931 401.111 361.139 401.969 360.128 402.476C359.122 402.994 357.964 403.134 356.864 402.87L352.25 401.713C352.19 401.69 352.127 401.676 352.063 401.671C351.982 401.635 351.895 401.611 351.806 401.601C351.709 401.609 351.614 401.632 351.524 401.669L351.342 401.725C351.256 401.773 351.176 401.833 351.106 401.903L350.941 402.052C350.913 402.128 350.893 402.207 350.883 402.287C350.757 402.396 350.666 402.538 350.618 402.697C350.595 402.757 350.581 402.82 350.576 402.883C350.536 402.964 350.512 403.051 350.506 403.14C350.517 403.237 350.54 403.332 350.574 403.423C350.568 403.456 350.569 403.489 350.579 403.521C350.589 403.553 350.606 403.581 350.63 403.605L356.215 414.698C356.376 415.014 356.655 415.254 356.99 415.366C357.159 415.43 357.339 415.459 357.519 415.452C357.699 415.444 357.876 415.401 358.039 415.323C358.202 415.245 358.347 415.135 358.466 414.999C358.585 414.864 358.675 414.706 358.731 414.534C358.83 414.203 358.799 413.847 358.643 413.538L354.475 405.084L356.204 405.508C358.001 405.96 359.902 405.722 361.532 404.84C363.162 403.959 364.403 402.5 365.01 400.749L367.62 401.355C367.792 401.4 367.972 401.41 368.148 401.385C368.324 401.359 368.494 401.299 368.647 401.208C368.875 401.07 369.058 400.867 369.171 400.626C369.284 400.384 369.324 400.115 369.284 399.851C369.244 399.587 369.127 399.341 368.947 399.144C368.768 398.947 368.534 398.807 368.275 398.743L368.26 398.735Z" fill="#F68B42" stroke="#1D2749" stroke-width="0.6" stroke-miterlimit="10"/>
<path d="M426.115 147.081C462.629 151.572 495.869 125.612 500.36 89.0976C504.85 52.5836 478.89 19.3429 442.376 14.8524C405.862 10.3619 372.621 36.3221 368.131 72.8361C363.64 109.35 389.601 142.591 426.115 147.081Z" fill="#1D2749"/>
<path d="M427.104 133.183C460.451 137.284 490.808 113.576 494.909 80.2299C499.01 46.8835 475.302 16.5264 441.955 12.4254C408.609 8.32447 378.252 32.0326 374.151 65.379C370.05 98.7255 393.758 129.083 427.104 133.183Z" fill="#F68B42" stroke="#1D2749" stroke-width="1.19" stroke-miterlimit="10"/>
<path opacity="0.72" d="M393.643 28.8664C387.775 34.2569 383.031 40.7548 379.684 47.986C376.336 55.2173 374.453 63.0391 374.14 71.0013C373.828 78.9635 375.094 86.9089 377.864 94.3801C380.635 101.851 384.856 108.701 390.284 114.534C395.712 120.367 402.24 125.07 409.493 128.37C416.746 131.671 424.58 133.504 432.544 133.765C440.508 134.026 448.445 132.709 455.898 129.89C463.351 127.072 470.173 122.807 475.972 117.341L393.643 28.8664Z" fill="#FCE68D"/>
<path d="M429.552 113.278C451.905 116.027 472.255 100.135 475.004 77.782C477.753 55.4288 461.86 35.0795 439.507 32.3305C417.154 29.5815 396.805 45.4738 394.056 67.827C391.307 90.1802 407.199 110.529 429.552 113.278Z" fill="#1D2749"/>
<path d="M428.32 104.62C447.097 106.929 464.19 93.5792 466.5 74.8023C468.809 56.0254 455.459 38.9317 436.682 36.6226C417.905 34.3134 400.812 47.6631 398.502 66.44C396.193 85.2169 409.543 102.311 428.32 104.62Z" fill="#F4A045" stroke="#1D2749" stroke-width="1.19" stroke-miterlimit="10"/>
<path d="M429.247 89.7872C428.521 89.636 427.883 89.2043 427.473 88.5857L418.553 75.1485C418.398 74.9845 418.293 74.7801 418.25 74.5589C418.181 74.4207 418.132 74.2733 418.105 74.1212L418.115 74.0342L418.126 73.9471C418.126 73.7673 418.148 73.5882 418.192 73.4138C418.205 73.305 418.218 73.1962 418.232 73.0873C418.288 72.8346 418.384 72.5927 418.519 72.3714C418.528 72.2952 418.538 72.219 418.546 72.1537L418.567 71.9796L418.663 71.8257C418.753 71.7049 418.851 71.5914 418.959 71.4865C419.08 71.3328 419.223 71.1978 419.384 71.0858L419.468 71.0299L419.748 70.9096C419.937 70.8096 420.139 70.7377 420.349 70.6962L420.425 70.7056L420.523 70.7176C420.633 70.7203 420.742 70.7337 420.849 70.7578L427.477 71.5729C428.698 71.7122 429.929 71.4133 430.95 70.7295C431.626 70.2757 432.182 69.6658 432.572 68.9515L421.689 67.6131C420.953 67.5195 420.283 67.1439 419.818 66.5655C419.365 65.977 419.163 65.2335 419.255 64.4966C419.349 63.7618 419.728 63.0937 420.312 62.6378C420.896 62.1819 421.636 61.9752 422.372 62.0627L432.025 63.2499C431.801 62.9777 431.55 62.7285 431.277 62.5061C430.533 61.8862 429.626 61.4946 428.665 61.3784L422.548 60.6262C421.812 60.5284 421.142 60.149 420.679 59.5677C420.228 58.9781 420.026 58.2355 420.116 57.4988C420.158 57.1339 420.273 56.7811 420.455 56.4618C420.637 56.1424 420.881 55.863 421.173 55.6402C421.758 55.1865 422.497 54.9799 423.232 55.0649L442.473 57.4312C443.208 57.5245 443.876 57.9044 444.332 58.4881C444.788 59.0719 444.995 59.8122 444.907 60.5477C444.812 61.285 444.432 61.9559 443.849 62.4171C443.561 62.6445 443.23 62.8124 442.877 62.9112C442.523 63.0099 442.154 63.0376 441.79 62.9925L438.035 62.5307C438.225 63.0218 438.373 63.5278 438.479 64.0436L441.591 64.4263C441.955 64.4708 442.307 64.5872 442.626 64.7687C442.945 64.9501 443.225 65.1931 443.45 65.4835C443.676 65.773 443.844 66.1044 443.942 66.4587C444.04 66.8129 444.068 67.1832 444.023 67.5481C443.978 67.913 443.862 68.2655 443.68 68.5854C443.499 68.9053 443.257 69.1862 442.966 69.4122C442.678 69.6375 442.347 69.8034 441.994 69.9003C441.641 69.9972 441.272 70.0231 440.909 69.9767L438.308 69.6568C437.548 72.0452 435.978 74.0935 433.869 75.4478C431.76 76.802 429.244 77.3773 426.756 77.0743L426.615 77.0569L432.143 85.4701C432.346 85.7745 432.487 86.1165 432.556 86.476C432.626 86.8355 432.623 87.2053 432.548 87.5637C432.408 88.2538 432.013 88.866 431.443 89.2788C430.872 89.6916 430.167 89.8748 429.468 89.7922L429.247 89.7872Z" fill="#1D2749"/>
<path d="M440.566 64.2443L436.67 63.7651C436.488 62.4513 436.038 61.1889 435.347 60.0562L440.963 60.7468C441.193 60.7766 441.427 60.7604 441.651 60.6991C441.875 60.6378 442.085 60.5326 442.268 60.3896C442.451 60.2467 442.604 60.0688 442.718 59.8663C442.831 59.6639 442.904 59.4408 442.931 59.2101C442.986 58.7454 442.857 58.2773 442.572 57.9066C442.429 57.7239 442.251 57.5712 442.049 57.4573C441.847 57.3433 441.624 57.2704 441.394 57.2425L422.185 54.8802C421.724 54.8255 421.259 54.9549 420.893 55.2405C420.526 55.531 420.287 55.9538 420.229 56.4182C420.199 56.6476 420.215 56.8807 420.276 57.1039C420.336 57.3271 420.441 57.536 420.582 57.7188C420.724 57.9015 420.901 58.0545 421.102 58.1687C421.303 58.283 421.525 58.3563 421.754 58.3846L427.882 59.1381C429.036 59.2822 430.125 59.7505 431.024 60.4887C431.922 61.2269 432.593 62.2047 432.959 63.3087L421.325 61.878C420.98 61.8393 420.632 61.9027 420.324 62.0605C420.015 62.2182 419.76 62.4633 419.59 62.7651C419.42 63.0669 419.342 63.4121 419.367 63.7577C419.391 64.1034 419.517 64.4341 419.728 64.7087C419.867 64.8936 420.042 65.0484 420.242 65.1642C420.443 65.2799 420.664 65.3541 420.894 65.3823L433.137 66.888C432.752 68.3156 431.865 69.5567 430.639 70.3839C429.414 71.211 427.931 71.569 426.463 71.3922L420.249 70.628C420.171 70.6073 420.09 70.5974 420.009 70.5985C419.897 70.5626 419.779 70.548 419.661 70.5557C419.535 70.5785 419.413 70.6234 419.302 70.6883L419.081 70.7826C418.907 70.9304 418.75 71.0962 418.611 71.2772C418.587 71.3808 418.574 71.4866 418.572 71.5928C418.43 71.7514 418.333 71.9458 418.293 72.1551C418.272 72.2369 418.262 72.321 418.262 72.4054C418.227 72.5178 418.212 72.6359 418.22 72.7537C418.246 72.876 418.291 72.9934 418.354 73.1016C418.35 73.1449 418.356 73.1886 418.372 73.229C418.388 73.2694 418.414 73.3054 418.447 73.334L427.432 86.8676C427.693 87.255 428.097 87.5232 428.556 87.6134C428.782 87.6613 429.016 87.6632 429.244 87.619C429.471 87.5749 429.688 87.4856 429.88 87.3564C430.073 87.2295 430.239 87.0658 430.368 86.8746C430.498 86.6834 430.589 86.4685 430.635 86.2422C430.681 86.0159 430.682 85.7827 430.638 85.556C430.594 85.3292 430.506 85.1134 430.378 84.9209L423.639 74.5912L425.946 74.8749C428.345 75.1785 430.771 74.5754 432.749 73.1837C434.726 71.7921 436.113 69.7123 436.638 67.3516L440.131 67.7813C440.362 67.8106 440.597 67.7929 440.821 67.7294C441.045 67.6658 441.254 67.5577 441.436 67.4115C441.708 67.1956 441.911 66.9042 442.018 66.5738C442.125 66.2434 442.133 65.8887 442.04 65.5541C441.946 65.2194 441.756 64.9197 441.493 64.6926C441.231 64.4654 440.907 64.3208 440.562 64.2769L440.566 64.2443Z" fill="#F68B42" stroke="#1D2749" stroke-width="0.6" stroke-miterlimit="10"/>
<path d="M135.656 137.438C135.156 139.917 134.052 141.948 132.344 143.531C130.656 145.115 128.354 146.25 125.438 146.938L137.969 161H127.406L115.875 147.406L117.062 141.281H118.719C121.865 141.281 123.948 140.927 124.969 140.219C126.01 139.49 126.719 138.562 127.094 137.438H115.875V131H127C126.667 130.188 126.198 129.521 125.594 129C125.01 128.479 124.302 128.125 123.469 127.938C122.635 127.729 121.344 127.625 119.594 127.625H115.875V121.188H145V127.625H132.906C133.865 128.375 134.635 129.5 135.219 131H145V137.438H135.656ZM158.74 116.392C159.081 116.264 159.401 116.2 159.7 116.2H165.844C166.057 116.2 166.228 116.285 166.356 116.456C166.527 116.584 166.612 116.755 166.612 116.968V160.232C166.612 160.445 166.527 160.637 166.356 160.808C166.228 160.936 166.057 161 165.844 161H159.956C159.743 161 159.551 160.936 159.38 160.808C159.252 160.637 159.188 160.445 159.188 160.232V123.88C159.188 123.795 159.145 123.731 159.06 123.688C158.975 123.603 158.889 123.581 158.804 123.624L152.404 125.608C152.319 125.651 152.212 125.672 152.084 125.672C151.913 125.672 151.764 125.608 151.636 125.48C151.551 125.352 151.508 125.181 151.508 124.968L151.316 120.744C151.316 120.317 151.487 120.019 151.828 119.848L158.74 116.392ZM189.175 161.704C184.695 161.704 181.132 160.445 178.487 157.928C175.884 155.368 174.583 151.933 174.583 147.624V129.576C174.583 125.309 175.884 121.939 178.487 119.464C181.132 116.947 184.695 115.688 189.175 115.688C193.655 115.688 197.217 116.947 199.863 119.464C202.551 121.939 203.895 125.309 203.895 129.576V147.624C203.895 151.933 202.551 155.368 199.863 157.928C197.217 160.445 193.655 161.704 189.175 161.704ZM189.175 155.24C191.393 155.24 193.164 154.6 194.487 153.32C195.809 151.997 196.471 150.227 196.471 148.008V129.32C196.471 127.101 195.809 125.352 194.487 124.072C193.164 122.749 191.393 122.088 189.175 122.088C186.999 122.088 185.249 122.749 183.927 124.072C182.647 125.352 182.007 127.101 182.007 129.32V148.008C182.007 150.227 182.647 151.997 183.927 153.32C185.249 154.6 186.999 155.24 189.175 155.24ZM225.55 161.704C221.07 161.704 217.507 160.445 214.862 157.928C212.259 155.368 210.958 151.933 210.958 147.624V129.576C210.958 125.309 212.259 121.939 214.862 119.464C217.507 116.947 221.07 115.688 225.55 115.688C230.03 115.688 233.592 116.947 236.238 119.464C238.926 121.939 240.27 125.309 240.27 129.576V147.624C240.27 151.933 238.926 155.368 236.238 157.928C233.592 160.445 230.03 161.704 225.55 161.704ZM225.55 155.24C227.768 155.24 229.539 154.6 230.862 153.32C232.184 151.997 232.846 150.227 232.846 148.008V129.32C232.846 127.101 232.184 125.352 230.862 124.072C229.539 122.749 227.768 122.088 225.55 122.088C223.374 122.088 221.624 122.749 220.302 124.072C219.022 125.352 218.382 127.101 218.382 129.32V148.008C218.382 150.227 219.022 151.997 220.302 153.32C221.624 154.6 223.374 155.24 225.55 155.24Z" fill="#15182C"/>
<path d="M258.69 152.04C258.58 151.695 258.433 151.386 258.247 151.114C258.065 150.837 257.847 150.602 257.594 150.409C257.34 150.212 257.05 150.062 256.724 149.96C256.402 149.858 256.048 149.807 255.662 149.807C255.007 149.807 254.416 149.975 253.889 150.312C253.363 150.65 252.946 151.144 252.639 151.795C252.336 152.443 252.185 153.237 252.185 154.176C252.185 155.119 252.338 155.917 252.645 156.568C252.952 157.22 253.372 157.714 253.906 158.051C254.44 158.388 255.048 158.557 255.73 158.557C256.363 158.557 256.914 158.428 257.383 158.17C257.857 157.913 258.222 157.549 258.48 157.08C258.741 156.606 258.872 156.049 258.872 155.409L259.327 155.494H255.997V154.045H260.571V155.369C260.571 156.347 260.363 157.195 259.946 157.915C259.533 158.631 258.961 159.184 258.23 159.574C257.503 159.964 256.669 160.159 255.73 160.159C254.677 160.159 253.753 159.917 252.957 159.432C252.166 158.947 251.548 158.259 251.105 157.369C250.662 156.475 250.44 155.415 250.44 154.188C250.44 153.259 250.569 152.426 250.827 151.688C251.084 150.949 251.446 150.322 251.912 149.807C252.382 149.288 252.933 148.892 253.565 148.619C254.202 148.343 254.897 148.205 255.65 148.205C256.279 148.205 256.864 148.297 257.406 148.483C257.952 148.669 258.436 148.932 258.861 149.273C259.289 149.614 259.643 150.019 259.923 150.489C260.204 150.955 260.393 151.472 260.491 152.04H258.69ZM265.203 160.193C264.65 160.193 264.15 160.091 263.703 159.886C263.256 159.678 262.902 159.377 262.641 158.983C262.383 158.589 262.254 158.106 262.254 157.534C262.254 157.042 262.349 156.636 262.538 156.318C262.728 156 262.983 155.748 263.305 155.562C263.627 155.377 263.987 155.237 264.385 155.142C264.783 155.047 265.188 154.975 265.601 154.926C266.123 154.866 266.548 154.816 266.873 154.778C267.199 154.737 267.436 154.67 267.584 154.58C267.731 154.489 267.805 154.341 267.805 154.136V154.097C267.805 153.6 267.665 153.216 267.385 152.943C267.108 152.67 266.695 152.534 266.146 152.534C265.574 152.534 265.123 152.661 264.794 152.915C264.468 153.165 264.243 153.443 264.118 153.75L262.521 153.386C262.711 152.856 262.987 152.428 263.351 152.102C263.718 151.773 264.141 151.534 264.618 151.386C265.095 151.235 265.597 151.159 266.123 151.159C266.472 151.159 266.841 151.201 267.231 151.284C267.625 151.364 267.993 151.511 268.334 151.727C268.678 151.943 268.961 152.252 269.18 152.653C269.4 153.051 269.51 153.568 269.51 154.205V160H267.851V158.807H267.783C267.673 159.027 267.508 159.242 267.288 159.455C267.069 159.667 266.786 159.843 266.442 159.983C266.097 160.123 265.684 160.193 265.203 160.193ZM265.572 158.83C266.042 158.83 266.444 158.737 266.777 158.551C267.114 158.366 267.37 158.123 267.544 157.824C267.722 157.521 267.811 157.197 267.811 156.852V155.727C267.75 155.788 267.633 155.845 267.459 155.898C267.288 155.947 267.093 155.991 266.873 156.028C266.654 156.062 266.44 156.095 266.231 156.125C266.023 156.152 265.849 156.174 265.709 156.193C265.379 156.235 265.078 156.305 264.805 156.403C264.536 156.502 264.32 156.644 264.158 156.83C263.998 157.011 263.919 157.254 263.919 157.557C263.919 157.977 264.074 158.295 264.385 158.511C264.695 158.723 265.091 158.83 265.572 158.83ZM271.773 160V151.273H273.403V152.693H273.511C273.693 152.212 273.99 151.837 274.403 151.568C274.816 151.295 275.311 151.159 275.886 151.159C276.47 151.159 276.958 151.295 277.352 151.568C277.75 151.841 278.043 152.216 278.233 152.693H278.324C278.532 152.227 278.864 151.856 279.318 151.58C279.773 151.299 280.314 151.159 280.943 151.159C281.735 151.159 282.381 151.407 282.881 151.903C283.384 152.4 283.636 153.148 283.636 154.148V160H281.937V154.307C281.937 153.716 281.776 153.288 281.454 153.023C281.132 152.758 280.748 152.625 280.301 152.625C279.748 152.625 279.318 152.795 279.011 153.136C278.704 153.473 278.551 153.907 278.551 154.438V160H276.858V154.199C276.858 153.725 276.71 153.345 276.415 153.057C276.119 152.769 275.735 152.625 275.261 152.625C274.939 152.625 274.642 152.71 274.369 152.881C274.1 153.047 273.882 153.28 273.716 153.58C273.553 153.879 273.472 154.225 273.472 154.619V160H271.773ZM289.675 160.176C288.815 160.176 288.074 159.992 287.453 159.625C286.836 159.254 286.358 158.733 286.021 158.062C285.688 157.388 285.521 156.598 285.521 155.693C285.521 154.799 285.688 154.011 286.021 153.33C286.358 152.648 286.828 152.116 287.43 151.733C288.036 151.35 288.745 151.159 289.555 151.159C290.048 151.159 290.525 151.241 290.987 151.403C291.449 151.566 291.864 151.822 292.231 152.17C292.599 152.519 292.889 152.972 293.101 153.528C293.313 154.081 293.419 154.754 293.419 155.545V156.148H286.481V154.875H291.754C291.754 154.428 291.663 154.032 291.481 153.688C291.3 153.339 291.044 153.064 290.714 152.864C290.389 152.663 290.006 152.562 289.567 152.562C289.089 152.562 288.673 152.68 288.317 152.915C287.964 153.146 287.692 153.449 287.498 153.824C287.309 154.195 287.214 154.598 287.214 155.034V156.028C287.214 156.612 287.317 157.108 287.521 157.517C287.73 157.926 288.019 158.239 288.391 158.455C288.762 158.667 289.195 158.773 289.692 158.773C290.014 158.773 290.307 158.727 290.572 158.636C290.838 158.542 291.067 158.402 291.26 158.216C291.453 158.03 291.601 157.801 291.703 157.528L293.311 157.818C293.182 158.292 292.951 158.706 292.618 159.062C292.288 159.415 291.873 159.689 291.373 159.886C290.877 160.08 290.311 160.176 289.675 160.176ZM309.339 152.148H307.567C307.498 151.769 307.372 151.436 307.186 151.148C307 150.86 306.773 150.616 306.504 150.415C306.235 150.214 305.934 150.062 305.601 149.96C305.271 149.858 304.921 149.807 304.55 149.807C303.879 149.807 303.279 149.975 302.748 150.312C302.222 150.65 301.805 151.144 301.498 151.795C301.195 152.447 301.044 153.242 301.044 154.182C301.044 155.129 301.195 155.928 301.498 156.58C301.805 157.231 302.224 157.723 302.754 158.057C303.284 158.39 303.881 158.557 304.544 158.557C304.911 158.557 305.26 158.508 305.589 158.409C305.923 158.307 306.224 158.157 306.493 157.96C306.762 157.763 306.989 157.523 307.175 157.239C307.364 156.951 307.495 156.621 307.567 156.25L309.339 156.256C309.245 156.828 309.061 157.354 308.788 157.835C308.519 158.312 308.173 158.725 307.748 159.074C307.328 159.419 306.847 159.686 306.305 159.875C305.764 160.064 305.173 160.159 304.533 160.159C303.525 160.159 302.627 159.92 301.839 159.443C301.052 158.962 300.43 158.275 299.976 157.381C299.525 156.487 299.3 155.42 299.3 154.182C299.3 152.939 299.527 151.873 299.981 150.983C300.436 150.089 301.057 149.403 301.845 148.926C302.633 148.445 303.529 148.205 304.533 148.205C305.15 148.205 305.726 148.294 306.26 148.472C306.798 148.646 307.281 148.903 307.709 149.244C308.137 149.581 308.491 149.994 308.771 150.483C309.052 150.968 309.241 151.523 309.339 152.148ZM311.304 160V151.273H312.946V152.659H313.037C313.196 152.189 313.476 151.82 313.878 151.551C314.283 151.278 314.741 151.142 315.253 151.142C315.359 151.142 315.484 151.146 315.628 151.153C315.775 151.161 315.891 151.17 315.974 151.182V152.807C315.906 152.788 315.785 152.767 315.611 152.744C315.436 152.718 315.262 152.705 315.088 152.705C314.686 152.705 314.329 152.79 314.014 152.96C313.704 153.127 313.457 153.36 313.275 153.659C313.094 153.955 313.003 154.292 313.003 154.67V160H311.304ZM320.893 160.176C320.034 160.176 319.293 159.992 318.672 159.625C318.054 159.254 317.577 158.733 317.24 158.062C316.907 157.388 316.74 156.598 316.74 155.693C316.74 154.799 316.907 154.011 317.24 153.33C317.577 152.648 318.047 152.116 318.649 151.733C319.255 151.35 319.963 151.159 320.774 151.159C321.266 151.159 321.744 151.241 322.206 151.403C322.668 151.566 323.083 151.822 323.45 152.17C323.818 152.519 324.107 152.972 324.32 153.528C324.532 154.081 324.638 154.754 324.638 155.545V156.148H317.7V154.875H322.973C322.973 154.428 322.882 154.032 322.7 153.688C322.518 153.339 322.263 153.064 321.933 152.864C321.607 152.663 321.225 152.562 320.785 152.562C320.308 152.562 319.891 152.68 319.535 152.915C319.183 153.146 318.91 153.449 318.717 153.824C318.528 154.195 318.433 154.598 318.433 155.034V156.028C318.433 156.612 318.535 157.108 318.74 157.517C318.948 157.926 319.238 158.239 319.609 158.455C319.981 158.667 320.414 158.773 320.91 158.773C321.232 158.773 321.526 158.727 321.791 158.636C322.056 158.542 322.285 158.402 322.479 158.216C322.672 158.03 322.82 157.801 322.922 157.528L324.53 157.818C324.401 158.292 324.17 158.706 323.837 159.062C323.507 159.415 323.092 159.689 322.592 159.886C322.096 160.08 321.53 160.176 320.893 160.176ZM329.79 160.17C329.085 160.17 328.456 159.991 327.903 159.631C327.354 159.267 326.922 158.75 326.608 158.08C326.297 157.405 326.142 156.597 326.142 155.653C326.142 154.71 326.299 153.903 326.614 153.233C326.932 152.562 327.367 152.049 327.92 151.693C328.473 151.337 329.1 151.159 329.801 151.159C330.343 151.159 330.778 151.25 331.108 151.432C331.441 151.61 331.699 151.818 331.881 152.057C332.066 152.295 332.21 152.506 332.312 152.688H332.415V148.364H334.114V160H332.454V158.642H332.312C332.21 158.828 332.062 159.04 331.869 159.278C331.68 159.517 331.418 159.725 331.085 159.903C330.752 160.081 330.32 160.17 329.79 160.17ZM330.165 158.722C330.653 158.722 331.066 158.593 331.403 158.335C331.744 158.074 332.002 157.712 332.176 157.25C332.354 156.788 332.443 156.25 332.443 155.636C332.443 155.03 332.356 154.5 332.182 154.045C332.007 153.591 331.752 153.237 331.415 152.983C331.078 152.729 330.661 152.602 330.165 152.602C329.653 152.602 329.227 152.735 328.886 153C328.545 153.265 328.288 153.627 328.114 154.085C327.943 154.544 327.858 155.061 327.858 155.636C327.858 156.22 327.945 156.744 328.119 157.21C328.293 157.676 328.551 158.045 328.892 158.318C329.237 158.587 329.661 158.722 330.165 158.722ZM336.538 160V151.273H338.237V160H336.538ZM337.396 149.926C337.101 149.926 336.847 149.828 336.635 149.631C336.427 149.43 336.322 149.191 336.322 148.915C336.322 148.634 336.427 148.396 336.635 148.199C336.847 147.998 337.101 147.898 337.396 147.898C337.692 147.898 337.944 147.998 338.152 148.199C338.364 148.396 338.47 148.634 338.47 148.915C338.47 149.191 338.364 149.43 338.152 149.631C337.944 149.828 337.692 149.926 337.396 149.926ZM344.597 151.273V152.636H339.829V151.273H344.597ZM341.108 149.182H342.807V157.438C342.807 157.767 342.856 158.015 342.954 158.182C343.053 158.345 343.18 158.456 343.335 158.517C343.494 158.574 343.667 158.602 343.852 158.602C343.989 158.602 344.108 158.593 344.21 158.574C344.312 158.555 344.392 158.54 344.449 158.528L344.756 159.932C344.657 159.97 344.517 160.008 344.335 160.045C344.153 160.087 343.926 160.11 343.653 160.114C343.206 160.121 342.79 160.042 342.403 159.875C342.017 159.708 341.704 159.451 341.466 159.102C341.227 158.754 341.108 158.316 341.108 157.79V149.182Z" fill="#15182C"/>
<path d="M119.368 220.192C118.216 220.192 117.192 219.968 116.296 219.52C115.416 219.056 114.728 218.408 114.232 217.576C113.752 216.728 113.512 215.76 113.512 214.672V208.528C113.512 207.424 113.752 206.456 114.232 205.624C114.728 204.792 115.416 204.152 116.296 203.704C117.192 203.24 118.216 203.008 119.368 203.008C120.52 203.008 121.536 203.232 122.416 203.68C123.296 204.128 123.976 204.752 124.456 205.552C124.952 206.336 125.2 207.224 125.2 208.216V208.48C125.2 208.64 125.12 208.72 124.96 208.72H123.136C122.976 208.72 122.896 208.64 122.896 208.48V208.264C122.896 207.304 122.568 206.528 121.912 205.936C121.272 205.328 120.424 205.024 119.368 205.024C118.296 205.024 117.432 205.336 116.776 205.96C116.136 206.584 115.816 207.416 115.816 208.456V214.744C115.816 215.784 116.152 216.616 116.824 217.24C117.496 217.864 118.376 218.176 119.464 218.176C120.52 218.176 121.352 217.904 121.96 217.36C122.584 216.8 122.896 216.04 122.896 215.08V213.232C122.896 213.168 122.864 213.136 122.8 213.136H119.56C119.4 213.136 119.32 213.056 119.32 212.896V211.408C119.32 211.248 119.4 211.168 119.56 211.168H124.96C125.12 211.168 125.2 211.248 125.2 211.408V214.456C125.2 216.296 124.672 217.712 123.616 218.704C122.576 219.696 121.16 220.192 119.368 220.192ZM138.263 212.368C138.327 213.024 138.351 213.76 138.335 214.576C138.335 214.736 138.255 214.816 138.095 214.816H130.439C130.375 214.816 130.343 214.848 130.343 214.912C130.343 215.456 130.391 215.872 130.487 216.16C130.663 216.8 131.015 217.304 131.543 217.672C132.087 218.024 132.767 218.2 133.583 218.2C134.767 218.2 135.679 217.712 136.319 216.736C136.399 216.576 136.503 216.552 136.631 216.664L137.999 217.576C138.111 217.672 138.135 217.776 138.071 217.888C137.623 218.608 136.983 219.176 136.151 219.592C135.335 220.008 134.407 220.216 133.367 220.216C132.199 220.216 131.215 219.96 130.415 219.448C129.615 218.936 129.015 218.208 128.615 217.264C128.231 216.32 128.039 215.176 128.039 213.832C128.039 212.664 128.127 211.776 128.303 211.168C128.591 210.064 129.167 209.192 130.031 208.552C130.895 207.912 131.943 207.592 133.175 207.592C134.791 207.592 135.999 208 136.799 208.816C137.599 209.616 138.087 210.8 138.263 212.368ZM133.175 209.584C132.487 209.584 131.919 209.76 131.471 210.112C131.023 210.448 130.719 210.904 130.559 211.48C130.447 211.832 130.375 212.28 130.343 212.824C130.343 212.888 130.375 212.92 130.439 212.92H135.935C135.999 212.92 136.031 212.888 136.031 212.824C135.999 212.296 135.951 211.904 135.887 211.648C135.727 211.024 135.407 210.528 134.927 210.16C134.463 209.776 133.879 209.584 133.175 209.584ZM147.079 209.44C147.079 209.6 146.999 209.68 146.839 209.68H144.247C144.183 209.68 144.151 209.712 144.151 209.776V216.136C144.151 216.808 144.303 217.296 144.607 217.6C144.911 217.888 145.383 218.032 146.023 218.032H146.719C146.879 218.032 146.959 218.112 146.959 218.272V219.76C146.959 219.92 146.879 220 146.719 220C146.207 220.032 145.839 220.048 145.615 220.048C144.399 220.048 143.479 219.832 142.855 219.4C142.247 218.952 141.943 218.136 141.943 216.952V209.776C141.943 209.712 141.911 209.68 141.847 209.68H140.383C140.223 209.68 140.143 209.6 140.143 209.44V208.024C140.143 207.864 140.223 207.784 140.383 207.784H141.847C141.911 207.784 141.943 207.752 141.943 207.688V204.856C141.943 204.696 142.023 204.616 142.183 204.616H143.911C144.071 204.616 144.151 204.696 144.151 204.856V207.688C144.151 207.752 144.183 207.784 144.247 207.784H146.839C146.999 207.784 147.079 207.864 147.079 208.024V209.44ZM161.453 210.344C161.344 211.359 160.949 212.18 160.27 212.805C159.59 213.43 158.57 213.844 157.211 214.047L162.285 220H159.824L154.762 214.082L154.996 212.371H156.074C156.457 212.371 156.793 212.355 157.082 212.324C157.371 212.293 157.621 212.25 157.832 212.195C158.051 212.133 158.238 212.059 158.395 211.973C158.551 211.879 158.695 211.773 158.828 211.656C159.172 211.328 159.395 210.891 159.496 210.344H154.762V208.633H159.473C159.41 208.328 159.309 208.07 159.168 207.859C159.035 207.641 158.859 207.445 158.641 207.273C158.422 207.102 158.133 206.977 157.773 206.898C157.422 206.82 156.949 206.781 156.355 206.781H154.762V205.07H164.887V206.781H160.387C160.66 206.977 160.887 207.234 161.066 207.555C161.246 207.875 161.371 208.234 161.441 208.633H164.887V210.344H161.453ZM170.338 203.272C170.434 203.224 170.538 203.2 170.65 203.2H172.546C172.706 203.2 172.786 203.28 172.786 203.44V219.76C172.786 219.92 172.706 220 172.546 220H170.722C170.562 220 170.482 219.92 170.482 219.76V205.672C170.482 205.64 170.466 205.616 170.434 205.6C170.418 205.584 170.394 205.584 170.362 205.6L167.842 206.464C167.81 206.48 167.77 206.488 167.722 206.488C167.626 206.488 167.57 206.424 167.554 206.296L167.458 204.928C167.458 204.768 167.506 204.672 167.602 204.64L170.338 203.272ZM181.463 220.24C179.847 220.24 178.559 219.784 177.599 218.872C176.655 217.944 176.183 216.704 176.183 215.152V208.048C176.183 206.496 176.655 205.264 177.599 204.352C178.559 203.44 179.847 202.984 181.463 202.984C183.079 202.984 184.367 203.44 185.327 204.352C186.303 205.264 186.791 206.496 186.791 208.048V215.152C186.791 216.704 186.303 217.944 185.327 218.872C184.367 219.784 183.079 220.24 181.463 220.24ZM181.463 218.248C182.391 218.248 183.127 217.984 183.671 217.456C184.215 216.912 184.487 216.192 184.487 215.296V207.952C184.487 207.056 184.215 206.344 183.671 205.816C183.127 205.272 182.391 205 181.463 205C180.567 205 179.847 205.272 179.303 205.816C178.759 206.344 178.487 207.056 178.487 207.952V215.296C178.487 216.192 178.759 216.912 179.303 217.456C179.847 217.984 180.567 218.248 181.463 218.248ZM195.057 220.24C193.441 220.24 192.153 219.784 191.193 218.872C190.249 217.944 189.777 216.704 189.777 215.152V208.048C189.777 206.496 190.249 205.264 191.193 204.352C192.153 203.44 193.441 202.984 195.057 202.984C196.673 202.984 197.961 203.44 198.921 204.352C199.897 205.264 200.385 206.496 200.385 208.048V215.152C200.385 216.704 199.897 217.944 198.921 218.872C197.961 219.784 196.673 220.24 195.057 220.24ZM195.057 218.248C195.985 218.248 196.721 217.984 197.265 217.456C197.809 216.912 198.081 216.192 198.081 215.296V207.952C198.081 207.056 197.809 206.344 197.265 205.816C196.721 205.272 195.985 205 195.057 205C194.161 205 193.441 205.272 192.897 205.816C192.353 206.344 192.081 207.056 192.081 207.952V215.296C192.081 216.192 192.353 216.912 192.897 217.456C193.441 217.984 194.161 218.248 195.057 218.248ZM211.08 220C210.952 220 210.864 219.936 210.816 219.808L207.36 208.048L207.336 207.976C207.336 207.848 207.416 207.784 207.576 207.784H209.448C209.592 207.784 209.68 207.856 209.712 208L211.992 216.712C212.008 216.744 212.024 216.76 212.04 216.76C212.072 216.76 212.096 216.744 212.112 216.712L214.44 208C214.472 207.856 214.56 207.784 214.704 207.784H216.36C216.504 207.784 216.592 207.856 216.624 208L219 216.688C219.016 216.72 219.032 216.736 219.048 216.736C219.08 216.736 219.104 216.72 219.12 216.688L221.496 208C221.528 207.856 221.616 207.784 221.76 207.784L223.608 207.808C223.688 207.808 223.744 207.832 223.776 207.88C223.824 207.928 223.84 207.992 223.824 208.072L220.344 219.808C220.296 219.936 220.208 220 220.08 220H218.208C218.08 220 217.992 219.936 217.944 219.808L215.592 211.696C215.576 211.664 215.552 211.648 215.52 211.648C215.504 211.648 215.488 211.664 215.472 211.696L213.24 219.784C213.208 219.928 213.12 220 212.976 220H211.08ZM231.651 207.616C232.963 207.616 234.003 208 234.771 208.768C235.539 209.52 235.923 210.544 235.923 211.84V219.76C235.923 219.92 235.843 220 235.683 220H233.859C233.699 220 233.619 219.92 233.619 219.76V212.296C233.619 211.496 233.387 210.848 232.923 210.352C232.459 209.856 231.843 209.608 231.075 209.608C230.323 209.608 229.707 209.856 229.227 210.352C228.747 210.848 228.507 211.488 228.507 212.272V219.76C228.507 219.92 228.427 220 228.267 220H226.443C226.283 220 226.203 219.92 226.203 219.76V203.44C226.203 203.28 226.283 203.2 226.443 203.2H228.267C228.427 203.2 228.507 203.28 228.507 203.44V208.888C228.507 208.92 228.515 208.944 228.531 208.96C228.563 208.976 228.587 208.968 228.603 208.936C229.291 208.056 230.307 207.616 231.651 207.616ZM248.959 212.368C249.023 213.024 249.047 213.76 249.031 214.576C249.031 214.736 248.951 214.816 248.791 214.816H241.135C241.071 214.816 241.039 214.848 241.039 214.912C241.039 215.456 241.087 215.872 241.183 216.16C241.359 216.8 241.711 217.304 242.239 217.672C242.783 218.024 243.463 218.2 244.279 218.2C245.463 218.2 246.375 217.712 247.015 216.736C247.095 216.576 247.199 216.552 247.327 216.664L248.695 217.576C248.807 217.672 248.831 217.776 248.767 217.888C248.319 218.608 247.679 219.176 246.847 219.592C246.031 220.008 245.103 220.216 244.063 220.216C242.895 220.216 241.911 219.96 241.111 219.448C240.311 218.936 239.711 218.208 239.311 217.264C238.927 216.32 238.735 215.176 238.735 213.832C238.735 212.664 238.823 211.776 238.999 211.168C239.287 210.064 239.863 209.192 240.727 208.552C241.591 207.912 242.639 207.592 243.871 207.592C245.487 207.592 246.695 208 247.495 208.816C248.295 209.616 248.783 210.8 248.959 212.368ZM243.871 209.584C243.183 209.584 242.615 209.76 242.167 210.112C241.719 210.448 241.415 210.904 241.255 211.48C241.143 211.832 241.071 212.28 241.039 212.824C241.039 212.888 241.071 212.92 241.135 212.92H246.631C246.695 212.92 246.727 212.888 246.727 212.824C246.695 212.296 246.647 211.904 246.583 211.648C246.423 211.024 246.103 210.528 245.623 210.16C245.159 209.776 244.575 209.584 243.871 209.584ZM257.386 207.616C258.698 207.616 259.738 208 260.506 208.768C261.274 209.52 261.658 210.544 261.658 211.84V219.76C261.658 219.92 261.578 220 261.418 220H259.594C259.434 220 259.354 219.92 259.354 219.76V212.296C259.354 211.496 259.122 210.848 258.658 210.352C258.194 209.856 257.578 209.608 256.81 209.608C256.058 209.608 255.442 209.856 254.962 210.352C254.482 210.848 254.242 211.488 254.242 212.272V219.76C254.242 219.92 254.162 220 254.002 220H252.178C252.018 220 251.938 219.92 251.938 219.76V208.024C251.938 207.864 252.018 207.784 252.178 207.784H254.002C254.162 207.784 254.242 207.864 254.242 208.024V208.888C254.242 208.92 254.25 208.944 254.266 208.96C254.298 208.976 254.322 208.968 254.338 208.936C255.026 208.056 256.042 207.616 257.386 207.616ZM269.39 224.776C269.278 224.776 269.222 224.696 269.222 224.536V223.12C269.222 222.96 269.302 222.88 269.462 222.88H269.51C270.15 222.864 270.654 222.784 271.022 222.64C271.39 222.496 271.694 222.224 271.934 221.824C272.174 221.44 272.406 220.856 272.63 220.072C272.646 220.056 272.646 220.032 272.63 220C272.63 219.952 272.63 219.928 272.63 219.928L268.622 208.048L268.598 207.952C268.598 207.84 268.67 207.784 268.814 207.784H270.758C270.902 207.784 270.998 207.848 271.046 207.976L273.758 217.024C273.774 217.056 273.798 217.072 273.83 217.072C273.862 217.072 273.886 217.056 273.902 217.024L276.59 207.976C276.638 207.848 276.734 207.784 276.878 207.784H278.774C278.95 207.784 279.014 207.872 278.966 208.048L274.598 220.84C274.23 221.944 273.862 222.76 273.494 223.288C273.126 223.832 272.646 224.216 272.054 224.44C271.462 224.664 270.63 224.776 269.558 224.776H269.39ZM285.617 220.192C284.433 220.192 283.401 219.896 282.521 219.304C281.641 218.696 281.025 217.856 280.673 216.784C280.385 215.92 280.241 214.944 280.241 213.856C280.241 212.72 280.377 211.76 280.649 210.976C281.001 209.92 281.617 209.096 282.497 208.504C283.377 207.896 284.425 207.592 285.641 207.592C286.793 207.592 287.793 207.896 288.641 208.504C289.505 209.096 290.121 209.912 290.489 210.952C290.777 211.768 290.921 212.728 290.921 213.832C290.921 214.952 290.777 215.936 290.489 216.784C290.137 217.856 289.529 218.696 288.665 219.304C287.801 219.896 286.785 220.192 285.617 220.192ZM285.617 218.2C286.257 218.2 286.817 218.024 287.297 217.672C287.777 217.304 288.121 216.792 288.329 216.136C288.505 215.528 288.593 214.776 288.593 213.88C288.593 212.984 288.513 212.24 288.353 211.648C288.145 210.992 287.801 210.488 287.321 210.136C286.841 209.768 286.257 209.584 285.569 209.584C284.913 209.584 284.345 209.768 283.865 210.136C283.385 210.488 283.041 210.992 282.833 211.648C282.657 212.208 282.569 212.952 282.569 213.88C282.569 214.808 282.657 215.56 282.833 216.136C283.025 216.792 283.361 217.304 283.841 217.672C284.337 218.024 284.929 218.2 285.617 218.2ZM301.21 208.024C301.21 207.864 301.29 207.784 301.45 207.784H303.25C303.41 207.784 303.49 207.864 303.49 208.024V219.76C303.49 219.92 303.41 220 303.25 220H301.45C301.29 220 301.21 219.92 301.21 219.76V218.872C301.21 218.84 301.194 218.824 301.162 218.824C301.146 218.808 301.122 218.816 301.09 218.848C300.45 219.728 299.466 220.168 298.138 220.168C297.354 220.168 296.626 220.016 295.954 219.712C295.298 219.408 294.77 218.96 294.37 218.368C293.97 217.776 293.77 217.056 293.77 216.208V208.024C293.77 207.864 293.85 207.784 294.01 207.784H295.81C295.97 207.784 296.05 207.864 296.05 208.024V215.488C296.05 216.32 296.266 216.976 296.698 217.456C297.146 217.936 297.77 218.176 298.57 218.176C299.37 218.176 300.01 217.936 300.49 217.456C300.97 216.96 301.21 216.304 301.21 215.488V208.024ZM315.953 220.144C314.993 220.144 314.145 220 313.409 219.712C312.689 219.424 312.129 219.032 311.729 218.536C311.329 218.024 311.129 217.464 311.129 216.856V216.592C311.129 216.432 311.209 216.352 311.369 216.352H313.097C313.257 216.352 313.337 216.432 313.337 216.592V216.712C313.337 217.16 313.577 217.552 314.057 217.888C314.553 218.224 315.177 218.392 315.929 218.392C316.649 218.392 317.233 218.24 317.681 217.936C318.129 217.616 318.353 217.216 318.353 216.736C318.353 216.272 318.145 215.928 317.729 215.704C317.313 215.464 316.641 215.216 315.713 214.96C314.801 214.704 314.033 214.448 313.409 214.192C312.801 213.92 312.281 213.544 311.849 213.064C311.433 212.568 311.225 211.936 311.225 211.168C311.225 210.096 311.641 209.248 312.473 208.624C313.321 207.984 314.441 207.664 315.833 207.664C316.761 207.664 317.577 207.816 318.281 208.12C319.001 208.408 319.553 208.816 319.937 209.344C320.321 209.872 320.513 210.464 320.513 211.12V211.192C320.513 211.352 320.433 211.432 320.273 211.432H318.593C318.433 211.432 318.353 211.352 318.353 211.192V211.12C318.353 210.656 318.121 210.272 317.657 209.968C317.209 209.648 316.593 209.488 315.809 209.488C315.105 209.488 314.529 209.624 314.081 209.896C313.649 210.168 313.433 210.536 313.433 211C313.433 211.464 313.641 211.816 314.057 212.056C314.489 212.296 315.177 212.552 316.121 212.824C317.049 213.08 317.817 213.336 318.425 213.592C319.049 213.832 319.577 214.2 320.009 214.696C320.441 215.176 320.657 215.808 320.657 216.592C320.657 217.68 320.225 218.544 319.361 219.184C318.513 219.824 317.377 220.144 315.953 220.144ZM324.744 205.864C324.296 205.864 323.928 205.72 323.64 205.432C323.352 205.144 323.208 204.776 323.208 204.328C323.208 203.88 323.352 203.512 323.64 203.224C323.928 202.936 324.296 202.792 324.744 202.792C325.192 202.792 325.56 202.936 325.848 203.224C326.136 203.512 326.28 203.88 326.28 204.328C326.28 204.776 326.136 205.144 325.848 205.432C325.56 205.72 325.192 205.864 324.744 205.864ZM323.784 219.976C323.624 219.976 323.544 219.896 323.544 219.736V208.024C323.544 207.864 323.624 207.784 323.784 207.784H325.608C325.768 207.784 325.848 207.864 325.848 208.024V219.736C325.848 219.896 325.768 219.976 325.608 219.976H323.784ZM336.981 208.024C336.981 207.864 337.061 207.784 337.221 207.784H339.045C339.205 207.784 339.285 207.864 339.285 208.024V219.376C339.285 221.312 338.733 222.696 337.629 223.528C336.541 224.36 335.077 224.776 333.237 224.776C332.981 224.776 332.581 224.76 332.037 224.728C331.877 224.712 331.797 224.624 331.797 224.464L331.869 222.808C331.869 222.744 331.893 222.688 331.941 222.64C331.989 222.592 332.053 222.576 332.133 222.592C332.357 222.608 332.685 222.616 333.117 222.616C334.477 222.616 335.461 222.36 336.069 221.848C336.677 221.352 336.981 220.504 336.981 219.304V218.872C336.981 218.84 336.965 218.816 336.933 218.8C336.917 218.784 336.893 218.792 336.861 218.824C336.189 219.608 335.205 220 333.909 220C332.869 220 331.925 219.728 331.077 219.184C330.245 218.64 329.669 217.84 329.349 216.784C329.141 216.08 329.037 215.104 329.037 213.856C329.037 212.528 329.157 211.504 329.397 210.784C329.701 209.824 330.237 209.056 331.005 208.48C331.789 207.888 332.709 207.592 333.765 207.592C335.077 207.592 336.109 207.992 336.861 208.792C336.893 208.824 336.917 208.84 336.933 208.84C336.965 208.824 336.981 208.8 336.981 208.768V208.024ZM336.837 216.088C336.885 215.832 336.917 215.56 336.933 215.272C336.965 214.984 336.981 214.504 336.981 213.832C336.981 213.16 336.965 212.688 336.933 212.416C336.917 212.128 336.877 211.856 336.813 211.6C336.685 211.008 336.397 210.528 335.949 210.16C335.501 209.776 334.941 209.584 334.269 209.584C333.597 209.584 333.037 209.776 332.589 210.16C332.141 210.528 331.821 211.008 331.629 211.6C331.453 212.08 331.365 212.824 331.365 213.832C331.365 214.936 331.445 215.688 331.605 216.088C331.765 216.68 332.077 217.168 332.541 217.552C333.021 217.92 333.597 218.104 334.269 218.104C334.973 218.104 335.541 217.92 335.973 217.552C336.421 217.168 336.709 216.68 336.837 216.088ZM347.948 207.616C349.26 207.616 350.3 208 351.068 208.768C351.836 209.52 352.22 210.544 352.22 211.84V219.76C352.22 219.92 352.14 220 351.98 220H350.156C349.996 220 349.916 219.92 349.916 219.76V212.296C349.916 211.496 349.684 210.848 349.22 210.352C348.756 209.856 348.14 209.608 347.372 209.608C346.62 209.608 346.004 209.856 345.524 210.352C345.044 210.848 344.804 211.488 344.804 212.272V219.76C344.804 219.92 344.724 220 344.564 220H342.74C342.58 220 342.5 219.92 342.5 219.76V208.024C342.5 207.864 342.58 207.784 342.74 207.784H344.564C344.724 207.784 344.804 207.864 344.804 208.024V208.888C344.804 208.92 344.812 208.944 344.828 208.96C344.86 208.976 344.884 208.968 344.9 208.936C345.588 208.056 346.604 207.616 347.948 207.616ZM367.585 208.024C367.585 207.864 367.665 207.784 367.825 207.784H369.625C369.785 207.784 369.865 207.864 369.865 208.024V219.76C369.865 219.92 369.785 220 369.625 220H367.825C367.665 220 367.585 219.92 367.585 219.76V218.872C367.585 218.84 367.569 218.824 367.537 218.824C367.521 218.808 367.497 218.816 367.465 218.848C366.825 219.728 365.841 220.168 364.513 220.168C363.729 220.168 363.001 220.016 362.329 219.712C361.673 219.408 361.145 218.96 360.745 218.368C360.345 217.776 360.145 217.056 360.145 216.208V208.024C360.145 207.864 360.225 207.784 360.385 207.784H362.185C362.345 207.784 362.425 207.864 362.425 208.024V215.488C362.425 216.32 362.641 216.976 363.073 217.456C363.521 217.936 364.145 218.176 364.945 218.176C365.745 218.176 366.385 217.936 366.865 217.456C367.345 216.96 367.585 216.304 367.585 215.488V208.024ZM383.139 210.856C383.443 211.72 383.595 212.744 383.595 213.928C383.595 215.048 383.467 216.016 383.211 216.832C382.875 217.904 382.323 218.736 381.555 219.328C380.787 219.904 379.803 220.192 378.603 220.192C378.059 220.192 377.539 220.088 377.043 219.88C376.563 219.656 376.147 219.344 375.795 218.944C375.763 218.912 375.731 218.904 375.699 218.92C375.683 218.936 375.675 218.96 375.675 218.992V224.344C375.675 224.504 375.595 224.584 375.435 224.584H373.611C373.451 224.584 373.371 224.504 373.371 224.344V208.024C373.371 207.864 373.451 207.784 373.611 207.784H375.435C375.595 207.784 375.675 207.864 375.675 208.024V208.816C375.675 208.848 375.683 208.872 375.699 208.888C375.731 208.904 375.763 208.896 375.795 208.864C376.147 208.464 376.563 208.152 377.043 207.928C377.523 207.704 378.043 207.592 378.603 207.592C379.755 207.592 380.707 207.88 381.459 208.456C382.227 209.016 382.787 209.816 383.139 210.856ZM380.499 217.048C381.011 216.28 381.267 215.224 381.267 213.88C381.267 212.648 381.067 211.656 380.667 210.904C380.203 210.024 379.443 209.584 378.387 209.584C377.459 209.584 376.755 210.016 376.275 210.88C375.891 211.568 375.699 212.576 375.699 213.904C375.699 215.248 375.907 216.272 376.323 216.976C376.787 217.792 377.467 218.2 378.363 218.2C379.323 218.2 380.035 217.816 380.499 217.048Z" fill="#15182C"/>
<path d="M119.368 271.192C118.216 271.192 117.192 270.968 116.296 270.52C115.416 270.056 114.728 269.408 114.232 268.576C113.752 267.728 113.512 266.76 113.512 265.672V259.528C113.512 258.424 113.752 257.456 114.232 256.624C114.728 255.792 115.416 255.152 116.296 254.704C117.192 254.24 118.216 254.008 119.368 254.008C120.52 254.008 121.536 254.232 122.416 254.68C123.296 255.128 123.976 255.752 124.456 256.552C124.952 257.336 125.2 258.224 125.2 259.216V259.48C125.2 259.64 125.12 259.72 124.96 259.72H123.136C122.976 259.72 122.896 259.64 122.896 259.48V259.264C122.896 258.304 122.568 257.528 121.912 256.936C121.272 256.328 120.424 256.024 119.368 256.024C118.296 256.024 117.432 256.336 116.776 256.96C116.136 257.584 115.816 258.416 115.816 259.456V265.744C115.816 266.784 116.152 267.616 116.824 268.24C117.496 268.864 118.376 269.176 119.464 269.176C120.52 269.176 121.352 268.904 121.96 268.36C122.584 267.8 122.896 267.04 122.896 266.08V264.232C122.896 264.168 122.864 264.136 122.8 264.136H119.56C119.4 264.136 119.32 264.056 119.32 263.896V262.408C119.32 262.248 119.4 262.168 119.56 262.168H124.96C125.12 262.168 125.2 262.248 125.2 262.408V265.456C125.2 267.296 124.672 268.712 123.616 269.704C122.576 270.696 121.16 271.192 119.368 271.192ZM138.263 263.368C138.327 264.024 138.351 264.76 138.335 265.576C138.335 265.736 138.255 265.816 138.095 265.816H130.439C130.375 265.816 130.343 265.848 130.343 265.912C130.343 266.456 130.391 266.872 130.487 267.16C130.663 267.8 131.015 268.304 131.543 268.672C132.087 269.024 132.767 269.2 133.583 269.2C134.767 269.2 135.679 268.712 136.319 267.736C136.399 267.576 136.503 267.552 136.631 267.664L137.999 268.576C138.111 268.672 138.135 268.776 138.071 268.888C137.623 269.608 136.983 270.176 136.151 270.592C135.335 271.008 134.407 271.216 133.367 271.216C132.199 271.216 131.215 270.96 130.415 270.448C129.615 269.936 129.015 269.208 128.615 268.264C128.231 267.32 128.039 266.176 128.039 264.832C128.039 263.664 128.127 262.776 128.303 262.168C128.591 261.064 129.167 260.192 130.031 259.552C130.895 258.912 131.943 258.592 133.175 258.592C134.791 258.592 135.999 259 136.799 259.816C137.599 260.616 138.087 261.8 138.263 263.368ZM133.175 260.584C132.487 260.584 131.919 260.76 131.471 261.112C131.023 261.448 130.719 261.904 130.559 262.48C130.447 262.832 130.375 263.28 130.343 263.824C130.343 263.888 130.375 263.92 130.439 263.92H135.935C135.999 263.92 136.031 263.888 136.031 263.824C135.999 263.296 135.951 262.904 135.887 262.648C135.727 262.024 135.407 261.528 134.927 261.16C134.463 260.776 133.879 260.584 133.175 260.584ZM147.079 260.44C147.079 260.6 146.999 260.68 146.839 260.68H144.247C144.183 260.68 144.151 260.712 144.151 260.776V267.136C144.151 267.808 144.303 268.296 144.607 268.6C144.911 268.888 145.383 269.032 146.023 269.032H146.719C146.879 269.032 146.959 269.112 146.959 269.272V270.76C146.959 270.92 146.879 271 146.719 271C146.207 271.032 145.839 271.048 145.615 271.048C144.399 271.048 143.479 270.832 142.855 270.4C142.247 269.952 141.943 269.136 141.943 267.952V260.776C141.943 260.712 141.911 260.68 141.847 260.68H140.383C140.223 260.68 140.143 260.6 140.143 260.44V259.024C140.143 258.864 140.223 258.784 140.383 258.784H141.847C141.911 258.784 141.943 258.752 141.943 258.688V255.856C141.943 255.696 142.023 255.616 142.183 255.616H143.911C144.071 255.616 144.151 255.696 144.151 255.856V258.688C144.151 258.752 144.183 258.784 144.247 258.784H146.839C146.999 258.784 147.079 258.864 147.079 259.024V260.44ZM161.453 261.344C161.344 262.359 160.949 263.18 160.27 263.805C159.59 264.43 158.57 264.844 157.211 265.047L162.285 271H159.824L154.762 265.082L154.996 263.371H156.074C156.457 263.371 156.793 263.355 157.082 263.324C157.371 263.293 157.621 263.25 157.832 263.195C158.051 263.133 158.238 263.059 158.395 262.973C158.551 262.879 158.695 262.773 158.828 262.656C159.172 262.328 159.395 261.891 159.496 261.344H154.762V259.633H159.473C159.41 259.328 159.309 259.07 159.168 258.859C159.035 258.641 158.859 258.445 158.641 258.273C158.422 258.102 158.133 257.977 157.773 257.898C157.422 257.82 156.949 257.781 156.355 257.781H154.762V256.07H164.887V257.781H160.387C160.66 257.977 160.887 258.234 161.066 258.555C161.246 258.875 161.371 259.234 161.441 259.633H164.887V261.344H161.453ZM170.338 254.272C170.434 254.224 170.538 254.2 170.65 254.2H172.546C172.706 254.2 172.786 254.28 172.786 254.44V270.76C172.786 270.92 172.706 271 172.546 271H170.722C170.562 271 170.482 270.92 170.482 270.76V256.672C170.482 256.64 170.466 256.616 170.434 256.6C170.418 256.584 170.394 256.584 170.362 256.6L167.842 257.464C167.81 257.48 167.77 257.488 167.722 257.488C167.626 257.488 167.57 257.424 167.554 257.296L167.458 255.928C167.458 255.768 167.506 255.672 167.602 255.64L170.338 254.272ZM181.463 271.24C179.847 271.24 178.559 270.784 177.599 269.872C176.655 268.944 176.183 267.704 176.183 266.152V259.048C176.183 257.496 176.655 256.264 177.599 255.352C178.559 254.44 179.847 253.984 181.463 253.984C183.079 253.984 184.367 254.44 185.327 255.352C186.303 256.264 186.791 257.496 186.791 259.048V266.152C186.791 267.704 186.303 268.944 185.327 269.872C184.367 270.784 183.079 271.24 181.463 271.24ZM181.463 269.248C182.391 269.248 183.127 268.984 183.671 268.456C184.215 267.912 184.487 267.192 184.487 266.296V258.952C184.487 258.056 184.215 257.344 183.671 256.816C183.127 256.272 182.391 256 181.463 256C180.567 256 179.847 256.272 179.303 256.816C178.759 257.344 178.487 258.056 178.487 258.952V266.296C178.487 267.192 178.759 267.912 179.303 268.456C179.847 268.984 180.567 269.248 181.463 269.248ZM195.057 271.24C193.441 271.24 192.153 270.784 191.193 269.872C190.249 268.944 189.777 267.704 189.777 266.152V259.048C189.777 257.496 190.249 256.264 191.193 255.352C192.153 254.44 193.441 253.984 195.057 253.984C196.673 253.984 197.961 254.44 198.921 255.352C199.897 256.264 200.385 257.496 200.385 259.048V266.152C200.385 267.704 199.897 268.944 198.921 269.872C197.961 270.784 196.673 271.24 195.057 271.24ZM195.057 269.248C195.985 269.248 196.721 268.984 197.265 268.456C197.809 267.912 198.081 267.192 198.081 266.296V258.952C198.081 258.056 197.809 257.344 197.265 256.816C196.721 256.272 195.985 256 195.057 256C194.161 256 193.441 256.272 192.897 256.816C192.353 257.344 192.081 258.056 192.081 258.952V266.296C192.081 267.192 192.353 267.912 192.897 268.456C193.441 268.984 194.161 269.248 195.057 269.248ZM213.743 256.216C212.944 256.216 212.4 256.368 212.112 256.672C211.824 256.976 211.68 257.552 211.68 258.4V258.688C211.68 258.752 211.712 258.784 211.776 258.784H214.296C214.456 258.784 214.536 258.864 214.536 259.024V260.656C214.536 260.816 214.456 260.896 214.296 260.896H211.776C211.712 260.896 211.68 260.928 211.68 260.992V270.76C211.68 270.92 211.6 271 211.44 271H209.616C209.456 271 209.376 270.92 209.376 270.76V260.992C209.376 260.928 209.344 260.896 209.28 260.896H207.672C207.512 260.896 207.432 260.816 207.432 260.656V259.024C207.432 258.864 207.512 258.784 207.672 258.784H209.28C209.344 258.784 209.376 258.752 209.376 258.688V258.256C209.376 257.2 209.496 256.384 209.736 255.808C209.992 255.232 210.416 254.824 211.008 254.584C211.6 254.328 212.432 254.2 213.504 254.2H214.32C214.48 254.2 214.56 254.28 214.56 254.44V255.976C214.56 256.136 214.48 256.216 214.32 256.216H213.743ZM221.188 271.192C220.004 271.192 218.972 270.896 218.092 270.304C217.212 269.696 216.596 268.856 216.244 267.784C215.956 266.92 215.812 265.944 215.812 264.856C215.812 263.72 215.948 262.76 216.22 261.976C216.572 260.92 217.188 260.096 218.068 259.504C218.948 258.896 219.996 258.592 221.212 258.592C222.364 258.592 223.364 258.896 224.212 259.504C225.076 260.096 225.692 260.912 226.06 261.952C226.348 262.768 226.492 263.728 226.492 264.832C226.492 265.952 226.348 266.936 226.06 267.784C225.708 268.856 225.1 269.696 224.236 270.304C223.372 270.896 222.356 271.192 221.188 271.192ZM221.188 269.2C221.828 269.2 222.388 269.024 222.868 268.672C223.348 268.304 223.692 267.792 223.9 267.136C224.076 266.528 224.164 265.776 224.164 264.88C224.164 263.984 224.084 263.24 223.924 262.648C223.716 261.992 223.372 261.488 222.892 261.136C222.412 260.768 221.828 260.584 221.14 260.584C220.484 260.584 219.916 260.768 219.436 261.136C218.956 261.488 218.612 261.992 218.404 262.648C218.228 263.208 218.14 263.952 218.14 264.88C218.14 265.808 218.228 266.56 218.404 267.136C218.596 267.792 218.932 268.304 219.412 268.672C219.908 269.024 220.5 269.2 221.188 269.2ZM234.86 258.664C235.372 258.664 235.836 258.768 236.252 258.976C236.364 259.024 236.404 259.12 236.372 259.264L235.988 261.064C235.972 261.208 235.876 261.256 235.7 261.208C235.428 261.096 235.108 261.04 234.74 261.04L234.404 261.064C233.652 261.096 233.028 261.36 232.532 261.856C232.052 262.336 231.812 262.968 231.812 263.752V270.76C231.812 270.92 231.732 271 231.572 271H229.748C229.588 271 229.508 270.92 229.508 270.76V259.024C229.508 258.864 229.588 258.784 229.748 258.784H231.572C231.732 258.784 231.812 258.864 231.812 259.024V260.296C231.812 260.344 231.82 260.376 231.836 260.392C231.868 260.392 231.892 260.376 231.908 260.344C232.628 259.224 233.612 258.664 234.86 258.664ZM253.107 263.368C253.171 264.024 253.195 264.76 253.179 265.576C253.179 265.736 253.099 265.816 252.939 265.816H245.283C245.219 265.816 245.187 265.848 245.187 265.912C245.187 266.456 245.235 266.872 245.331 267.16C245.507 267.8 245.859 268.304 246.387 268.672C246.931 269.024 247.611 269.2 248.427 269.2C249.611 269.2 250.523 268.712 251.163 267.736C251.243 267.576 251.347 267.552 251.475 267.664L252.843 268.576C252.955 268.672 252.979 268.776 252.915 268.888C252.467 269.608 251.827 270.176 250.995 270.592C250.179 271.008 249.251 271.216 248.211 271.216C247.043 271.216 246.059 270.96 245.259 270.448C244.459 269.936 243.859 269.208 243.459 268.264C243.075 267.32 242.883 266.176 242.883 264.832C242.883 263.664 242.971 262.776 243.147 262.168C243.435 261.064 244.011 260.192 244.875 259.552C245.739 258.912 246.787 258.592 248.019 258.592C249.635 258.592 250.843 259 251.643 259.816C252.443 260.616 252.931 261.8 253.107 263.368ZM248.019 260.584C247.331 260.584 246.763 260.76 246.315 261.112C245.867 261.448 245.563 261.904 245.403 262.48C245.291 262.832 245.219 263.28 245.187 263.824C245.187 263.888 245.219 263.92 245.283 263.92H250.779C250.843 263.92 250.875 263.888 250.875 263.824C250.843 263.296 250.795 262.904 250.731 262.648C250.571 262.024 250.251 261.528 249.771 261.16C249.307 260.776 248.723 260.584 248.019 260.584ZM258.88 271C258.736 271 258.64 270.936 258.592 270.808L254.68 259.048L254.656 258.952C254.656 258.84 254.728 258.784 254.872 258.784H256.888C257.032 258.784 257.128 258.848 257.176 258.976L259.816 267.664C259.832 267.696 259.856 267.712 259.888 267.712C259.92 267.712 259.944 267.696 259.96 267.664L262.576 258.976C262.624 258.848 262.72 258.784 262.864 258.784L264.88 258.808C265.056 258.808 265.12 258.896 265.072 259.072L261.184 270.808C261.136 270.936 261.04 271 260.896 271H258.88ZM276.802 263.368C276.866 264.024 276.89 264.76 276.874 265.576C276.874 265.736 276.794 265.816 276.634 265.816H268.978C268.914 265.816 268.882 265.848 268.882 265.912C268.882 266.456 268.93 266.872 269.026 267.16C269.202 267.8 269.554 268.304 270.082 268.672C270.626 269.024 271.306 269.2 272.122 269.2C273.306 269.2 274.218 268.712 274.858 267.736C274.938 267.576 275.042 267.552 275.17 267.664L276.538 268.576C276.65 268.672 276.674 268.776 276.61 268.888C276.162 269.608 275.522 270.176 274.69 270.592C273.874 271.008 272.946 271.216 271.906 271.216C270.738 271.216 269.754 270.96 268.954 270.448C268.154 269.936 267.554 269.208 267.154 268.264C266.77 267.32 266.578 266.176 266.578 264.832C266.578 263.664 266.666 262.776 266.842 262.168C267.13 261.064 267.706 260.192 268.57 259.552C269.434 258.912 270.482 258.592 271.714 258.592C273.33 258.592 274.538 259 275.338 259.816C276.138 260.616 276.626 261.8 276.802 263.368ZM271.714 260.584C271.026 260.584 270.458 260.76 270.01 261.112C269.562 261.448 269.258 261.904 269.098 262.48C268.986 262.832 268.914 263.28 268.882 263.824C268.882 263.888 268.914 263.92 268.978 263.92H274.474C274.538 263.92 274.57 263.888 274.57 263.824C274.538 263.296 274.49 262.904 274.426 262.648C274.266 262.024 273.946 261.528 273.466 261.16C273.002 260.776 272.418 260.584 271.714 260.584ZM285.134 258.664C285.646 258.664 286.11 258.768 286.526 258.976C286.638 259.024 286.678 259.12 286.646 259.264L286.262 261.064C286.246 261.208 286.15 261.256 285.974 261.208C285.702 261.096 285.382 261.04 285.014 261.04L284.678 261.064C283.926 261.096 283.302 261.36 282.806 261.856C282.326 262.336 282.086 262.968 282.086 263.752V270.76C282.086 270.92 282.006 271 281.846 271H280.022C279.862 271 279.782 270.92 279.782 270.76V259.024C279.782 258.864 279.862 258.784 280.022 258.784H281.846C282.006 258.784 282.086 258.864 282.086 259.024V260.296C282.086 260.344 282.094 260.376 282.11 260.392C282.142 260.392 282.166 260.376 282.182 260.344C282.902 259.224 283.886 258.664 285.134 258.664ZM288.867 275.776C288.755 275.776 288.699 275.696 288.699 275.536V274.12C288.699 273.96 288.779 273.88 288.939 273.88H288.987C289.627 273.864 290.131 273.784 290.499 273.64C290.867 273.496 291.171 273.224 291.411 272.824C291.651 272.44 291.883 271.856 292.107 271.072C292.123 271.056 292.123 271.032 292.107 271C292.107 270.952 292.107 270.928 292.107 270.928L288.099 259.048L288.075 258.952C288.075 258.84 288.147 258.784 288.291 258.784H290.235C290.379 258.784 290.475 258.848 290.523 258.976L293.235 268.024C293.251 268.056 293.275 268.072 293.307 268.072C293.339 268.072 293.363 268.056 293.379 268.024L296.067 258.976C296.115 258.848 296.211 258.784 296.355 258.784H298.251C298.427 258.784 298.491 258.872 298.443 259.048L294.075 271.84C293.707 272.944 293.339 273.76 292.971 274.288C292.603 274.832 292.123 275.216 291.531 275.44C290.939 275.664 290.107 275.776 289.035 275.776H288.867ZM310.822 256.216C310.022 256.216 309.478 256.368 309.19 256.672C308.902 256.976 308.758 257.552 308.758 258.4V258.688C308.758 258.752 308.79 258.784 308.854 258.784H311.374C311.534 258.784 311.614 258.864 311.614 259.024V260.656C311.614 260.816 311.534 260.896 311.374 260.896H308.854C308.79 260.896 308.758 260.928 308.758 260.992V270.76C308.758 270.92 308.678 271 308.518 271H306.694C306.534 271 306.454 270.92 306.454 270.76V260.992C306.454 260.928 306.422 260.896 306.358 260.896H304.75C304.59 260.896 304.51 260.816 304.51 260.656V259.024C304.51 258.864 304.59 258.784 304.75 258.784H306.358C306.422 258.784 306.454 258.752 306.454 258.688V258.256C306.454 257.2 306.574 256.384 306.814 255.808C307.07 255.232 307.494 254.824 308.086 254.584C308.678 254.328 309.51 254.2 310.582 254.2H311.398C311.558 254.2 311.638 254.28 311.638 254.44V255.976C311.638 256.136 311.558 256.216 311.398 256.216H310.822ZM319.61 258.664C320.122 258.664 320.586 258.768 321.002 258.976C321.114 259.024 321.154 259.12 321.122 259.264L320.738 261.064C320.722 261.208 320.626 261.256 320.45 261.208C320.178 261.096 319.858 261.04 319.49 261.04L319.154 261.064C318.402 261.096 317.778 261.36 317.282 261.856C316.802 262.336 316.562 262.968 316.562 263.752V270.76C316.562 270.92 316.482 271 316.322 271H314.498C314.338 271 314.258 270.92 314.258 270.76V259.024C314.258 258.864 314.338 258.784 314.498 258.784H316.322C316.482 258.784 316.562 258.864 316.562 259.024V260.296C316.562 260.344 316.57 260.376 316.586 260.392C316.618 260.392 316.642 260.376 316.658 260.344C317.378 259.224 318.362 258.664 319.61 258.664ZM324.556 256.864C324.108 256.864 323.74 256.72 323.452 256.432C323.164 256.144 323.02 255.776 323.02 255.328C323.02 254.88 323.164 254.512 323.452 254.224C323.74 253.936 324.108 253.792 324.556 253.792C325.004 253.792 325.372 253.936 325.66 254.224C325.948 254.512 326.092 254.88 326.092 255.328C326.092 255.776 325.948 256.144 325.66 256.432C325.372 256.72 325.004 256.864 324.556 256.864ZM323.596 270.976C323.436 270.976 323.356 270.896 323.356 270.736V259.024C323.356 258.864 323.436 258.784 323.596 258.784H325.42C325.58 258.784 325.66 258.864 325.66 259.024V270.736C325.66 270.896 325.58 270.976 325.42 270.976H323.596ZM339.17 263.368C339.234 264.024 339.258 264.76 339.242 265.576C339.242 265.736 339.162 265.816 339.002 265.816H331.346C331.282 265.816 331.25 265.848 331.25 265.912C331.25 266.456 331.298 266.872 331.394 267.16C331.57 267.8 331.922 268.304 332.45 268.672C332.994 269.024 333.674 269.2 334.49 269.2C335.674 269.2 336.586 268.712 337.226 267.736C337.306 267.576 337.41 267.552 337.538 267.664L338.906 268.576C339.018 268.672 339.042 268.776 338.978 268.888C338.53 269.608 337.89 270.176 337.058 270.592C336.242 271.008 335.314 271.216 334.274 271.216C333.106 271.216 332.122 270.96 331.322 270.448C330.522 269.936 329.922 269.208 329.522 268.264C329.138 267.32 328.946 266.176 328.946 264.832C328.946 263.664 329.034 262.776 329.21 262.168C329.498 261.064 330.074 260.192 330.938 259.552C331.802 258.912 332.85 258.592 334.082 258.592C335.698 258.592 336.906 259 337.706 259.816C338.506 260.616 338.994 261.8 339.17 263.368ZM334.082 260.584C333.394 260.584 332.826 260.76 332.378 261.112C331.93 261.448 331.626 261.904 331.466 262.48C331.354 262.832 331.282 263.28 331.25 263.824C331.25 263.888 331.282 263.92 331.346 263.92H336.842C336.906 263.92 336.938 263.888 336.938 263.824C336.906 263.296 336.858 262.904 336.794 262.648C336.634 262.024 336.314 261.528 335.834 261.16C335.37 260.776 334.786 260.584 334.082 260.584ZM347.597 258.616C348.909 258.616 349.949 259 350.717 259.768C351.485 260.52 351.869 261.544 351.869 262.84V270.76C351.869 270.92 351.789 271 351.629 271H349.805C349.645 271 349.565 270.92 349.565 270.76V263.296C349.565 262.496 349.333 261.848 348.869 261.352C348.405 260.856 347.789 260.608 347.021 260.608C346.269 260.608 345.653 260.856 345.173 261.352C344.693 261.848 344.453 262.488 344.453 263.272V270.76C344.453 270.92 344.373 271 344.213 271H342.389C342.229 271 342.149 270.92 342.149 270.76V259.024C342.149 258.864 342.229 258.784 342.389 258.784H344.213C344.373 258.784 344.453 258.864 344.453 259.024V259.888C344.453 259.92 344.461 259.944 344.477 259.96C344.509 259.976 344.533 259.968 344.549 259.936C345.237 259.056 346.253 258.616 347.597 258.616ZM362.6 254.44C362.6 254.28 362.68 254.2 362.84 254.2H364.664C364.824 254.2 364.904 254.28 364.904 254.44V270.76C364.904 270.92 364.824 271 364.664 271H362.84C362.68 271 362.6 270.92 362.6 270.76V269.968C362.6 269.936 362.584 269.912 362.552 269.896C362.536 269.88 362.512 269.888 362.48 269.92C362.128 270.32 361.712 270.632 361.232 270.856C360.752 271.08 360.232 271.192 359.672 271.192C358.52 271.192 357.56 270.912 356.792 270.352C356.04 269.776 355.488 268.968 355.136 267.928C354.832 267.08 354.68 266.056 354.68 264.856C354.68 263.736 354.808 262.768 355.064 261.952C355.4 260.896 355.952 260.072 356.72 259.48C357.488 258.888 358.472 258.592 359.672 258.592C360.216 258.592 360.728 258.704 361.208 258.928C361.704 259.136 362.128 259.44 362.48 259.84C362.512 259.872 362.536 259.88 362.552 259.864C362.584 259.848 362.6 259.824 362.6 259.792V254.44ZM362 267.904C362.368 267.232 362.552 266.224 362.552 264.88C362.552 263.536 362.352 262.512 361.952 261.808C361.488 260.992 360.808 260.584 359.912 260.584C358.952 260.584 358.24 260.968 357.776 261.736C357.264 262.536 357.008 263.592 357.008 264.904C357.008 266.136 357.208 267.128 357.608 267.88C358.072 268.76 358.832 269.2 359.888 269.2C360.816 269.2 361.52 268.768 362 267.904ZM379.11 260.44C379.11 260.6 379.03 260.68 378.87 260.68H376.278C376.214 260.68 376.182 260.712 376.182 260.776V267.136C376.182 267.808 376.334 268.296 376.638 268.6C376.942 268.888 377.414 269.032 378.054 269.032H378.75C378.91 269.032 378.99 269.112 378.99 269.272V270.76C378.99 270.92 378.91 271 378.75 271C378.238 271.032 377.87 271.048 377.646 271.048C376.43 271.048 375.51 270.832 374.886 270.4C374.278 269.952 373.974 269.136 373.974 267.952V260.776C373.974 260.712 373.942 260.68 373.878 260.68H372.414C372.254 260.68 372.174 260.6 372.174 260.44V259.024C372.174 258.864 372.254 258.784 372.414 258.784H373.878C373.942 258.784 373.974 258.752 373.974 258.688V255.856C373.974 255.696 374.054 255.616 374.214 255.616H375.942C376.102 255.616 376.182 255.696 376.182 255.856V258.688C376.182 258.752 376.214 258.784 376.278 258.784H378.87C379.03 258.784 379.11 258.864 379.11 259.024V260.44ZM387.394 258.616C388.706 258.616 389.746 259 390.514 259.768C391.282 260.52 391.666 261.544 391.666 262.84V270.76C391.666 270.92 391.586 271 391.426 271H389.602C389.442 271 389.362 270.92 389.362 270.76V263.296C389.362 262.496 389.13 261.848 388.666 261.352C388.202 260.856 387.586 260.608 386.818 260.608C386.066 260.608 385.45 260.856 384.97 261.352C384.49 261.848 384.25 262.488 384.25 263.272V270.76C384.25 270.92 384.17 271 384.01 271H382.186C382.026 271 381.946 270.92 381.946 270.76V254.44C381.946 254.28 382.026 254.2 382.186 254.2H384.01C384.17 254.2 384.25 254.28 384.25 254.44V259.888C384.25 259.92 384.258 259.944 384.274 259.96C384.306 259.976 384.33 259.968 384.346 259.936C385.034 259.056 386.05 258.616 387.394 258.616ZM399.417 258.592C400.393 258.592 401.241 258.768 401.961 259.12C402.697 259.456 403.257 259.936 403.641 260.56C404.041 261.168 404.241 261.864 404.241 262.648V270.76C404.241 270.92 404.161 271 404.001 271H402.177C402.017 271 401.937 270.92 401.937 270.76V269.896C401.937 269.816 401.897 269.8 401.817 269.848C401.401 270.28 400.889 270.616 400.281 270.856C399.689 271.08 399.025 271.192 398.289 271.192C397.105 271.192 396.121 270.896 395.337 270.304C394.569 269.696 394.185 268.784 394.185 267.568C394.185 266.32 394.617 265.344 395.481 264.64C396.361 263.92 397.585 263.56 399.153 263.56H401.841C401.905 263.56 401.937 263.528 401.937 263.464V262.816C401.937 262.112 401.729 261.568 401.313 261.184C400.913 260.784 400.297 260.584 399.465 260.584C398.793 260.584 398.241 260.72 397.809 260.992C397.393 261.248 397.137 261.6 397.041 262.048C396.993 262.208 396.897 262.28 396.753 262.264L394.809 262C394.649 261.968 394.577 261.904 394.593 261.808C394.721 260.864 395.225 260.096 396.105 259.504C396.985 258.896 398.089 258.592 399.417 258.592ZM398.793 269.248C399.641 269.248 400.377 269.024 401.001 268.576C401.625 268.128 401.937 267.56 401.937 266.872V265.456C401.937 265.392 401.905 265.36 401.841 265.36H399.585C398.641 265.36 397.889 265.544 397.329 265.912C396.769 266.28 396.489 266.792 396.489 267.448C396.489 268.04 396.697 268.488 397.113 268.792C397.545 269.096 398.105 269.248 398.793 269.248ZM413.212 260.44C413.212 260.6 413.132 260.68 412.972 260.68H410.38C410.316 260.68 410.284 260.712 410.284 260.776V267.136C410.284 267.808 410.436 268.296 410.74 268.6C411.044 268.888 411.516 269.032 412.156 269.032H412.852C413.012 269.032 413.092 269.112 413.092 269.272V270.76C413.092 270.92 413.012 271 412.852 271C412.34 271.032 411.972 271.048 411.748 271.048C410.532 271.048 409.612 270.832 408.988 270.4C408.38 269.952 408.076 269.136 408.076 267.952V260.776C408.076 260.712 408.044 260.68 407.98 260.68H406.516C406.356 260.68 406.276 260.6 406.276 260.44V259.024C406.276 258.864 406.356 258.784 406.516 258.784H407.98C408.044 258.784 408.076 258.752 408.076 258.688V255.856C408.076 255.696 408.156 255.616 408.316 255.616H410.044C410.204 255.616 410.284 255.696 410.284 255.856V258.688C410.284 258.752 410.316 258.784 410.38 258.784H412.972C413.132 258.784 413.212 258.864 413.212 259.024V260.44ZM121.264 285.44C121.264 285.28 121.344 285.2 121.504 285.2H123.328C123.488 285.2 123.568 285.28 123.568 285.44V301.76C123.568 301.92 123.488 302 123.328 302H121.504C121.344 302 121.264 301.92 121.264 301.76V300.968C121.264 300.936 121.248 300.912 121.216 300.896C121.2 300.88 121.176 300.888 121.144 300.92C120.792 301.32 120.376 301.632 119.896 301.856C119.416 302.08 118.896 302.192 118.336 302.192C117.184 302.192 116.224 301.912 115.456 301.352C114.704 300.776 114.152 299.968 113.8 298.928C113.496 298.08 113.344 297.056 113.344 295.856C113.344 294.736 113.472 293.768 113.728 292.952C114.064 291.896 114.616 291.072 115.384 290.48C116.152 289.888 117.136 289.592 118.336 289.592C118.88 289.592 119.392 289.704 119.872 289.928C120.368 290.136 120.792 290.44 121.144 290.84C121.176 290.872 121.2 290.88 121.216 290.864C121.248 290.848 121.264 290.824 121.264 290.792V285.44ZM120.664 298.904C121.032 298.232 121.216 297.224 121.216 295.88C121.216 294.536 121.016 293.512 120.616 292.808C120.152 291.992 119.472 291.584 118.576 291.584C117.616 291.584 116.904 291.968 116.44 292.736C115.928 293.536 115.672 294.592 115.672 295.904C115.672 297.136 115.872 298.128 116.272 298.88C116.736 299.76 117.496 300.2 118.552 300.2C119.48 300.2 120.184 299.768 120.664 298.904ZM131.938 302.192C130.754 302.192 129.722 301.896 128.842 301.304C127.962 300.696 127.346 299.856 126.994 298.784C126.706 297.92 126.562 296.944 126.562 295.856C126.562 294.72 126.698 293.76 126.97 292.976C127.322 291.92 127.938 291.096 128.818 290.504C129.698 289.896 130.746 289.592 131.962 289.592C133.114 289.592 134.114 289.896 134.962 290.504C135.826 291.096 136.442 291.912 136.81 292.952C137.098 293.768 137.242 294.728 137.242 295.832C137.242 296.952 137.098 297.936 136.81 298.784C136.458 299.856 135.85 300.696 134.986 301.304C134.122 301.896 133.106 302.192 131.938 302.192ZM131.938 300.2C132.578 300.2 133.138 300.024 133.618 299.672C134.098 299.304 134.442 298.792 134.65 298.136C134.826 297.528 134.914 296.776 134.914 295.88C134.914 294.984 134.834 294.24 134.674 293.648C134.466 292.992 134.122 292.488 133.642 292.136C133.162 291.768 132.578 291.584 131.89 291.584C131.234 291.584 130.666 291.768 130.186 292.136C129.706 292.488 129.362 292.992 129.154 293.648C128.978 294.208 128.89 294.952 128.89 295.88C128.89 296.808 128.978 297.56 129.154 298.136C129.346 298.792 129.682 299.304 130.162 299.672C130.658 300.024 131.25 300.2 131.938 300.2ZM142.408 302C142.28 302 142.192 301.936 142.144 301.808L138.688 290.048L138.664 289.976C138.664 289.848 138.744 289.784 138.904 289.784H140.776C140.92 289.784 141.008 289.856 141.04 290L143.32 298.712C143.336 298.744 143.352 298.76 143.368 298.76C143.4 298.76 143.424 298.744 143.44 298.712L145.768 290C145.8 289.856 145.888 289.784 146.032 289.784H147.688C147.832 289.784 147.92 289.856 147.952 290L150.328 298.688C150.344 298.72 150.36 298.736 150.376 298.736C150.408 298.736 150.432 298.72 150.448 298.688L152.824 290C152.856 289.856 152.944 289.784 153.088 289.784L154.936 289.808C155.016 289.808 155.072 289.832 155.104 289.88C155.152 289.928 155.168 289.992 155.152 290.072L151.672 301.808C151.624 301.936 151.536 302 151.408 302H149.536C149.408 302 149.32 301.936 149.272 301.808L146.92 293.696C146.904 293.664 146.88 293.648 146.848 293.648C146.832 293.648 146.816 293.664 146.8 293.696L144.568 301.784C144.536 301.928 144.448 302 144.304 302H142.408ZM162.98 289.616C164.292 289.616 165.332 290 166.1 290.768C166.868 291.52 167.252 292.544 167.252 293.84V301.76C167.252 301.92 167.172 302 167.012 302H165.188C165.028 302 164.948 301.92 164.948 301.76V294.296C164.948 293.496 164.716 292.848 164.252 292.352C163.788 291.856 163.172 291.608 162.404 291.608C161.652 291.608 161.036 291.856 160.556 292.352C160.076 292.848 159.836 293.488 159.836 294.272V301.76C159.836 301.92 159.756 302 159.596 302H157.772C157.612 302 157.532 301.92 157.532 301.76V290.024C157.532 289.864 157.612 289.784 157.772 289.784H159.596C159.756 289.784 159.836 289.864 159.836 290.024V290.888C159.836 290.92 159.844 290.944 159.86 290.96C159.892 290.976 159.916 290.968 159.932 290.936C160.62 290.056 161.636 289.616 162.98 289.616ZM170.779 302C170.619 302 170.539 301.92 170.539 301.76V285.44C170.539 285.28 170.619 285.2 170.779 285.2H172.603C172.763 285.2 172.843 285.28 172.843 285.44V301.76C172.843 301.92 172.763 302 172.603 302H170.779ZM181.18 302.192C179.996 302.192 178.964 301.896 178.084 301.304C177.204 300.696 176.588 299.856 176.236 298.784C175.948 297.92 175.804 296.944 175.804 295.856C175.804 294.72 175.94 293.76 176.212 292.976C176.564 291.92 177.18 291.096 178.06 290.504C178.94 289.896 179.988 289.592 181.204 289.592C182.356 289.592 183.356 289.896 184.204 290.504C185.068 291.096 185.684 291.912 186.052 292.952C186.34 293.768 186.484 294.728 186.484 295.832C186.484 296.952 186.34 297.936 186.052 298.784C185.7 299.856 185.092 300.696 184.228 301.304C183.364 301.896 182.348 302.192 181.18 302.192ZM181.18 300.2C181.82 300.2 182.38 300.024 182.86 299.672C183.34 299.304 183.684 298.792 183.892 298.136C184.068 297.528 184.156 296.776 184.156 295.88C184.156 294.984 184.076 294.24 183.916 293.648C183.708 292.992 183.364 292.488 182.884 292.136C182.404 291.768 181.82 291.584 181.132 291.584C180.476 291.584 179.908 291.768 179.428 292.136C178.948 292.488 178.604 292.992 178.396 293.648C178.22 294.208 178.132 294.952 178.132 295.88C178.132 296.808 178.22 297.56 178.396 298.136C178.588 298.792 178.924 299.304 179.404 299.672C179.9 300.024 180.492 300.2 181.18 300.2ZM193.964 289.592C194.94 289.592 195.788 289.768 196.508 290.12C197.244 290.456 197.804 290.936 198.188 291.56C198.588 292.168 198.788 292.864 198.788 293.648V301.76C198.788 301.92 198.708 302 198.548 302H196.724C196.564 302 196.484 301.92 196.484 301.76V300.896C196.484 300.816 196.444 300.8 196.364 300.848C195.948 301.28 195.436 301.616 194.828 301.856C194.236 302.08 193.572 302.192 192.836 302.192C191.652 302.192 190.668 301.896 189.884 301.304C189.116 300.696 188.732 299.784 188.732 298.568C188.732 297.32 189.164 296.344 190.028 295.64C190.908 294.92 192.132 294.56 193.7 294.56H196.388C196.452 294.56 196.484 294.528 196.484 294.464V293.816C196.484 293.112 196.276 292.568 195.86 292.184C195.46 291.784 194.844 291.584 194.012 291.584C193.34 291.584 192.788 291.72 192.356 291.992C191.94 292.248 191.684 292.6 191.588 293.048C191.54 293.208 191.444 293.28 191.3 293.264L189.356 293C189.196 292.968 189.124 292.904 189.14 292.808C189.268 291.864 189.772 291.096 190.652 290.504C191.532 289.896 192.636 289.592 193.964 289.592ZM193.34 300.248C194.188 300.248 194.924 300.024 195.548 299.576C196.172 299.128 196.484 298.56 196.484 297.872V296.456C196.484 296.392 196.452 296.36 196.388 296.36H194.132C193.188 296.36 192.436 296.544 191.876 296.912C191.316 297.28 191.036 297.792 191.036 298.448C191.036 299.04 191.244 299.488 191.66 299.792C192.092 300.096 192.652 300.248 193.34 300.248ZM209.483 285.44C209.483 285.28 209.563 285.2 209.723 285.2H211.547C211.707 285.2 211.787 285.28 211.787 285.44V301.76C211.787 301.92 211.707 302 211.547 302H209.723C209.563 302 209.483 301.92 209.483 301.76V300.968C209.483 300.936 209.467 300.912 209.435 300.896C209.419 300.88 209.395 300.888 209.363 300.92C209.011 301.32 208.595 301.632 208.115 301.856C207.635 302.08 207.115 302.192 206.555 302.192C205.403 302.192 204.443 301.912 203.675 301.352C202.923 300.776 202.371 299.968 202.019 298.928C201.715 298.08 201.563 297.056 201.563 295.856C201.563 294.736 201.691 293.768 201.947 292.952C202.283 291.896 202.835 291.072 203.603 290.48C204.371 289.888 205.355 289.592 206.555 289.592C207.099 289.592 207.611 289.704 208.091 289.928C208.587 290.136 209.011 290.44 209.363 290.84C209.395 290.872 209.419 290.88 209.435 290.864C209.467 290.848 209.483 290.824 209.483 290.792V285.44ZM208.883 298.904C209.251 298.232 209.435 297.224 209.435 295.88C209.435 294.536 209.235 293.512 208.835 292.808C208.371 291.992 207.691 291.584 206.795 291.584C205.835 291.584 205.123 291.968 204.659 292.736C204.147 293.536 203.891 294.592 203.891 295.904C203.891 297.136 204.091 298.128 204.491 298.88C204.955 299.76 205.715 300.2 206.771 300.2C207.699 300.2 208.403 299.768 208.883 298.904ZM219.46 302.144C218.5 302.144 217.652 302 216.916 301.712C216.196 301.424 215.636 301.032 215.236 300.536C214.836 300.024 214.636 299.464 214.636 298.856V298.592C214.636 298.432 214.716 298.352 214.876 298.352H216.604C216.764 298.352 216.844 298.432 216.844 298.592V298.712C216.844 299.16 217.084 299.552 217.564 299.888C218.06 300.224 218.684 300.392 219.436 300.392C220.156 300.392 220.74 300.24 221.188 299.936C221.636 299.616 221.86 299.216 221.86 298.736C221.86 298.272 221.652 297.928 221.236 297.704C220.82 297.464 220.148 297.216 219.22 296.96C218.308 296.704 217.54 296.448 216.916 296.192C216.308 295.92 215.788 295.544 215.356 295.064C214.94 294.568 214.732 293.936 214.732 293.168C214.732 292.096 215.148 291.248 215.98 290.624C216.828 289.984 217.948 289.664 219.34 289.664C220.268 289.664 221.084 289.816 221.788 290.12C222.508 290.408 223.06 290.816 223.444 291.344C223.828 291.872 224.02 292.464 224.02 293.12V293.192C224.02 293.352 223.94 293.432 223.78 293.432H222.1C221.94 293.432 221.86 293.352 221.86 293.192V293.12C221.86 292.656 221.628 292.272 221.164 291.968C220.716 291.648 220.1 291.488 219.316 291.488C218.612 291.488 218.036 291.624 217.588 291.896C217.156 292.168 216.94 292.536 216.94 293C216.94 293.464 217.148 293.816 217.564 294.056C217.996 294.296 218.684 294.552 219.628 294.824C220.556 295.08 221.324 295.336 221.932 295.592C222.556 295.832 223.084 296.2 223.516 296.696C223.948 297.176 224.164 297.808 224.164 298.592C224.164 299.68 223.732 300.544 222.868 301.184C222.02 301.824 220.884 302.144 219.46 302.144ZM237.688 291.44C237.688 291.6 237.608 291.68 237.448 291.68H234.856C234.792 291.68 234.76 291.712 234.76 291.776V298.136C234.76 298.808 234.912 299.296 235.216 299.6C235.52 299.888 235.992 300.032 236.632 300.032H237.328C237.488 300.032 237.568 300.112 237.568 300.272V301.76C237.568 301.92 237.488 302 237.328 302C236.816 302.032 236.448 302.048 236.224 302.048C235.008 302.048 234.088 301.832 233.464 301.4C232.856 300.952 232.552 300.136 232.552 298.952V291.776C232.552 291.712 232.52 291.68 232.456 291.68H230.992C230.832 291.68 230.752 291.6 230.752 291.44V290.024C230.752 289.864 230.832 289.784 230.992 289.784H232.456C232.52 289.784 232.552 289.752 232.552 289.688V286.856C232.552 286.696 232.632 286.616 232.792 286.616H234.52C234.68 286.616 234.76 286.696 234.76 286.856V289.688C234.76 289.752 234.792 289.784 234.856 289.784H237.448C237.608 289.784 237.688 289.864 237.688 290.024V291.44ZM245.972 289.616C247.284 289.616 248.324 290 249.092 290.768C249.86 291.52 250.244 292.544 250.244 293.84V301.76C250.244 301.92 250.164 302 250.004 302H248.18C248.02 302 247.94 301.92 247.94 301.76V294.296C247.94 293.496 247.708 292.848 247.244 292.352C246.78 291.856 246.164 291.608 245.396 291.608C244.644 291.608 244.028 291.856 243.548 292.352C243.068 292.848 242.828 293.488 242.828 294.272V301.76C242.828 301.92 242.748 302 242.588 302H240.764C240.604 302 240.524 301.92 240.524 301.76V285.44C240.524 285.28 240.604 285.2 240.764 285.2H242.588C242.748 285.2 242.828 285.28 242.828 285.44V290.888C242.828 290.92 242.836 290.944 242.852 290.96C242.884 290.976 242.908 290.968 242.924 290.936C243.612 290.056 244.628 289.616 245.972 289.616ZM263.279 294.368C263.343 295.024 263.367 295.76 263.351 296.576C263.351 296.736 263.271 296.816 263.111 296.816H255.455C255.391 296.816 255.359 296.848 255.359 296.912C255.359 297.456 255.407 297.872 255.503 298.16C255.679 298.8 256.031 299.304 256.559 299.672C257.103 300.024 257.783 300.2 258.599 300.2C259.783 300.2 260.695 299.712 261.335 298.736C261.415 298.576 261.519 298.552 261.647 298.664L263.015 299.576C263.127 299.672 263.151 299.776 263.087 299.888C262.639 300.608 261.999 301.176 261.167 301.592C260.351 302.008 259.423 302.216 258.383 302.216C257.215 302.216 256.231 301.96 255.431 301.448C254.631 300.936 254.031 300.208 253.631 299.264C253.247 298.32 253.055 297.176 253.055 295.832C253.055 294.664 253.143 293.776 253.319 293.168C253.607 292.064 254.183 291.192 255.047 290.552C255.911 289.912 256.959 289.592 258.191 289.592C259.807 289.592 261.015 290 261.815 290.816C262.615 291.616 263.103 292.8 263.279 294.368ZM258.191 291.584C257.503 291.584 256.935 291.76 256.487 292.112C256.039 292.448 255.735 292.904 255.575 293.48C255.463 293.832 255.391 294.28 255.359 294.824C255.359 294.888 255.391 294.92 255.455 294.92H260.951C261.015 294.92 261.047 294.888 261.047 294.824C261.015 294.296 260.967 293.904 260.903 293.648C260.743 293.024 260.423 292.528 259.943 292.16C259.479 291.776 258.895 291.584 258.191 291.584ZM275.527 289.592C276.503 289.592 277.351 289.768 278.071 290.12C278.807 290.456 279.367 290.936 279.751 291.56C280.151 292.168 280.351 292.864 280.351 293.648V301.76C280.351 301.92 280.271 302 280.111 302H278.287C278.127 302 278.047 301.92 278.047 301.76V300.896C278.047 300.816 278.007 300.8 277.927 300.848C277.511 301.28 276.999 301.616 276.391 301.856C275.799 302.08 275.135 302.192 274.399 302.192C273.215 302.192 272.231 301.896 271.447 301.304C270.679 300.696 270.295 299.784 270.295 298.568C270.295 297.32 270.727 296.344 271.591 295.64C272.471 294.92 273.695 294.56 275.263 294.56H277.951C278.015 294.56 278.047 294.528 278.047 294.464V293.816C278.047 293.112 277.839 292.568 277.423 292.184C277.023 291.784 276.407 291.584 275.575 291.584C274.903 291.584 274.351 291.72 273.919 291.992C273.503 292.248 273.247 292.6 273.151 293.048C273.103 293.208 273.007 293.28 272.863 293.264L270.919 293C270.759 292.968 270.687 292.904 270.703 292.808C270.831 291.864 271.335 291.096 272.215 290.504C273.095 289.896 274.199 289.592 275.527 289.592ZM274.903 300.248C275.751 300.248 276.487 300.024 277.111 299.576C277.735 299.128 278.047 298.56 278.047 297.872V296.456C278.047 296.392 278.015 296.36 277.951 296.36H275.695C274.751 296.36 273.999 296.544 273.439 296.912C272.879 297.28 272.599 297.792 272.599 298.448C272.599 299.04 272.807 299.488 273.223 299.792C273.655 300.096 274.215 300.248 274.903 300.248ZM293.373 292.856C293.677 293.72 293.829 294.744 293.829 295.928C293.829 297.048 293.701 298.016 293.445 298.832C293.109 299.904 292.557 300.736 291.789 301.328C291.021 301.904 290.037 302.192 288.837 302.192C288.293 302.192 287.773 302.088 287.277 301.88C286.797 301.656 286.381 301.344 286.029 300.944C285.997 300.912 285.965 300.904 285.933 300.92C285.917 300.936 285.909 300.96 285.909 300.992V306.344C285.909 306.504 285.829 306.584 285.669 306.584H283.845C283.685 306.584 283.605 306.504 283.605 306.344V290.024C283.605 289.864 283.685 289.784 283.845 289.784H285.669C285.829 289.784 285.909 289.864 285.909 290.024V290.816C285.909 290.848 285.917 290.872 285.933 290.888C285.965 290.904 285.997 290.896 286.029 290.864C286.381 290.464 286.797 290.152 287.277 289.928C287.757 289.704 288.277 289.592 288.837 289.592C289.989 289.592 290.941 289.88 291.693 290.456C292.461 291.016 293.021 291.816 293.373 292.856ZM290.733 299.048C291.245 298.28 291.501 297.224 291.501 295.88C291.501 294.648 291.301 293.656 290.901 292.904C290.437 292.024 289.677 291.584 288.621 291.584C287.693 291.584 286.989 292.016 286.509 292.88C286.125 293.568 285.933 294.576 285.933 295.904C285.933 297.248 286.141 298.272 286.557 298.976C287.021 299.792 287.701 300.2 288.597 300.2C289.557 300.2 290.269 299.816 290.733 299.048ZM306.756 292.856C307.06 293.72 307.212 294.744 307.212 295.928C307.212 297.048 307.084 298.016 306.828 298.832C306.492 299.904 305.94 300.736 305.172 301.328C304.404 301.904 303.42 302.192 302.22 302.192C301.676 302.192 301.156 302.088 300.66 301.88C300.18 301.656 299.764 301.344 299.412 300.944C299.38 300.912 299.348 300.904 299.316 300.92C299.3 300.936 299.292 300.96 299.292 300.992V306.344C299.292 306.504 299.212 306.584 299.052 306.584H297.228C297.068 306.584 296.988 306.504 296.988 306.344V290.024C296.988 289.864 297.068 289.784 297.228 289.784H299.052C299.212 289.784 299.292 289.864 299.292 290.024V290.816C299.292 290.848 299.3 290.872 299.316 290.888C299.348 290.904 299.38 290.896 299.412 290.864C299.764 290.464 300.18 290.152 300.66 289.928C301.14 289.704 301.66 289.592 302.22 289.592C303.372 289.592 304.324 289.88 305.076 290.456C305.844 291.016 306.404 291.816 306.756 292.856ZM304.116 299.048C304.628 298.28 304.884 297.224 304.884 295.88C304.884 294.648 304.684 293.656 304.284 292.904C303.82 292.024 303.06 291.584 302.004 291.584C301.076 291.584 300.372 292.016 299.892 292.88C299.508 293.568 299.316 294.576 299.316 295.904C299.316 297.248 299.524 298.272 299.94 298.976C300.404 299.792 301.084 300.2 301.98 300.2C302.94 300.2 303.652 299.816 304.116 299.048ZM311.388 302C310.94 302 310.572 301.856 310.284 301.568C309.996 301.28 309.852 300.912 309.852 300.464C309.852 300.016 309.996 299.648 310.284 299.36C310.572 299.072 310.94 298.928 311.388 298.928C311.836 298.928 312.204 299.072 312.492 299.36C312.78 299.648 312.924 300.016 312.924 300.464C312.924 300.912 312.78 301.28 312.492 301.568C312.204 301.856 311.836 302 311.388 302Z" fill="#15182C"/>
</svg>
