<svg width="21" height="31" viewBox="0 0 21 31" fill="none" xmlns="http://www.w3.org/2000/svg">
<path d="M17.1477 17.1466C15.8425 17.8727 14.6224 18.9803 13.5712 20.3932C12.52 21.8061 11.6626 23.4908 11.0579 25.3317L9.32031 30.6774L8.38722 25.4503C8.06599 23.6493 7.46631 22.0266 6.62934 20.6936C5.79237 19.3606 4.73791 18.3488 3.53835 17.7276L0.0373775 15.9437L3.82496 13.8302C5.12987 13.1059 6.34985 11.9997 7.40093 10.5878C8.452 9.17596 9.3092 7.49198 9.9135 5.65177L11.6689 0.309279L12.6065 5.53718C12.9277 7.33816 13.5274 8.96085 14.3644 10.2939C15.2013 11.6269 16.2558 12.6387 17.4553 13.2599L20.9393 15.0613L17.1477 17.1466Z" fill="#FFF8E1"/>
</svg>
